STARTFONT 2.1
COMMENT
COMMENT Converted from OpenType font "Helvetica.ttc" by "otf2bdf 3.0".
COMMENT
FONT -FreeType-Unknown-Medium-R-Normal--25-180-100-100-P-127-FontSpecific-0
SIZE 18 100 100
FONTBOUNDINGBOX 60 40 -24 -12
STARTPROPERTIES 19
FOUNDRY "FreeType"
FAMILY_NAME "Unknown"
WEIGHT_NAME "Medium"
SLANT "R"
SETWIDTH_NAME "Normal"
ADD_STYLE_NAME ""
PIXEL_SIZE 25
POINT_SIZE 180
RESOLUTION_X 100
RESOLUTION_Y 100
SPACING "P"
AVERAGE_WIDTH 127
CHARSET_REGISTRY "FontSpecific"
CHARSET_ENCODING "0"
FONT_ASCENT 19
FONT_DESCENT 5
COPYRIGHT "-FreeType-Unknown-Medium-R-Normal--25-180-100-100-P-127-FontSpecific-0"
_OTF_FONTFILE "Helvetica.ttc"
_OTF_PSNAME "-FreeType-Unknown-Medium-R-Normal--25-180-100-100-P-127-FontSpecific-0"
ENDPROPERTIES
CHARS 2251
STARTCHAR 0001
ENCODING 1
SWIDTH 0 0
DWIDTH 0 0
BBX 0 0 0 0
BITMAP
ENDCHAR
STARTCHAR 0002
ENCODING 2
SWIDTH 280 0
DWIDTH 7 0
BBX 0 0 0 0
BITMAP
ENDCHAR
STARTCHAR 0003
ENCODING 3
SWIDTH 280 0
DWIDTH 7 0
BBX 0 0 0 0
BITMAP
ENDCHAR
STARTCHAR 0004
ENCODING 4
SWIDTH 280 0
DWIDTH 7 0
BBX 2 18 3 0
BITMAP
C0
C0
C0
C0
C0
C0
C0
C0
C0
C0
C0
C0
C0
C0
00
00
C0
C0
ENDCHAR
STARTCHAR 0005
ENCODING 5
SWIDTH 360 0
DWIDTH 9 0
BBX 6 7 1 11
BITMAP
CC
CC
CC
CC
CC
CC
C4
ENDCHAR
STARTCHAR 0006
ENCODING 6
SWIDTH 560 0
DWIDTH 14 0
BBX 14 18 0 0
BITMAP
0310
0330
0230
0630
0620
0660
3FFC
0C60
0CC0
08C0
18C0
1880
FFF0
1180
3180
3100
3300
6300
ENDCHAR
STARTCHAR 0007
ENCODING 7
SWIDTH 560 0
DWIDTH 14 0
BBX 12 21 1 -2
BITMAP
0400
0400
1F80
7FC0
64E0
E460
C470
E400
7400
7F00
1FC0
04E0
0470
C430
C430
E470
74E0
7FE0
1F80
0400
0400
ENDCHAR
STARTCHAR 0008
ENCODING 8
SWIDTH 880 0
DWIDTH 22 0
BBX 20 17 1 0
BITMAP
3C0200
7E0600
E30400
C30C00
C10800
C31000
E31000
7E2000
3C63C0
0047E0
00CE30
008C30
010C10
030C30
020E30
0607E0
0403C0
ENDCHAR
STARTCHAR 0009
ENCODING 9
SWIDTH 680 0
DWIDTH 17 0
BBX 15 18 1 0
BITMAP
0F80
1FC0
38C0
30E0
30C0
18C0
1DC0
0F80
1E00
3B18
7398
E1D8
C0F0
C070
E078
70F8
7FDC
1F0E
ENDCHAR
STARTCHAR 000A
ENCODING 10
SWIDTH 200 0
DWIDTH 5 0
BBX 2 7 2 11
BITMAP
C0
C0
C0
C0
C0
C0
C0
ENDCHAR
STARTCHAR 000B
ENCODING 11
SWIDTH 320 0
DWIDTH 8 0
BBX 5 23 2 -5
BITMAP
08
18
30
30
60
60
E0
C0
C0
C0
C0
C0
C0
C0
C0
C0
E0
60
60
30
30
18
08
ENDCHAR
STARTCHAR 000C
ENCODING 12
SWIDTH 320 0
DWIDTH 8 0
BBX 6 23 1 -5
BITMAP
C0
40
60
30
30
30
18
18
18
18
1C
1C
18
18
18
18
18
30
30
20
60
40
C0
ENDCHAR
STARTCHAR 000D
ENCODING 13
SWIDTH 400 0
DWIDTH 10 0
BBX 8 7 1 11
BITMAP
18
18
FF
18
3C
64
44
ENDCHAR
STARTCHAR 000E
ENCODING 14
SWIDTH 600 0
DWIDTH 15 0
BBX 13 12 1 0
BITMAP
0700
0700
0700
0700
0700
FFF8
FFF8
0700
0700
0700
0700
0700
ENDCHAR
STARTCHAR 000F
ENCODING 15
SWIDTH 280 0
DWIDTH 7 0
BBX 3 6 2 -4
BITMAP
E0
E0
60
60
40
80
ENDCHAR
STARTCHAR 0010
ENCODING 16
SWIDTH 320 0
DWIDTH 8 0
BBX 6 2 1 6
BITMAP
FC
FC
ENDCHAR
STARTCHAR 0011
ENCODING 17
SWIDTH 280 0
DWIDTH 7 0
BBX 3 2 2 0
BITMAP
E0
E0
ENDCHAR
STARTCHAR 0012
ENCODING 18
SWIDTH 280 0
DWIDTH 7 0
BBX 7 18 0 0
BITMAP
02
06
06
04
0C
0C
0C
18
18
18
30
30
30
60
60
60
C0
C0
ENDCHAR
STARTCHAR 0013
ENCODING 19
SWIDTH 560 0
DWIDTH 14 0
BBX 12 17 1 0
BITMAP
1F00
3FC0
70E0
6060
E060
C070
C070
C070
C070
C070
C070
C070
E060
6060
70C0
3FC0
1F00
ENDCHAR
STARTCHAR 0014
ENCODING 20
SWIDTH 560 0
DWIDTH 14 0
BBX 7 17 2 0
BITMAP
06
0E
1E
FE
FE
0E
0E
0E
0E
0E
0E
0E
0E
0E
0E
0E
0E
ENDCHAR
STARTCHAR 0015
ENCODING 21
SWIDTH 560 0
DWIDTH 14 0
BBX 12 17 1 0
BITMAP
1F80
3FC0
70E0
6070
E070
C070
0070
00E0
01C0
0780
1E00
3C00
7000
6000
C000
FFF0
FFF0
ENDCHAR
STARTCHAR 0016
ENCODING 22
SWIDTH 560 0
DWIDTH 14 0
BBX 12 17 1 0
BITMAP
1F80
7FC0
60E0
E060
C060
0060
00C0
0F80
0FC0
00E0
0070
C070
C070
E060
E0E0
7FC0
1F00
ENDCHAR
STARTCHAR 0017
ENCODING 23
SWIDTH 560 0
DWIDTH 14 0
BBX 12 17 1 0
BITMAP
01C0
01C0
03C0
07C0
0DC0
0DC0
19C0
31C0
71C0
61C0
C1C0
FFF0
FFF0
01C0
01C0
01C0
01C0
ENDCHAR
STARTCHAR 0018
ENCODING 24
SWIDTH 560 0
DWIDTH 14 0
BBX 12 17 1 0
BITMAP
3FE0
3FE0
6000
6000
6000
6F80
7FC0
70E0
E060
0070
0070
0070
C070
E060
F0E0
7FC0
1F00
ENDCHAR
STARTCHAR 0019
ENCODING 25
SWIDTH 560 0
DWIDTH 14 0
BBX 12 17 1 0
BITMAP
0F80
3FC0
38E0
6060
6070
E000
CF80
DFC0
F0E0
E070
E070
C030
E070
6060
70E0
3FC0
1F80
ENDCHAR
STARTCHAR 001A
ENCODING 26
SWIDTH 560 0
DWIDTH 14 0
BBX 12 17 1 0
BITMAP
FFF0
FFF0
0060
00E0
00C0
0180
0380
0300
0700
0600
0E00
0C00
0C00
1C00
1800
1800
3800
ENDCHAR
STARTCHAR 001B
ENCODING 27
SWIDTH 560 0
DWIDTH 14 0
BBX 12 17 1 0
BITMAP
1F80
3FC0
70E0
6060
E060
6060
70E0
3FC0
3FC0
70E0
E070
C070
C070
E070
F0E0
7FC0
1F80
ENDCHAR
STARTCHAR 001C
ENCODING 28
SWIDTH 560 0
DWIDTH 14 0
BBX 12 17 1 0
BITMAP
1F00
3FC0
70E0
E060
C060
C070
C070
E070
70F0
7FF0
1F60
0060
C060
E0E0
71C0
7F80
1F00
ENDCHAR
STARTCHAR 001D
ENCODING 29
SWIDTH 280 0
DWIDTH 7 0
BBX 2 13 3 0
BITMAP
C0
C0
00
00
00
00
00
00
00
00
00
C0
C0
ENDCHAR
STARTCHAR 001E
ENCODING 30
SWIDTH 280 0
DWIDTH 7 0
BBX 2 17 3 -4
BITMAP
C0
C0
00
00
00
00
00
00
00
00
00
C0
C0
40
40
40
80
ENDCHAR
STARTCHAR 001F
ENCODING 31
SWIDTH 600 0
DWIDTH 15 0
BBX 15 13 0 0
BITMAP
0006
001E
00FC
07E0
1F00
FC00
E000
FC00
1F00
07E0
00FC
001E
0006
ENDCHAR
STARTCHAR 0020
ENCODING 32
SWIDTH 600 0
DWIDTH 15 0
BBX 13 7 1 3
BITMAP
FFF8
FFF8
0000
0000
0000
FFF8
FFF8
ENDCHAR
STARTCHAR 0021
ENCODING 33
SWIDTH 600 0
DWIDTH 15 0
BBX 15 13 0 0
BITMAP
C000
F000
7E00
0FC0
01F0
007E
000E
007E
01F0
0FC0
7E00
F000
C000
ENDCHAR
STARTCHAR 0022
ENCODING 34
SWIDTH 560 0
DWIDTH 14 0
BBX 11 18 2 0
BITMAP
1F00
3F80
61C0
E0E0
C0E0
C0E0
00E0
01C0
0380
0700
0600
0E00
0C00
0C00
0000
0000
0C00
0C00
ENDCHAR
STARTCHAR 0023
ENCODING 35
SWIDTH 1000 0
DWIDTH 25 0
BBX 20 18 3 0
BITMAP
01FC00
0E0380
1800C0
300060
60F660
418E20
C30C30
C60C30
860C20
860C60
C61840
C728C0
C3CF00
600000
200000
380080
0E0380
03FC00
ENDCHAR
STARTCHAR 0024
ENCODING 36
SWIDTH 680 0
DWIDTH 17 0
BBX 15 18 1 0
BITMAP
0380
0380
07C0
06C0
0EC0
0EE0
0C60
1C70
1870
1830
3838
3FF8
7FF8
701C
601C
E00C
C00E
C006
ENDCHAR
STARTCHAR 0025
ENCODING 37
SWIDTH 680 0
DWIDTH 17 0
BBX 14 18 2 0
BITMAP
FFC0
FFF0
C070
C038
C038
C038
C030
C070
FFE0
FFF0
C038
C018
C01C
C01C
C018
C038
FFF0
FFE0
ENDCHAR
STARTCHAR 0026
ENCODING 38
SWIDTH 720 0
DWIDTH 18 0
BBX 16 18 1 0
BITMAP
07F0
1FF8
3C1C
300E
7007
6007
E000
E000
E000
E000
E000
E003
6007
7006
700E
3C1C
1FF8
07E0
ENDCHAR
STARTCHAR 0027
ENCODING 39
SWIDTH 720 0
DWIDTH 18 0
BBX 15 18 2 0
BITMAP
FFC0
FFF0
C078
C01C
C01C
C00C
C00E
C00E
C00E
C00E
C00E
C00E
C00C
C01C
C018
C078
FFF0
FFC0
ENDCHAR
STARTCHAR 0028
ENCODING 40
SWIDTH 680 0
DWIDTH 17 0
BBX 13 18 2 0
BITMAP
FFF8
FFF8
E000
E000
E000
E000
E000
E000
FFF0
FFF0
E000
E000
E000
E000
E000
E000
FFF8
FFF8
ENDCHAR
STARTCHAR 0029
ENCODING 41
SWIDTH 600 0
DWIDTH 15 0
BBX 13 18 2 0
BITMAP
FFF8
FFF8
E000
E000
E000
E000
E000
E000
FFE0
FFE0
E000
E000
E000
E000
E000
E000
E000
E000
ENDCHAR
STARTCHAR 002A
ENCODING 42
SWIDTH 760 0
DWIDTH 19 0
BBX 17 18 1 0
BITMAP
03F000
0FFC00
1C1E00
380700
700700
600300
E00000
E00000
E00000
E07F80
E07F80
E00380
600380
700380
700780
3C1F80
1FF980
07F180
ENDCHAR
STARTCHAR 002B
ENCODING 43
SWIDTH 720 0
DWIDTH 18 0
BBX 14 18 2 0
BITMAP
C00C
C00C
C00C
C00C
C00C
C00C
C00C
FFFC
FFFC
C00C
C00C
C00C
C00C
C00C
C00C
C00C
C00C
C00C
ENDCHAR
STARTCHAR 002C
ENCODING 44
SWIDTH 280 0
DWIDTH 7 0
BBX 3 18 2 0
BITMAP
E0
E0
E0
E0
E0
E0
E0
E0
E0
E0
E0
E0
E0
E0
E0
E0
E0
E0
ENDCHAR
STARTCHAR 002D
ENCODING 45
SWIDTH 520 0
DWIDTH 13 0
BBX 11 18 0 0
BITMAP
00E0
00E0
00E0
00E0
00E0
00E0
00E0
00E0
00E0
00E0
00E0
00E0
E0E0
E0E0
E0C0
71C0
7FC0
1F00
ENDCHAR
STARTCHAR 002E
ENCODING 46
SWIDTH 680 0
DWIDTH 17 0
BBX 14 18 2 0
BITMAP
C03C
C078
C0F0
C1E0
C3C0
C780
CF00
DE00
FF00
FB00
F380
E1C0
C0E0
C0E0
C070
C038
C03C
C01C
ENDCHAR
STARTCHAR 002F
ENCODING 47
SWIDTH 560 0
DWIDTH 14 0
BBX 11 18 2 0
BITMAP
C000
C000
C000
C000
C000
C000
C000
C000
C000
C000
C000
C000
C000
C000
C000
C000
FFE0
FFE0
ENDCHAR
STARTCHAR 0030
ENCODING 48
SWIDTH 840 0
DWIDTH 21 0
BBX 17 18 2 0
BITMAP
F00780
F00780
F00780
F80F80
D80D80
D80D80
DC1D80
CC1980
CC1980
CE3980
C63180
C63180
C77180
C36180
C36180
C3E180
C1C180
C1C180
ENDCHAR
STARTCHAR 0031
ENCODING 49
SWIDTH 720 0
DWIDTH 18 0
BBX 14 18 2 0
BITMAP
E00C
F00C
F00C
D80C
D80C
CC0C
C60C
C60C
C30C
C30C
C18C
C0CC
C0CC
C06C
C06C
C03C
C01C
C01C
ENDCHAR
STARTCHAR 0032
ENCODING 50
SWIDTH 760 0
DWIDTH 19 0
BBX 17 18 1 0
BITMAP
07F000
1FFC00
3C1E00
380700
700380
600380
E00180
E00180
C00180
C00180
E00180
E00180
E00380
700300
700700
3C0E00
1FFC00
07F000
ENDCHAR
STARTCHAR 0033
ENCODING 51
SWIDTH 680 0
DWIDTH 17 0
BBX 14 18 2 0
BITMAP
FFE0
FFF0
E038
E018
E01C
E018
E018
E038
FFF0
FFE0
E000
E000
E000
E000
E000
E000
E000
E000
ENDCHAR
STARTCHAR 0034
ENCODING 52
SWIDTH 760 0
DWIDTH 19 0
BBX 17 18 1 -1
BITMAP
07F000
1FFC00
3C1E00
380700
700380
600380
E00180
E00180
C00180
C00180
E00180
E00180
E00380
703300
703F00
3C1E00
1FFF00
07F380
ENDCHAR
STARTCHAR 0035
ENCODING 53
SWIDTH 720 0
DWIDTH 18 0
BBX 15 18 2 0
BITMAP
FFF0
FFF8
E01C
E00C
E00C
E00C
E00C
E01C
FFF8
FFF8
E01C
E01C
E00C
E00C
E00C
E00C
E00C
E00E
ENDCHAR
STARTCHAR 0036
ENCODING 54
SWIDTH 680 0
DWIDTH 17 0
BBX 15 18 1 0
BITMAP
0FC0
3FF0
3838
701C
601C
600C
7000
7E00
1FE0
03F8
003C
000C
E00E
E00C
600C
783C
3FF8
0FE0
ENDCHAR
STARTCHAR 0037
ENCODING 55
SWIDTH 600 0
DWIDTH 15 0
BBX 15 18 0 0
BITMAP
FFFE
FFFE
0380
0380
0380
0380
0380
0380
0380
0380
0380
0380
0380
0380
0380
0380
0380
0380
ENDCHAR
STARTCHAR 0038
ENCODING 56
SWIDTH 720 0
DWIDTH 18 0
BBX 14 18 2 0
BITMAP
E00C
E00C
E00C
E00C
E00C
E00C
E00C
E00C
E00C
E00C
E00C
E00C
E00C
E01C
7018
7878
3FF0
0FC0
ENDCHAR
STARTCHAR 0039
ENCODING 57
SWIDTH 680 0
DWIDTH 17 0
BBX 15 18 1 0
BITMAP
E00E
E00E
600C
701C
701C
3018
3838
3838
1830
1C70
1C60
0CE0
0EE0
06C0
07C0
07C0
0380
0380
ENDCHAR
STARTCHAR 003A
ENCODING 58
SWIDTH 960 0
DWIDTH 24 0
BBX 22 18 1 0
BITMAP
C0701C
C0781C
E0781C
E0F818
60F838
60DC38
70CC38
71CC30
318E70
318670
3B8670
3B8760
1B0760
1B03E0
1F03C0
1E03C0
0E01C0
0E01C0
ENDCHAR
STARTCHAR 003B
ENCODING 59
SWIDTH 680 0
DWIDTH 17 0
BBX 15 18 1 0
BITMAP
E00E
701C
3838
3838
1C70
0EE0
0EE0
07C0
0380
0780
07C0
0EE0
1C70
1870
3838
701C
601C
E00E
ENDCHAR
STARTCHAR 003C
ENCODING 60
SWIDTH 680 0
DWIDTH 17 0
BBX 15 18 1 0
BITMAP
E00E
E00E
701C
3018
3838
1C70
1C70
0EE0
06C0
07C0
0380
0380
0380
0380
0380
0380
0380
0380
ENDCHAR
STARTCHAR 003D
ENCODING 61
SWIDTH 600 0
DWIDTH 15 0
BBX 14 18 1 0
BITMAP
FFFC
FFFC
0038
0078
0070
00E0
01C0
0380
0780
0700
0E00
1C00
3800
3800
7000
E000
FFFC
FFFC
ENDCHAR
STARTCHAR 003E
ENCODING 62
SWIDTH 280 0
DWIDTH 7 0
BBX 4 23 2 -5
BITMAP
F0
F0
C0
C0
C0
C0
C0
C0
C0
C0
C0
C0
C0
C0
C0
C0
C0
C0
C0
C0
C0
F0
F0
ENDCHAR
STARTCHAR 003F
ENCODING 63
SWIDTH 280 0
DWIDTH 7 0
BBX 9 18 -1 0
BITMAP
C000
6000
6000
2000
3000
3000
1800
1800
1800
0C00
0C00
0600
0600
0600
0300
0300
0100
0180
ENDCHAR
STARTCHAR 0040
ENCODING 64
SWIDTH 280 0
DWIDTH 7 0
BBX 4 23 1 -5
BITMAP
F0
F0
30
30
30
30
30
30
30
30
30
30
30
30
30
30
30
30
30
30
30
F0
F0
ENDCHAR
STARTCHAR 0041
ENCODING 65
SWIDTH 480 0
DWIDTH 12 0
BBX 10 11 2 7
BITMAP
0C00
1C00
1E00
3600
3600
3300
6300
6180
C180
C180
C0C0
ENDCHAR
STARTCHAR 0042
ENCODING 66
SWIDTH 560 0
DWIDTH 14 0
BBX 14 1 0 -3
BITMAP
FFFC
ENDCHAR
STARTCHAR 0043
ENCODING 67
SWIDTH 320 0
DWIDTH 8 0
BBX 4 3 1 15
BITMAP
E0
60
30
ENDCHAR
STARTCHAR 0044
ENCODING 68
SWIDTH 560 0
DWIDTH 14 0
BBX 12 13 1 0
BITMAP
1F80
7FC0
70E0
6060
0060
0FE0
7F60
F060
C060
C0E0
E1E0
7F70
3E70
ENDCHAR
STARTCHAR 0045
ENCODING 69
SWIDTH 560 0
DWIDTH 14 0
BBX 12 18 1 0
BITMAP
E000
E000
E000
E000
E000
EF80
FFC0
F0E0
E070
E070
C030
C030
E030
E070
E060
F0E0
DFC0
CF80
ENDCHAR
STARTCHAR 0046
ENCODING 70
SWIDTH 520 0
DWIDTH 13 0
BBX 11 13 1 0
BITMAP
1F80
3FC0
70E0
E060
C000
C000
C000
C000
C060
E0E0
71C0
7F80
1F00
ENDCHAR
STARTCHAR 0047
ENCODING 71
SWIDTH 560 0
DWIDTH 14 0
BBX 11 18 1 0
BITMAP
0060
0060
0060
0060
0060
1F60
3FE0
71E0
E060
C060
C060
C060
C060
C060
E0E0
71E0
7FE0
1E60
ENDCHAR
STARTCHAR 0048
ENCODING 72
SWIDTH 560 0
DWIDTH 14 0
BBX 12 13 1 0
BITMAP
1F80
3FC0
70E0
E060
C070
FFF0
FFF0
C000
C070
E060
70E0
3FC0
1F00
ENDCHAR
STARTCHAR 0049
ENCODING 73
SWIDTH 280 0
DWIDTH 7 0
BBX 7 18 0 0
BITMAP
1E
3E
38
30
30
FE
FE
30
30
30
30
30
30
30
30
30
30
30
ENDCHAR
STARTCHAR 004A
ENCODING 74
SWIDTH 560 0
DWIDTH 14 0
BBX 11 18 1 -5
BITMAP
1E60
3FE0
71E0
E0E0
C060
C060
C060
C060
C060
E0E0
F1E0
7FE0
1E60
0060
E060
E0C0
7FC0
1F00
ENDCHAR
STARTCHAR 004B
ENCODING 75
SWIDTH 560 0
DWIDTH 14 0
BBX 10 18 2 0
BITMAP
C000
C000
C000
C000
C000
CF00
FF80
E1C0
C0C0
C0C0
C0C0
C0C0
C0C0
C0C0
C0C0
C0C0
C0C0
C0C0
ENDCHAR
STARTCHAR 004C
ENCODING 76
SWIDTH 240 0
DWIDTH 6 0
BBX 2 18 2 0
BITMAP
C0
C0
00
00
00
C0
C0
C0
C0
C0
C0
C0
C0
C0
C0
C0
C0
C0
ENDCHAR
STARTCHAR 004D
ENCODING 77
SWIDTH 240 0
DWIDTH 6 0
BBX 4 23 0 -5
BITMAP
30
30
30
00
00
30
30
30
30
30
30
30
30
30
30
30
30
30
30
30
70
F0
E0
ENDCHAR
STARTCHAR 004E
ENCODING 78
SWIDTH 520 0
DWIDTH 13 0
BBX 10 18 2 0
BITMAP
C000
C000
C000
C000
C000
C1C0
C380
C700
CE00
D800
FC00
EC00
CE00
C600
C700
C380
C180
C1C0
ENDCHAR
STARTCHAR 004F
ENCODING 79
SWIDTH 240 0
DWIDTH 6 0
BBX 2 18 2 0
BITMAP
C0
C0
C0
C0
C0
C0
C0
C0
C0
C0
C0
C0
C0
C0
C0
C0
C0
C0
ENDCHAR
STARTCHAR 0050
ENCODING 80
SWIDTH 840 0
DWIDTH 21 0
BBX 17 13 2 0
BITMAP
CF1E00
FFBF00
E1E380
C1C180
C1C180
C1C180
C1C180
C1C180
C1C180
C1C180
C1C180
C1C180
C1C180
ENDCHAR
STARTCHAR 0051
ENCODING 81
SWIDTH 560 0
DWIDTH 14 0
BBX 10 13 2 0
BITMAP
CF00
FFC0
E1C0
C0C0
C0C0
C0C0
C0C0
C0C0
C0C0
C0C0
C0C0
C0C0
C0C0
ENDCHAR
STARTCHAR 0052
ENCODING 82
SWIDTH 560 0
DWIDTH 14 0
BBX 12 13 1 0
BITMAP
1F80
3FC0
70E0
E060
C070
C030
C030
C070
C070
E060
70E0
7FC0
1F80
ENDCHAR
STARTCHAR 0053
ENCODING 83
SWIDTH 560 0
DWIDTH 14 0
BBX 12 18 1 -5
BITMAP
EF80
FFC0
F0E0
E070
E070
E030
E030
E030
E070
E060
F0E0
FFC0
EF80
E000
E000
E000
E000
E000
ENDCHAR
STARTCHAR 0054
ENCODING 84
SWIDTH 560 0
DWIDTH 14 0
BBX 11 18 1 -5
BITMAP
1F60
3FE0
71E0
E0E0
C060
C060
C060
C060
C060
E0E0
71E0
7FE0
1E60
0060
0060
0060
0060
0060
ENDCHAR
STARTCHAR 0055
ENCODING 85
SWIDTH 320 0
DWIDTH 8 0
BBX 6 13 2 0
BITMAP
DC
FC
E0
C0
C0
C0
C0
C0
C0
C0
C0
C0
C0
ENDCHAR
STARTCHAR 0056
ENCODING 86
SWIDTH 520 0
DWIDTH 13 0
BBX 11 13 1 0
BITMAP
3F00
7F80
E1C0
C0C0
E000
7C00
3F80
03C0
C0E0
C0E0
E0C0
7FC0
3F00
ENDCHAR
STARTCHAR 0057
ENCODING 87
SWIDTH 280 0
DWIDTH 7 0
BBX 6 16 0 0
BITMAP
30
30
30
FC
FC
30
30
30
30
30
30
30
30
30
3C
1C
ENDCHAR
STARTCHAR 0058
ENCODING 88
SWIDTH 560 0
DWIDTH 14 0
BBX 10 13 2 0
BITMAP
C0C0
C0C0
C0C0
C0C0
C0C0
C0C0
C0C0
C0C0
C0C0
C1C0
E3C0
FEC0
7CC0
ENDCHAR
STARTCHAR 0059
ENCODING 89
SWIDTH 520 0
DWIDTH 13 0
BBX 12 13 0 0
BITMAP
E030
6070
7060
7060
30E0
38C0
18C0
1980
1980
0D80
0F00
0F00
0700
ENDCHAR
STARTCHAR 005A
ENCODING 90
SWIDTH 720 0
DWIDTH 18 0
BBX 17 13 0 0
BITMAP
E0C180
61E180
61E180
61E380
316300
333300
333300
333600
1A3600
1E1E00
1E1E00
0E1C00
0C1C00
ENDCHAR
STARTCHAR 005B
ENCODING 91
SWIDTH 520 0
DWIDTH 13 0
BBX 12 13 0 0
BITMAP
7070
70E0
38C0
1DC0
1F80
0F00
0700
0F00
1F80
19C0
38C0
70E0
E070
ENDCHAR
STARTCHAR 005C
ENCODING 92
SWIDTH 520 0
DWIDTH 13 0
BBX 12 18 0 -5
BITMAP
E030
6070
7060
7060
30E0
38C0
38C0
19C0
1D80
1D80
0F00
0F00
0700
0600
0600
0C00
7C00
7800
ENDCHAR
STARTCHAR 005D
ENCODING 93
SWIDTH 520 0
DWIDTH 13 0
BBX 11 13 1 0
BITMAP
FFC0
FFC0
01C0
0380
0700
0E00
0C00
1C00
3800
7000
E000
FFE0
FFE0
ENDCHAR
STARTCHAR 005E
ENCODING 94
SWIDTH 320 0
DWIDTH 8 0
BBX 9 23 -1 -5
BITMAP
0380
0780
0E00
0C00
0C00
0C00
0C00
0C00
1C00
3800
F800
C000
F800
3800
1C00
0C00
0C00
0C00
0C00
0C00
0E00
0780
0380
ENDCHAR
STARTCHAR 005F
ENCODING 95
SWIDTH 280 0
DWIDTH 7 0
BBX 2 18 2 0
BITMAP
C0
C0
C0
C0
C0
C0
C0
C0
C0
C0
C0
C0
C0
C0
C0
C0
C0
C0
ENDCHAR
STARTCHAR 0060
ENCODING 96
SWIDTH 320 0
DWIDTH 8 0
BBX 8 23 1 -5
BITMAP
C0
E0
70
30
30
18
18
18
18
1C
0F
03
0F
1C
18
18
18
18
10
30
70
E0
80
ENDCHAR
STARTCHAR 0061
ENCODING 97
SWIDTH 600 0
DWIDTH 15 0
BBX 15 5 0 4
BITMAP
3C06
7F04
638C
41F8
C078
ENDCHAR
STARTCHAR 0062
ENCODING 98
SWIDTH 680 0
DWIDTH 17 0
BBX 15 23 1 0
BITMAP
0EE0
0EE0
0EE0
0000
0000
0380
0380
07C0
06C0
0EC0
0EE0
0C60
1C70
1870
1830
3838
3FF8
7FF8
701C
601C
E00C
C00E
C006
ENDCHAR
STARTCHAR 0063
ENCODING 99
SWIDTH 680 0
DWIDTH 17 0
BBX 15 24 1 0
BITMAP
0380
0640
0440
0440
0380
0000
0380
0380
07C0
06C0
0EC0
0EE0
0C60
1C70
1870
1830
3838
3FF8
7FF8
701C
601C
E00C
C00E
C006
ENDCHAR
STARTCHAR 0064
ENCODING 100
SWIDTH 720 0
DWIDTH 18 0
BBX 16 23 1 -5
BITMAP
07F0
1FF8
3C1C
300E
7007
6007
E000
E000
E000
E000
E000
E003
6007
7006
700E
3C1C
1FF8
07E0
0100
03C0
00C0
00C0
07C0
ENDCHAR
STARTCHAR 0065
ENCODING 101
SWIDTH 680 0
DWIDTH 17 0
BBX 13 23 2 0
BITMAP
0180
0300
0600
0000
0000
FFF8
FFF8
E000
E000
E000
E000
E000
E000
FFF0
FFF0
E000
E000
E000
E000
E000
E000
FFF8
FFF8
ENDCHAR
STARTCHAR 0066
ENCODING 102
SWIDTH 720 0
DWIDTH 18 0
BBX 14 23 2 0
BITMAP
0420
0FE0
1BE0
0000
0000
E00C
F00C
F00C
D80C
D80C
CC0C
C60C
C60C
C30C
C30C
C18C
C0CC
C0CC
C06C
C06C
C03C
C01C
C01C
ENDCHAR
STARTCHAR 0067
ENCODING 103
SWIDTH 760 0
DWIDTH 19 0
BBX 17 23 1 0
BITMAP
033000
033000
033000
000000
000000
07F000
1FFC00
3C1E00
380700
700380
600380
E00180
E00180
C00180
C00180
E00180
E00180
E00380
700300
700700
3C0E00
1FFC00
07F000
ENDCHAR
STARTCHAR 0068
ENCODING 104
SWIDTH 720 0
DWIDTH 18 0
BBX 14 23 2 0
BITMAP
0EE0
0EE0
0EE0
0000
0000
E00C
E00C
E00C
E00C
E00C
E00C
E00C
E00C
E00C
E00C
E00C
E00C
E00C
E01C
7018
7878
3FF0
0FC0
ENDCHAR
STARTCHAR 0069
ENCODING 105
SWIDTH 560 0
DWIDTH 14 0
BBX 12 18 1 0
BITMAP
0700
0600
0C00
0000
0000
1F80
7FC0
70E0
6060
0060
0FE0
7F60
F060
C060
C0E0
E1E0
7F70
3E70
ENDCHAR
STARTCHAR 006A
ENCODING 106
SWIDTH 560 0
DWIDTH 14 0
BBX 12 18 1 0
BITMAP
1C00
0C00
0600
0000
0000
1F80
7FC0
70E0
6060
0060
0FE0
7F60
F060
C060
C0E0
E1E0
7F70
3E70
ENDCHAR
STARTCHAR 006B
ENCODING 107
SWIDTH 560 0
DWIDTH 14 0
BBX 12 18 1 0
BITMAP
0700
0D80
1980
0000
0000
1F80
7FC0
70E0
6060
0060
0FE0
7F60
F060
C060
C0E0
E1E0
7F70
3E70
ENDCHAR
STARTCHAR 006C
ENCODING 108
SWIDTH 560 0
DWIDTH 14 0
BBX 12 18 1 0
BITMAP
1980
1980
1980
0000
0000
1F80
7FC0
70E0
6060
0060
0FE0
7F60
F060
C060
C0E0
E1E0
7F70
3E70
ENDCHAR
STARTCHAR 006D
ENCODING 109
SWIDTH 560 0
DWIDTH 14 0
BBX 12 18 1 0
BITMAP
1C40
3FC0
2380
0000
0000
1F80
7FC0
70E0
6060
0060
0FE0
7F60
F060
C060
C0E0
E1E0
7F70
3E70
ENDCHAR
STARTCHAR 006E
ENCODING 110
SWIDTH 560 0
DWIDTH 14 0
BBX 12 20 1 0
BITMAP
0700
0900
0880
0900
0700
0000
0000
1F80
7FC0
70E0
6060
0060
0FE0
7F60
F060
C060
C0E0
E1E0
7F70
3E70
ENDCHAR
STARTCHAR 006F
ENCODING 111
SWIDTH 520 0
DWIDTH 13 0
BBX 11 18 1 -5
BITMAP
1F80
3FC0
70E0
E060
C000
C000
C000
C000
C060
E0E0
71C0
7F80
3F00
0800
1E00
0300
0300
1E00
ENDCHAR
STARTCHAR 0070
ENCODING 112
SWIDTH 560 0
DWIDTH 14 0
BBX 12 18 1 0
BITMAP
0300
0600
0C00
0000
0000
1F80
3FC0
70E0
E060
C070
FFF0
FFF0
C000
C070
E060
70E0
3FC0
1F00
ENDCHAR
STARTCHAR 0071
ENCODING 113
SWIDTH 560 0
DWIDTH 14 0
BBX 12 18 1 0
BITMAP
1C00
0C00
0600
0000
0000
1F80
3FC0
70E0
E060
C070
FFF0
FFF0
C000
C070
E060
70E0
3FC0
1F00
ENDCHAR
STARTCHAR 0072
ENCODING 114
SWIDTH 560 0
DWIDTH 14 0
BBX 12 18 1 0
BITMAP
0700
0D80
1980
0000
0000
1F80
3FC0
70E0
E060
C070
FFF0
FFF0
C000
C070
E060
70E0
3FC0
1F00
ENDCHAR
STARTCHAR 0073
ENCODING 115
SWIDTH 560 0
DWIDTH 14 0
BBX 12 18 1 0
BITMAP
1980
1980
1980
0000
0000
1F80
3FC0
70E0
E060
C070
FFF0
FFF0
C000
C070
E060
70E0
3FC0
1F00
ENDCHAR
STARTCHAR 0074
ENCODING 116
SWIDTH 280 0
DWIDTH 7 0
BBX 4 18 2 0
BITMAP
70
E0
C0
00
00
E0
E0
E0
E0
E0
E0
E0
E0
E0
E0
E0
E0
E0
ENDCHAR
STARTCHAR 0075
ENCODING 117
SWIDTH 280 0
DWIDTH 7 0
BBX 4 18 1 0
BITMAP
C0
60
30
00
00
70
70
70
70
70
70
70
70
70
70
70
70
70
ENDCHAR
STARTCHAR 0076
ENCODING 118
SWIDTH 280 0
DWIDTH 7 0
BBX 7 18 0 0
BITMAP
38
6C
C6
00
00
38
38
38
38
38
38
38
38
38
38
38
38
38
ENDCHAR
STARTCHAR 0077
ENCODING 119
SWIDTH 280 0
DWIDTH 7 0
BBX 7 18 0 0
BITMAP
EE
EE
EE
00
00
38
38
38
38
38
38
38
38
38
38
38
38
38
ENDCHAR
STARTCHAR 0078
ENCODING 120
SWIDTH 560 0
DWIDTH 14 0
BBX 10 18 2 0
BITMAP
3CC0
3F80
6780
0000
0000
CF00
FFC0
E1C0
C0C0
C0C0
C0C0
C0C0
C0C0
C0C0
C0C0
C0C0
C0C0
C0C0
ENDCHAR
STARTCHAR 0079
ENCODING 121
SWIDTH 560 0
DWIDTH 14 0
BBX 12 18 1 0
BITMAP
0700
0600
0C00
0000
0000
1F80
3FC0
70E0
E060
C070
C030
C030
C070
C070
E060
70E0
7FC0
1F80
ENDCHAR
STARTCHAR 007A
ENCODING 122
SWIDTH 560 0
DWIDTH 14 0
BBX 12 18 1 0
BITMAP
1800
0C00
0600
0000
0000
1F80
3FC0
70E0
E060
C070
C030
C030
C070
C070
E060
70E0
7FC0
1F80
ENDCHAR
STARTCHAR 007B
ENCODING 123
SWIDTH 560 0
DWIDTH 14 0
BBX 12 18 1 0
BITMAP
0F00
0F00
1980
0000
0000
1F80
3FC0
70E0
E060
C070
C030
C030
C070
C070
E060
70E0
7FC0
1F80
ENDCHAR
STARTCHAR 007C
ENCODING 124
SWIDTH 560 0
DWIDTH 14 0
BBX 12 18 1 0
BITMAP
1980
1980
1980
0000
0000
1F80
3FC0
70E0
E060
C070
C030
C030
C070
C070
E060
70E0
7FC0
1F80
ENDCHAR
STARTCHAR 007D
ENCODING 125
SWIDTH 560 0
DWIDTH 14 0
BBX 12 18 1 0
BITMAP
1C40
3FC0
2380
0000
0000
1F80
3FC0
70E0
E060
C070
C030
C030
C070
C070
E060
70E0
7FC0
1F80
ENDCHAR
STARTCHAR 007E
ENCODING 126
SWIDTH 560 0
DWIDTH 14 0
BBX 10 18 2 0
BITMAP
0E00
0C00
1800
0000
0000
C0C0
C0C0
C0C0
C0C0
C0C0
C0C0
C0C0
C0C0
C0C0
C1C0
E3C0
FEC0
7CC0
ENDCHAR
STARTCHAR 007F
ENCODING 127
SWIDTH 560 0
DWIDTH 14 0
BBX 10 18 2 0
BITMAP
3800
1800
0C00
0000
0000
C0C0
C0C0
C0C0
C0C0
C0C0
C0C0
C0C0
C0C0
C0C0
C1C0
E3C0
FEC0
7CC0
ENDCHAR
STARTCHAR 0080
ENCODING 128
SWIDTH 560 0
DWIDTH 14 0
BBX 10 18 2 0
BITMAP
1E00
1E00
3300
0000
0000
C0C0
C0C0
C0C0
C0C0
C0C0
C0C0
C0C0
C0C0
C0C0
C1C0
E3C0
FEC0
7CC0
ENDCHAR
STARTCHAR 0081
ENCODING 129
SWIDTH 560 0
DWIDTH 14 0
BBX 10 18 2 0
BITMAP
3300
3300
3300
0000
0000
C0C0
C0C0
C0C0
C0C0
C0C0
C0C0
C0C0
C0C0
C0C0
C1C0
E3C0
FEC0
7CC0
ENDCHAR
STARTCHAR 0082
ENCODING 130
SWIDTH 560 0
DWIDTH 14 0
BBX 12 22 1 -4
BITMAP
0600
0600
0600
0600
0600
FFF0
FFF0
0600
0600
0600
0600
0600
0600
0600
0600
0600
0600
0600
0600
0600
0600
0600
ENDCHAR
STARTCHAR 0083
ENCODING 131
SWIDTH 400 0
DWIDTH 10 0
BBX 8 7 1 10
BITMAP
3C
66
C3
C3
C3
66
3C
ENDCHAR
STARTCHAR 0084
ENCODING 132
SWIDTH 560 0
DWIDTH 14 0
BBX 12 17 1 -2
BITMAP
0080
0080
0F80
3FC0
7160
6170
E200
E200
C200
E400
E430
6460
78E0
3FC0
0F80
1000
1000
ENDCHAR
STARTCHAR 0085
ENCODING 133
SWIDTH 560 0
DWIDTH 14 0
BBX 12 18 1 0
BITMAP
0F80
3FC0
70E0
6070
E070
E030
6000
6000
7000
FF00
1800
1800
1800
3000
3000
7E00
FFF0
41E0
ENDCHAR
STARTCHAR 0086
ENCODING 134
SWIDTH 560 0
DWIDTH 14 0
BBX 12 23 1 -5
BITMAP
0F00
3F80
31C0
70C0
70C0
3000
3800
3E00
6780
C3C0
C0E0
C070
7030
3870
1E60
07C0
03C0
01C0
60E0
60C0
70C0
3F80
1F00
ENDCHAR
STARTCHAR 0087
ENCODING 135
SWIDTH 360 0
DWIDTH 9 0
BBX 5 5 2 6
BITMAP
70
F8
F8
F8
70
ENDCHAR
STARTCHAR 0088
ENCODING 136
SWIDTH 520 0
DWIDTH 13 0
BBX 13 22 0 -4
BITMAP
1FF8
3E20
7E20
FE20
FE20
FE20
FE20
FE20
FE20
7E20
7E20
1E20
0620
0620
0620
0620
0620
0620
0620
0620
0620
0620
ENDCHAR
STARTCHAR 0089
ENCODING 137
SWIDTH 600 0
DWIDTH 15 0
BBX 11 18 2 0
BITMAP
1F00
3FC0
71C0
60E0
E0E0
E0C0
E1C0
E780
E7C0
E0E0
E060
E060
E060
E060
E060
E0E0
E7C0
E780
ENDCHAR
STARTCHAR 008A
ENCODING 138
SWIDTH 720 0
DWIDTH 18 0
BBX 18 18 0 0
BITMAP
03F000
0C0C00
180200
300100
63F080
4218C0
421840
C21840
C21840
C3E040
C21840
421840
420880
620880
300100
180200
0C0C00
03F000
ENDCHAR
STARTCHAR 008B
ENCODING 139
SWIDTH 720 0
DWIDTH 18 0
BBX 18 18 0 0
BITMAP
03F000
0C0C00
180200
300100
61F080
4318C0
4608C0
C40040
C40040
C40040
C60040
4608C0
431880
61F080
300100
180200
0C0C00
03F000
ENDCHAR
STARTCHAR 008C
ENCODING 140
SWIDTH 1000 0
DWIDTH 25 0
BBX 19 9 3 9
BITMAP
FE70E0
1871E0
1871E0
187960
187B60
186B60
186E60
186660
186660
ENDCHAR
STARTCHAR 008D
ENCODING 141
SWIDTH 320 0
DWIDTH 8 0
BBX 4 3 2 15
BITMAP
30
60
C0
ENDCHAR
STARTCHAR 008E
ENCODING 142
SWIDTH 320 0
DWIDTH 8 0
BBX 6 3 1 15
BITMAP
CC
CC
CC
ENDCHAR
STARTCHAR 008F
ENCODING 143
SWIDTH 560 0
DWIDTH 14 0
BBX 13 13 1 0
BITMAP
00C0
00C0
0180
FFF8
FFF8
0300
0700
0600
FFF8
FFF8
0C00
1800
1800
ENDCHAR
STARTCHAR 0090
ENCODING 144
SWIDTH 1000 0
DWIDTH 25 0
BBX 24 18 0 0
BITMAP
01FFFF
01FFFF
039C00
031C00
031C00
071C00
061C00
0E1C00
0E1FFE
0C1FFE
1C1C00
1FFC00
3FFC00
381C00
301C00
701C00
601FFF
E01FFF
ENDCHAR
STARTCHAR 0091
ENCODING 145
SWIDTH 760 0
DWIDTH 19 0
BBX 17 18 1 0
BITMAP
07F080
1FFD80
3C1F00
380700
700F80
601B80
E03180
E06180
C0C180
C18180
E10180
E20180
E40380
780300
780700
3C1E00
5FFC00
87F000
ENDCHAR
STARTCHAR 0092
ENCODING 146
SWIDTH 720 0
DWIDTH 18 0
BBX 16 10 1 3
BITMAP
3C3C
7E7E
C6E7
C3C3
8183
8183
C3C3
C6E7
7E7E
3C3C
ENDCHAR
STARTCHAR 0093
ENCODING 147
SWIDTH 560 0
DWIDTH 14 0
BBX 13 13 1 0
BITMAP
0700
0700
0700
0700
FFF8
FFF8
0700
0700
0700
0700
0000
FFF8
FFF8
ENDCHAR
STARTCHAR 0094
ENCODING 148
SWIDTH 560 0
DWIDTH 14 0
BBX 13 12 1 1
BITMAP
0078
03F8
3FC0
FC00
E000
FC00
3FC0
03F8
0078
0000
FFF8
FFF8
ENDCHAR
STARTCHAR 0095
ENCODING 149
SWIDTH 560 0
DWIDTH 14 0
BBX 13 12 1 1
BITMAP
F000
FE00
1FE0
01F8
0038
01F8
1FC0
FE00
F000
0000
FFF8
FFF8
ENDCHAR
STARTCHAR 0096
ENCODING 150
SWIDTH 560 0
DWIDTH 14 0
BBX 14 17 0 0
BITMAP
E01C
6038
7038
3070
3860
1CE0
7DF8
7FF8
0780
0700
7FF8
7FF8
0300
0300
0300
0300
0300
ENDCHAR
STARTCHAR 0097
ENCODING 151
SWIDTH 560 0
DWIDTH 14 0
BBX 14 18 -1 -5
BITMAP
0C0C
0C0C
1C0C
1C1C
1818
1818
1818
3818
3038
3070
30F0
7FB0
6F30
6000
6000
6000
E000
C000
ENDCHAR
STARTCHAR 0098
ENCODING 152
SWIDTH 480 0
DWIDTH 12 0
BBX 12 18 1 0
BITMAP
0F00
0FC0
00C0
00E0
0060
0060
0060
1F70
3FF0
71E0
60E0
E0E0
E0E0
E0E0
E0C0
7180
3F80
1E00
ENDCHAR
STARTCHAR 0099
ENCODING 153
SWIDTH 720 0
DWIDTH 18 0
BBX 14 22 0 -4
BITMAP
7FFC
7FFC
7000
3800
1C00
0E00
0700
0380
0180
01C0
00E0
01E0
01C0
0380
0700
0E00
1C00
1C00
3800
7000
FFFC
FFFC
ENDCHAR
STARTCHAR 009A
ENCODING 154
SWIDTH 840 0
DWIDTH 21 0
BBX 18 22 0 -4
BITMAP
FFFFC0
FFFFC0
380700
380700
380700
380700
380700
380700
380700
380700
380700
380700
380700
380700
380700
380700
380700
380700
380700
380700
380700
380700
ENDCHAR
STARTCHAR 009B
ENCODING 155
SWIDTH 560 0
DWIDTH 14 0
BBX 14 13 1 0
BITMAP
FFFC
FFFC
7030
7030
7030
7030
7030
7030
7030
7030
7030
703C
703C
ENDCHAR
STARTCHAR 009C
ENCODING 156
SWIDTH 280 0
DWIDTH 7 0
BBX 11 24 -2 -5
BITMAP
01E0
03C0
0700
0600
0600
0600
0600
0600
0600
0E00
0E00
0E00
0E00
0E00
0E00
0C00
0C00
0C00
0C00
0C00
0C00
1C00
F800
F000
ENDCHAR
STARTCHAR 009D
ENCODING 157
SWIDTH 360 0
DWIDTH 9 0
BBX 8 8 1 10
BITMAP
7C
C6
06
7E
C6
C6
CE
7B
ENDCHAR
STARTCHAR 009E
ENCODING 158
SWIDTH 360 0
DWIDTH 9 0
BBX 8 8 1 10
BITMAP
7C
C6
C2
83
83
C2
C6
7C
ENDCHAR
STARTCHAR 009F
ENCODING 159
SWIDTH 760 0
DWIDTH 19 0
BBX 17 18 1 0
BITMAP
07F000
0FFC00
3C1E00
380700
700380
600380
600180
E00180
E00180
E00180
600180
600380
700380
300700
180E00
0C1C00
FE3F80
FE3F80
ENDCHAR
STARTCHAR 00A0
ENCODING 160
SWIDTH 880 0
DWIDTH 22 0
BBX 20 13 1 0
BITMAP
1F0F80
7FDFE0
60F0E0
E06070
00E030
1FFFF0
7F7FF0
E06000
C0E030
C0E070
E3B0E0
7F3FC0
3E0F80
ENDCHAR
STARTCHAR 00A1
ENCODING 161
SWIDTH 600 0
DWIDTH 15 0
BBX 13 13 1 0
BITMAP
0F88
3FF0
3870
7070
60B0
E138
E238
E438
6830
7070
70E0
7FE0
8F80
ENDCHAR
STARTCHAR 00A2
ENCODING 162
SWIDTH 600 0
DWIDTH 15 0
BBX 11 18 2 -5
BITMAP
0600
0600
0000
0000
0600
0600
0E00
0C00
1C00
3800
7000
6000
E060
E060
E0E0
70C0
3FC0
1F00
ENDCHAR
STARTCHAR 00A3
ENCODING 163
SWIDTH 320 0
DWIDTH 8 0
BBX 2 18 3 -5
BITMAP
C0
C0
00
00
C0
C0
C0
C0
C0
C0
C0
C0
C0
C0
C0
C0
C0
C0
ENDCHAR
STARTCHAR 00A4
ENCODING 164
SWIDTH 600 0
DWIDTH 15 0
BBX 13 7 1 3
BITMAP
FFF8
FFF8
0018
0018
0018
0018
0018
ENDCHAR
STARTCHAR 00A5
ENCODING 165
SWIDTH 560 0
DWIDTH 14 0
BBX 16 23 0 0
BITMAP
0003
0003
0002
0006
0006
000C
000C
000C
0018
0018
1018
7830
D830
9830
0C60
0C60
0C40
06C0
06C0
0680
0380
0380
0300
ENDCHAR
STARTCHAR 00A6
ENCODING 166
SWIDTH 560 0
DWIDTH 14 0
BBX 12 23 1 -5
BITMAP
0070
01F0
0180
0380
0300
0300
0300
1FE0
1FE0
0700
0600
0600
0600
0E00
0E00
0C00
0C00
0C00
1C00
1800
3800
F000
E000
ENDCHAR
STARTCHAR 00A7
ENCODING 167
SWIDTH 560 0
DWIDTH 14 0
BBX 13 9 1 2
BITMAP
7C08
FF18
C7F8
81E0
0000
7C08
FF18
C7F8
81E0
ENDCHAR
STARTCHAR 00A8
ENCODING 168
SWIDTH 600 0
DWIDTH 15 0
BBX 15 18 2 0
BITMAP
0700
0780
0780
0FC0
0CC0
0CC0
1CE0
1860
1860
3870
3030
3030
7038
6018
6018
E01C
FFFC
FFFE
ENDCHAR
STARTCHAR 00A9
ENCODING 169
SWIDTH 560 0
DWIDTH 14 0
BBX 9 7 2 3
BITMAP
1080
3180
E700
C600
E700
3180
1080
ENDCHAR
STARTCHAR 00AA
ENCODING 170
SWIDTH 560 0
DWIDTH 14 0
BBX 9 8 2 2
BITMAP
0400
C600
E700
3180
1080
3180
E700
C600
ENDCHAR
STARTCHAR 00AB
ENCODING 171
SWIDTH 1000 0
DWIDTH 25 0
BBX 19 2 3 0
BITMAP
C0E060
C0E060
ENDCHAR
STARTCHAR 00AC
ENCODING 172
SWIDTH 280 0
DWIDTH 7 0
BBX 0 0 0 0
BITMAP
ENDCHAR
STARTCHAR 00AD
ENCODING 173
SWIDTH 680 0
DWIDTH 17 0
BBX 15 23 1 0
BITMAP
0E00
0600
0300
0000
0000
0380
0380
07C0
06C0
0EC0
0EE0
0C60
1C70
1870
1830
3838
3FF8
7FF8
701C
601C
E00C
C00E
C006
ENDCHAR
STARTCHAR 00AE
ENCODING 174
SWIDTH 680 0
DWIDTH 17 0
BBX 15 23 1 0
BITMAP
0410
0FF0
0BE0
0000
0000
0380
0380
07C0
06C0
0EC0
0EE0
0C60
1C70
1870
1830
3838
3FF8
7FF8
701C
601C
E00C
C00E
C006
ENDCHAR
STARTCHAR 00AF
ENCODING 175
SWIDTH 760 0
DWIDTH 19 0
BBX 17 23 1 0
BITMAP
038800
07F800
047000
000000
000000
07F000
1FFC00
3C1E00
380700
700380
600380
E00180
E00180
C00180
C00180
E00180
E00180
E00380
700300
700700
3C0E00
1FFC00
07F000
ENDCHAR
STARTCHAR 00B0
ENCODING 176
SWIDTH 1000 0
DWIDTH 25 0
BBX 23 18 1 0
BITMAP
07CFFE
1FFFFE
383C00
701C00
600C00
E00C00
E00C00
C00C00
C00FFE
C00FFE
C00C00
E00C00
E00C00
600C00
701C00
383C00
1FFFFE
07CFFE
ENDCHAR
STARTCHAR 00B1
ENCODING 177
SWIDTH 960 0
DWIDTH 24 0
BBX 22 13 1 0
BITMAP
1F87C0
3FCFF0
70FC38
E07018
C03018
C03FF8
C03FFC
C03000
C03018
E07838
70DC70
3FCFF0
1F07C0
ENDCHAR
STARTCHAR 00B2
ENCODING 178
SWIDTH 560 0
DWIDTH 14 0
BBX 14 2 0 6
BITMAP
FFFC
FFFC
ENDCHAR
STARTCHAR 00B3
ENCODING 179
SWIDTH 1000 0
DWIDTH 25 0
BBX 19 2 3 6
BITMAP
FFFFE0
FFFFE0
ENDCHAR
STARTCHAR 00B4
ENCODING 180
SWIDTH 320 0
DWIDTH 8 0
BBX 7 6 1 12
BITMAP
66
C4
88
88
EE
EE
ENDCHAR
STARTCHAR 00B5
ENCODING 181
SWIDTH 320 0
DWIDTH 8 0
BBX 7 6 1 12
BITMAP
EE
EE
66
46
44
88
ENDCHAR
STARTCHAR 00B6
ENCODING 182
SWIDTH 240 0
DWIDTH 6 0
BBX 2 6 2 12
BITMAP
40
80
80
80
C0
C0
ENDCHAR
STARTCHAR 00B7
ENCODING 183
SWIDTH 240 0
DWIDTH 6 0
BBX 3 6 2 12
BITMAP
E0
E0
60
60
40
80
ENDCHAR
STARTCHAR 00B8
ENCODING 184
SWIDTH 560 0
DWIDTH 14 0
BBX 13 12 1 0
BITMAP
0700
0700
0000
0000
0000
FFF8
FFF8
0000
0000
0000
0700
0700
ENDCHAR
STARTCHAR 00B9
ENCODING 185
SWIDTH 480 0
DWIDTH 12 0
BBX 10 18 1 0
BITMAP
0400
0C00
0E00
1E00
1300
3180
6180
60C0
C0C0
C0C0
60C0
6180
3180
1300
1E00
0E00
0C00
0400
ENDCHAR
STARTCHAR 00BA
ENCODING 186
SWIDTH 520 0
DWIDTH 13 0
BBX 12 23 0 -5
BITMAP
1DC0
1DC0
1DC0
0000
0000
E030
6070
7060
7060
30E0
38C0
38C0
19C0
1D80
1D80
0F00
0F00
0700
0600
0600
0C00
7C00
7800
ENDCHAR
STARTCHAR 00BB
ENCODING 187
SWIDTH 680 0
DWIDTH 17 0
BBX 15 23 1 0
BITMAP
0660
0660
0660
0000
0000
E00E
E00E
701C
3018
3838
1C70
1C70
0EE0
06C0
07C0
0380
0380
0380
0380
0380
0380
0380
0380
ENDCHAR
STARTCHAR 00BC
ENCODING 188
SWIDTH 160 0
DWIDTH 4 0
BBX 12 17 -4 0
BITMAP
0030
0020
0060
00C0
0080
0180
0300
0300
0600
0400
0C00
1800
1000
3000
6000
4000
C000
ENDCHAR
STARTCHAR 00BD
ENCODING 189
SWIDTH 760 0
DWIDTH 19 0
BBX 16 18 1 0
BITMAP
01F8
03FC
070E
0E07
0C03
1C03
7FF0
FFF0
1800
1800
7FF0
FFF3
1803
0C03
0E06
070E
03FC
01F8
ENDCHAR
STARTCHAR 00BE
ENCODING 190
SWIDTH 320 0
DWIDTH 8 0
BBX 4 7 2 3
BITMAP
10
70
E0
C0
E0
70
10
ENDCHAR
STARTCHAR 00BF
ENCODING 191
SWIDTH 320 0
DWIDTH 8 0
BBX 4 7 2 3
BITMAP
80
E0
70
10
70
E0
80
ENDCHAR
STARTCHAR 00C0
ENCODING 192
SWIDTH 520 0
DWIDTH 13 0
BBX 11 18 0 0
BITMAP
1E60
3E60
3800
3000
3000
FE60
FE60
3060
3060
3060
3060
3060
3060
3060
3060
3060
3060
3060
ENDCHAR
STARTCHAR 00C1
ENCODING 193
SWIDTH 520 0
DWIDTH 13 0
BBX 11 18 0 0
BITMAP
1E60
3E60
3060
3060
3060
FE60
FE60
3060
3060
3060
3060
3060
3060
3060
3060
3060
3060
3060
ENDCHAR
STARTCHAR 00C2
ENCODING 194
SWIDTH 560 0
DWIDTH 14 0
BBX 12 22 1 -4
BITMAP
0600
0600
0600
0600
0600
FFF0
FFF0
0600
0600
0600
0600
0600
0600
0600
0600
FFF0
FFF0
0600
0600
0600
0600
0600
ENDCHAR
STARTCHAR 00C3
ENCODING 195
SWIDTH 280 0
DWIDTH 7 0
BBX 3 3 2 7
BITMAP
E0
E0
E0
ENDCHAR
STARTCHAR 00C4
ENCODING 196
SWIDTH 240 0
DWIDTH 6 0
BBX 3 6 2 -4
BITMAP
E0
E0
60
60
40
80
ENDCHAR
STARTCHAR 00C5
ENCODING 197
SWIDTH 320 0
DWIDTH 8 0
BBX 7 6 1 -4
BITMAP
EE
EE
66
46
44
88
ENDCHAR
STARTCHAR 00C6
ENCODING 198
SWIDTH 1000 0
DWIDTH 25 0
BBX 25 19 0 -1
BITMAP
3C080000
7E080000
E3100000
C3300000
C3200000
E3600000
7E400000
3CC00000
00800000
01800000
013C1E00
037E3F00
02C66380
04836180
04836180
08C66380
187E3F00
103C1E00
30000000
ENDCHAR
STARTCHAR 00C7
ENCODING 199
SWIDTH 680 0
DWIDTH 17 0
BBX 15 23 1 0
BITMAP
0380
03C0
06C0
0820
0000
0380
0380
07C0
06C0
0EC0
0EE0
0C60
1C70
1870
1830
3838
3FF8
7FF8
701C
601C
E00C
C00E
C006
ENDCHAR
STARTCHAR 00C8
ENCODING 200
SWIDTH 680 0
DWIDTH 17 0
BBX 13 23 2 0
BITMAP
0300
0780
0CC0
0000
0000
FFF8
FFF8
E000
E000
E000
E000
E000
E000
FFF0
FFF0
E000
E000
E000
E000
E000
E000
FFF8
FFF8
ENDCHAR
STARTCHAR 00C9
ENCODING 201
SWIDTH 680 0
DWIDTH 17 0
BBX 15 23 1 0
BITMAP
01C0
0180
0300
0000
0000
0380
0380
07C0
06C0
0EC0
0EE0
0C60
1C70
1870
1830
3838
3FF8
7FF8
701C
601C
E00C
C00E
C006
ENDCHAR
STARTCHAR 00CA
ENCODING 202
SWIDTH 680 0
DWIDTH 17 0
BBX 13 23 2 0
BITMAP
0CC0
0CC0
0CC0
0000
0000
FFF8
FFF8
E000
E000
E000
E000
E000
E000
FFF0
FFF0
E000
E000
E000
E000
E000
E000
FFF8
FFF8
ENDCHAR
STARTCHAR 00CB
ENCODING 203
SWIDTH 680 0
DWIDTH 17 0
BBX 13 23 2 0
BITMAP
1C00
0E00
0300
0000
0000
FFF8
FFF8
E000
E000
E000
E000
E000
E000
FFF0
FFF0
E000
E000
E000
E000
E000
E000
FFF8
FFF8
ENDCHAR
STARTCHAR 00CC
ENCODING 204
SWIDTH 280 0
DWIDTH 7 0
BBX 5 23 1 0
BITMAP
38
30
60
C0
00
70
70
70
70
70
70
70
70
70
70
70
70
70
70
70
70
70
70
ENDCHAR
STARTCHAR 00CD
ENCODING 205
SWIDTH 280 0
DWIDTH 7 0
BBX 7 23 0 0
BITMAP
38
6C
6C
C6
00
38
38
38
38
38
38
38
38
38
38
38
38
38
38
38
38
38
38
ENDCHAR
STARTCHAR 00CE
ENCODING 206
SWIDTH 280 0
DWIDTH 7 0
BBX 7 22 0 0
BITMAP
EE
EE
EE
00
38
38
38
38
38
38
38
38
38
38
38
38
38
38
38
38
38
38
ENDCHAR
STARTCHAR 00CF
ENCODING 207
SWIDTH 280 0
DWIDTH 7 0
BBX 5 23 0 0
BITMAP
E0
70
30
18
00
38
38
38
38
38
38
38
38
38
38
38
38
38
38
38
38
38
38
ENDCHAR
STARTCHAR 00D0
ENCODING 208
SWIDTH 760 0
DWIDTH 19 0
BBX 17 23 1 0
BITMAP
00E000
01C000
018000
000000
000000
07F000
1FFC00
3C1E00
380700
700380
600380
E00180
E00180
C00180
C00180
E00180
E00180
E00380
700300
700700
3C0E00
1FFC00
07F000
ENDCHAR
STARTCHAR 00D1
ENCODING 209
SWIDTH 760 0
DWIDTH 19 0
BBX 17 23 1 0
BITMAP
01E000
036000
033000
000000
000000
07F000
1FFC00
3C1E00
380700
700380
600380
E00180
E00180
C00180
C00180
E00180
E00180
E00380
700300
700700
3C0E00
1FFC00
07F000
ENDCHAR
STARTCHAR 00D2
ENCODING 210
SWIDTH 800 0
DWIDTH 20 0
BBX 18 21 1 -1
BITMAP
001800
003800
007800
007000
006000
1F3E00
3FFF80
7FFF80
7FFF00
FFFE00
FFFE00
FFFE00
FFFE00
FFFF00
7FFF00
7FFFC0
7FFF80
3FFF80
1FFF00
1FFF00
0F1C00
ENDCHAR
STARTCHAR 00D3
ENCODING 211
SWIDTH 760 0
DWIDTH 19 0
BBX 17 23 1 0
BITMAP
030000
018000
00C000
000000
000000
07F000
1FFC00
3C1E00
380700
700380
600380
E00180
E00180
C00180
C00180
E00180
E00180
E00380
700300
700700
3C0E00
1FFC00
07F000
ENDCHAR
STARTCHAR 00D4
ENCODING 212
SWIDTH 720 0
DWIDTH 18 0
BBX 14 23 2 0
BITMAP
01C0
0380
0300
0400
0000
E00C
E00C
E00C
E00C
E00C
E00C
E00C
E00C
E00C
E00C
E00C
E00C
E00C
E01C
7018
7878
3FF0
0FC0
ENDCHAR
STARTCHAR 00D5
ENCODING 213
SWIDTH 720 0
DWIDTH 18 0
BBX 14 23 2 0
BITMAP
0380
0780
0CC0
0000
0000
E00C
E00C
E00C
E00C
E00C
E00C
E00C
E00C
E00C
E00C
E00C
E00C
E00C
E01C
7018
7878
3FF0
0FC0
ENDCHAR
STARTCHAR 00D6
ENCODING 214
SWIDTH 720 0
DWIDTH 18 0
BBX 14 23 2 0
BITMAP
0E00
0600
0300
0000
0000
E00C
E00C
E00C
E00C
E00C
E00C
E00C
E00C
E00C
E00C
E00C
E00C
E00C
E01C
7018
7878
3FF0
0FC0
ENDCHAR
STARTCHAR 00D7
ENCODING 215
SWIDTH 280 0
DWIDTH 7 0
BBX 3 13 2 0
BITMAP
E0
E0
E0
E0
E0
E0
E0
E0
E0
E0
E0
E0
E0
ENDCHAR
STARTCHAR 00D8
ENCODING 216
SWIDTH 320 0
DWIDTH 8 0
BBX 6 3 1 15
BITMAP
38
6C
CC
ENDCHAR
STARTCHAR 00D9
ENCODING 217
SWIDTH 320 0
DWIDTH 8 0
BBX 8 3 0 15
BITMAP
71
FF
8E
ENDCHAR
STARTCHAR 00DA
ENCODING 218
SWIDTH 320 0
DWIDTH 8 0
BBX 8 1 0 16
BITMAP
FF
ENDCHAR
STARTCHAR 00DB
ENCODING 219
SWIDTH 320 0
DWIDTH 8 0
BBX 8 3 0 15
BITMAP
C1
42
3C
ENDCHAR
STARTCHAR 00DC
ENCODING 220
SWIDTH 320 0
DWIDTH 8 0
BBX 2 3 3 15
BITMAP
C0
C0
C0
ENDCHAR
STARTCHAR 00DD
ENCODING 221
SWIDTH 320 0
DWIDTH 8 0
BBX 5 5 2 15
BITMAP
70
98
88
98
70
ENDCHAR
STARTCHAR 00DE
ENCODING 222
SWIDTH 320 0
DWIDTH 8 0
BBX 6 6 1 -6
BITMAP
10
20
78
0C
0C
F8
ENDCHAR
STARTCHAR 00DF
ENCODING 223
SWIDTH 320 0
DWIDTH 8 0
BBX 8 4 0 15
BITMAP
77
66
66
CC
ENDCHAR
STARTCHAR 00E0
ENCODING 224
SWIDTH 320 0
DWIDTH 8 0
BBX 4 5 2 -5
BITMAP
30
40
C0
F0
70
ENDCHAR
STARTCHAR 00E1
ENCODING 225
SWIDTH 320 0
DWIDTH 8 0
BBX 6 3 1 15
BITMAP
CC
6C
38
ENDCHAR
STARTCHAR 00E2
ENCODING 226
SWIDTH 560 0
DWIDTH 14 0
BBX 13 18 0 0
BITMAP
3000
3000
3000
3000
3000
3100
3700
3C00
3800
7000
F000
B000
3000
3000
3000
3000
3FF8
3FF8
ENDCHAR
STARTCHAR 00E3
ENCODING 227
SWIDTH 240 0
DWIDTH 6 0
BBX 7 18 -1 0
BITMAP
18
18
18
18
18
18
18
1E
1C
38
F8
D8
18
18
18
18
18
18
ENDCHAR
STARTCHAR 00E4
ENCODING 228
SWIDTH 680 0
DWIDTH 17 0
BBX 15 23 1 0
BITMAP
0C60
06C0
0380
0000
0000
0FC0
3FF0
3838
701C
601C
600C
7000
7E00
1FE0
03F8
003C
000C
E00E
E00C
600C
783C
3FF8
0FE0
ENDCHAR
STARTCHAR 00E5
ENCODING 229
SWIDTH 520 0
DWIDTH 13 0
BBX 11 18 1 0
BITMAP
3180
1B00
0E00
0000
0000
3F00
7F80
E1C0
C0C0
E000
7C00
3F80
03C0
C0E0
C0E0
E0C0
7FC0
3F00
ENDCHAR
STARTCHAR 00E6
ENCODING 230
SWIDTH 600 0
DWIDTH 15 0
BBX 14 23 1 0
BITMAP
0C60
0CC0
0780
0000
0000
FFFC
FFFC
0038
0078
0070
00E0
01C0
0380
0780
0700
0E00
1C00
3800
3800
7000
E000
FFFC
FFFC
ENDCHAR
STARTCHAR 00E7
ENCODING 231
SWIDTH 520 0
DWIDTH 13 0
BBX 11 18 1 0
BITMAP
3180
1B00
0E00
0000
0000
FFC0
FFC0
01C0
0380
0700
0E00
0C00
1C00
3800
7000
E000
FFE0
FFE0
ENDCHAR
STARTCHAR 00E8
ENCODING 232
SWIDTH 280 0
DWIDTH 7 0
BBX 2 18 2 0
BITMAP
C0
C0
C0
C0
C0
C0
C0
00
00
00
00
C0
C0
C0
C0
C0
C0
C0
ENDCHAR
STARTCHAR 00E9
ENCODING 233
SWIDTH 720 0
DWIDTH 18 0
BBX 17 18 0 0
BITMAP
3FF000
3FFC00
301E00
300700
300700
300300
300380
FFC380
FFC380
300380
300380
300380
300300
300700
300600
301E00
3FFC00
3FF000
ENDCHAR
STARTCHAR 00EA
ENCODING 234
SWIDTH 560 0
DWIDTH 14 0
BBX 12 20 1 0
BITMAP
1100
3E00
1E00
1600
2300
0380
01C0
1EC0
3FE0
70E0
E070
C070
C030
C030
C030
C070
E060
70E0
3FC0
1F00
ENDCHAR
STARTCHAR 00EB
ENCODING 235
SWIDTH 680 0
DWIDTH 17 0
BBX 15 23 1 0
BITMAP
01C0
0180
0300
0000
0000
E00E
E00E
701C
3018
3838
1C70
1C70
0EE0
06C0
07C0
0380
0380
0380
0380
0380
0380
0380
0380
ENDCHAR
STARTCHAR 00EC
ENCODING 236
SWIDTH 520 0
DWIDTH 13 0
BBX 12 23 0 -5
BITMAP
0380
0300
0600
0000
0000
E030
6070
7060
7060
30E0
38C0
38C0
19C0
1D80
1D80
0F00
0F00
0700
0600
0600
0C00
7C00
7800
ENDCHAR
STARTCHAR 00ED
ENCODING 237
SWIDTH 680 0
DWIDTH 17 0
BBX 13 18 2 0
BITMAP
C000
C000
C000
FFC0
FFF0
C070
C038
C038
C038
C038
C070
FFF0
FFC0
C000
C000
C000
C000
C000
ENDCHAR
STARTCHAR 00EE
ENCODING 238
SWIDTH 560 0
DWIDTH 14 0
BBX 11 23 2 -5
BITMAP
C000
C000
C000
C000
C000
DF00
FF80
E1C0
C0E0
C0E0
C060
C060
C060
C0E0
C0C0
E1C0
FF80
DF00
C000
C000
C000
C000
C000
ENDCHAR
STARTCHAR 00EF
ENCODING 239
SWIDTH 600 0
DWIDTH 15 0
BBX 13 2 1 5
BITMAP
FFF8
FFF8
ENDCHAR
STARTCHAR 00F0
ENCODING 240
SWIDTH 600 0
DWIDTH 15 0
BBX 11 11 2 1
BITMAP
C060
E0E0
71C0
3B80
1F00
0E00
1F00
3B80
71C0
E0E0
C060
ENDCHAR
STARTCHAR 00F1
ENCODING 241
SWIDTH 320 0
DWIDTH 8 0
BBX 5 11 1 6
BITMAP
18
38
F8
18
18
18
18
18
18
18
18
ENDCHAR
STARTCHAR 00F2
ENCODING 242
SWIDTH 320 0
DWIDTH 8 0
BBX 8 11 0 6
BITMAP
3C
7F
63
C3
03
0E
1C
70
60
FF
FF
ENDCHAR
STARTCHAR 00F3
ENCODING 243
SWIDTH 320 0
DWIDTH 8 0
BBX 8 11 0 6
BITMAP
3C
7E
67
C3
06
1E
1E
C3
C3
7F
3C
ENDCHAR
STARTCHAR 00F4
ENCODING 244
SWIDTH 840 0
DWIDTH 21 0
BBX 18 17 1 0
BITMAP
180C00
380800
F81800
181000
183000
186000
184780
18CFC0
1998C0
1998C0
1B00C0
0201C0
060700
0C0C00
0C1800
181FC0
101FC0
ENDCHAR
STARTCHAR 00F5
ENCODING 245
SWIDTH 840 0
DWIDTH 21 0
BBX 18 17 2 0
BITMAP
180600
380C00
F80800
181800
181000
183000
186300
184300
18C700
198D00
190900
031100
023100
063FC0
0C3FC0
080100
180100
ENDCHAR
STARTCHAR 00F6
ENCODING 246
SWIDTH 840 0
DWIDTH 21 0
BBX 19 17 1 0
BITMAP
3C0100
7E0300
C60600
C20400
060C00
1C0800
1E18C0
C331C0
C323C0
7E66C0
3CC4C0
008CC0
0198C0
031FE0
021FE0
0600C0
0C00C0
ENDCHAR
STARTCHAR 00F7
ENCODING 247
SWIDTH 560 0
DWIDTH 14 0
BBX 13 17 0 0
BITMAP
3FF8
3FF8
3000
3000
3000
3000
3000
3FF0
3FF0
3000
3000
3000
FF00
FF00
3000
3000
3000
ENDCHAR
STARTCHAR 00F8
ENCODING 248
SWIDTH 760 0
DWIDTH 19 0
BBX 17 23 1 0
BITMAP
041800
061000
03E000
000000
000000
03F000
0FFC00
1C1E00
380700
700700
600300
E00000
E00000
E07F80
E07F80
E00380
E00380
600380
700380
700780
3C1D80
1FF980
07E180
ENDCHAR
STARTCHAR 00F9
ENCODING 249
SWIDTH 560 0
DWIDTH 14 0
BBX 11 24 1 -6
BITMAP
2080
3180
1F00
0000
0000
1E60
3FE0
71E0
E0E0
C060
C060
C060
C060
C060
E0E0
F1E0
7FE0
1F60
0060
0060
E0E0
E1C0
7FC0
1F00
ENDCHAR
STARTCHAR 00FA
ENCODING 250
SWIDTH 280 0
DWIDTH 7 0
BBX 3 22 2 0
BITMAP
E0
E0
E0
00
E0
E0
E0
E0
E0
E0
E0
E0
E0
E0
E0
E0
E0
E0
E0
E0
E0
E0
ENDCHAR
STARTCHAR 00FB
ENCODING 251
SWIDTH 680 0
DWIDTH 17 0
BBX 14 23 1 -5
BITMAP
0FC0
3FF0
3838
701C
601C
600C
7000
7800
3FC0
07F8
007C
000C
E00C
E00C
600C
783C
3FF8
0FE0
0200
0780
00C0
00C0
0780
ENDCHAR
STARTCHAR 00FC
ENCODING 252
SWIDTH 520 0
DWIDTH 13 0
BBX 11 18 1 -5
BITMAP
3F00
7F80
E1C0
C0C0
E000
7C00
3F80
03C0
C0E0
C0E0
E0C0
7FC0
3F00
0800
1E00
0300
0700
1E00
ENDCHAR
STARTCHAR 00FD
ENCODING 253
SWIDTH 720 0
DWIDTH 18 0
BBX 16 23 1 0
BITMAP
00E0
00C0
0180
0000
0000
07F0
1FF8
3C1C
300E
7007
6007
E000
E000
E000
E000
E000
E003
6007
7006
700E
3C1C
1FF8
07E0
ENDCHAR
STARTCHAR 00FE
ENCODING 254
SWIDTH 520 0
DWIDTH 13 0
BBX 11 18 1 0
BITMAP
0700
0600
0C00
0000
0000
1F80
3FC0
70E0
E060
C000
C000
C000
C000
C060
E0E0
71C0
7F80
1F00
ENDCHAR
STARTCHAR 00FF
ENCODING 255
SWIDTH 720 0
DWIDTH 18 0
BBX 16 23 1 0
BITMAP
0660
0360
01C0
0000
0000
07F0
1FF8
3C1C
300E
7007
6007
E000
E000
E000
E000
E000
E003
6007
7006
700E
3C1C
1FF8
07E0
ENDCHAR
STARTCHAR 0100
ENCODING 256
SWIDTH 520 0
DWIDTH 13 0
BBX 11 18 1 0
BITMAP
3180
1B00
0E00
0000
0000
1F80
3FC0
70E0
E060
C000
C000
C000
C000
C060
E0E0
71C0
7F80
1F00
ENDCHAR
STARTCHAR 0101
ENCODING 257
SWIDTH 560 0
DWIDTH 14 0
BBX 13 18 1 0
BITMAP
0060
0060
07F8
0060
0060
1F60
3FE0
71E0
E060
C060
C060
C060
C060
C060
E0E0
71E0
7FE0
1E60
ENDCHAR
STARTCHAR 0102
ENCODING 258
SWIDTH 680 0
DWIDTH 17 0
BBX 15 21 1 0
BITMAP
0FE0
0000
0000
0380
0380
07C0
06C0
0EC0
0EE0
0C60
1C70
1870
1830
3838
3FF8
7FF8
701C
601C
E00C
C00E
C006
ENDCHAR
STARTCHAR 0103
ENCODING 259
SWIDTH 560 0
DWIDTH 14 0
BBX 12 16 1 0
BITMAP
3FC0
0000
0000
1F80
7FC0
70E0
6060
0060
0FE0
7F60
F060
C060
C0E0
E1E0
7F70
3E70
ENDCHAR
STARTCHAR 0104
ENCODING 260
SWIDTH 680 0
DWIDTH 17 0
BBX 15 23 1 0
BITMAP
0820
0C60
07C0
0000
0000
0380
0380
07C0
06C0
0EC0
0EE0
0C60
1C70
1870
1830
3838
3FF8
7FF8
701C
601C
E00C
C00E
C006
ENDCHAR
STARTCHAR 0105
ENCODING 261
SWIDTH 560 0
DWIDTH 14 0
BBX 12 18 1 0
BITMAP
20C0
3080
1F00
0000
0000
1F80
3FC0
70E0
6060
0060
03E0
3C60
6060
C060
C0E0
E1E0
7F70
3E70
ENDCHAR
STARTCHAR 0106
ENCODING 262
SWIDTH 680 0
DWIDTH 17 0
BBX 16 23 1 -5
BITMAP
0380
0380
07C0
06C0
0EC0
0EE0
0C60
1C70
1870
1830
3838
3FF8
7FF8
701C
601C
E00C
C00E
C006
0006
0008
0018
001F
000F
ENDCHAR
STARTCHAR 0107
ENCODING 263
SWIDTH 560 0
DWIDTH 14 0
BBX 13 18 1 -5
BITMAP
1F80
7FC0
70E0
6060
0060
0FE0
7F60
F060
C060
C0E0
E1E0
7F70
3E70
0030
0040
00C0
00F8
0078
ENDCHAR
STARTCHAR 0108
ENCODING 264
SWIDTH 720 0
DWIDTH 18 0
BBX 16 23 1 0
BITMAP
01C0
0360
0630
0000
0000
07F0
1FF8
3C1C
300E
7007
6007
E000
E000
E000
E000
E000
E003
6007
7006
700E
3C1C
1FF8
07E0
ENDCHAR
STARTCHAR 0109
ENCODING 265
SWIDTH 520 0
DWIDTH 13 0
BBX 11 18 1 0
BITMAP
0F00
0F00
1980
0000
0000
1F80
3FC0
70E0
E060
C000
C000
C000
C000
C060
E0E0
71C0
7F80
1F00
ENDCHAR
STARTCHAR 010A
ENCODING 266
SWIDTH 720 0
DWIDTH 18 0
BBX 16 23 1 0
BITMAP
01C0
01C0
01C0
0000
0000
07F0
1FF8
3C1C
300E
7007
6007
E000
E000
E000
E000
E000
E003
6007
7006
700E
3C1C
1FF8
07E0
ENDCHAR
STARTCHAR 010B
ENCODING 267
SWIDTH 520 0
DWIDTH 13 0
BBX 11 18 1 0
BITMAP
0600
0600
0600
0000
0000
1F80
3FC0
70E0
E060
C000
C000
C000
C000
C060
E0E0
71C0
7F80
1F00
ENDCHAR
STARTCHAR 010C
ENCODING 268
SWIDTH 720 0
DWIDTH 18 0
BBX 15 23 2 0
BITMAP
0CC0
06C0
0380
0000
0000
FFC0
FFF0
C078
C01C
C01C
C00C
C00E
C00E
C00E
C00E
C00E
C00E
C00C
C01C
C018
C078
FFF0
FFC0
ENDCHAR
STARTCHAR 010D
ENCODING 269
SWIDTH 680 0
DWIDTH 17 0
BBX 15 23 1 -1
BITMAP
0006
0006
0006
0002
0066
0064
0060
0060
0060
1F60
3FE0
71E0
E0E0
C060
C060
C060
C060
C060
C060
E0E0
71E0
3FE0
1E60
ENDCHAR
STARTCHAR 010E
ENCODING 270
SWIDTH 680 0
DWIDTH 17 0
BBX 13 21 2 0
BITMAP
1FE0
0000
0000
FFF8
FFF8
E000
E000
E000
E000
E000
E000
FFF0
FFF0
E000
E000
E000
E000
E000
E000
FFF8
FFF8
ENDCHAR
STARTCHAR 010F
ENCODING 271
SWIDTH 560 0
DWIDTH 14 0
BBX 12 16 1 0
BITMAP
3FC0
0000
0000
1F80
3FC0
70E0
E060
C070
FFF0
FFF0
C000
C070
E060
70E0
3FC0
1F00
ENDCHAR
STARTCHAR 0110
ENCODING 272
SWIDTH 680 0
DWIDTH 17 0
BBX 13 23 2 0
BITMAP
1820
0840
0780
0000
0000
FFF8
FFF8
E000
E000
E000
E000
E000
E000
FFF0
FFF0
E000
E000
E000
E000
E000
E000
FFF8
FFF8
ENDCHAR
STARTCHAR 0111
ENCODING 273
SWIDTH 560 0
DWIDTH 14 0
BBX 12 19 1 -1
BITMAP
3040
10C0
0F00
0000
0000
0F80
3FC0
70E0
6060
C070
FFF0
FFF0
C000
C000
E070
E060
70E0
3FC0
1F00
ENDCHAR
STARTCHAR 0112
ENCODING 274
SWIDTH 680 0
DWIDTH 17 0
BBX 13 23 2 0
BITMAP
0300
0300
0300
0000
0000
FFF8
FFF8
E000
E000
E000
E000
E000
E000
FFF0
FFF0
E000
E000
E000
E000
E000
E000
FFF8
FFF8
ENDCHAR
STARTCHAR 0113
ENCODING 275
SWIDTH 560 0
DWIDTH 14 0
BBX 12 18 1 0
BITMAP
0600
0600
0600
0000
0000
1F80
3FC0
70E0
E060
C070
FFF0
FFF0
C000
C070
E060
70E0
3FC0
1F00
ENDCHAR
STARTCHAR 0114
ENCODING 276
SWIDTH 680 0
DWIDTH 17 0
BBX 13 23 2 -5
BITMAP
FFF8
FFF8
E000
E000
E000
E000
E000
E000
FFF0
FFF0
E000
E000
E000
E000
E000
E000
FFF8
FFF8
00C0
0100
0300
03C0
01C0
ENDCHAR
STARTCHAR 0115
ENCODING 277
SWIDTH 560 0
DWIDTH 14 0
BBX 12 18 1 -5
BITMAP
1F80
3FC0
70E0
E060
C070
FFF0
FFF0
C000
C070
E060
70E0
3FC0
1F00
0600
0C00
1C00
1F00
0F00
ENDCHAR
STARTCHAR 0116
ENCODING 278
SWIDTH 680 0
DWIDTH 17 0
BBX 13 22 2 0
BITMAP
18C0
0D80
0700
0000
FFF8
FFF8
E000
E000
E000
E000
E000
E000
FFF0
FFF0
E000
E000
E000
E000
E000
E000
FFF8
FFF8
ENDCHAR
STARTCHAR 0117
ENCODING 279
SWIDTH 560 0
DWIDTH 14 0
BBX 12 18 1 0
BITMAP
1980
0F00
0F00
0000
0000
1F80
3FC0
70E0
E060
C070
FFF0
FFF0
C000
C070
E060
70E0
3FC0
1F00
ENDCHAR
STARTCHAR 0118
ENCODING 280
SWIDTH 760 0
DWIDTH 19 0
BBX 17 23 1 0
BITMAP
01E000
01E000
033000
000000
000000
03F000
0FFC00
1C1E00
380700
700700
600300
E00000
E00000
E00000
E07F80
E07F80
E00380
600380
700380
700780
3C1F80
1FF980
07F180
ENDCHAR
STARTCHAR 0119
ENCODING 281
SWIDTH 560 0
DWIDTH 14 0
BBX 11 23 1 -5
BITMAP
0E00
1B00
3180
0000
0000
1E60
3FE0
71E0
E0E0
C060
C060
C060
C060
C060
E0E0
F1E0
7FE0
1E60
0060
E060
E0C0
7FC0
1F00
ENDCHAR
STARTCHAR 011A
ENCODING 282
SWIDTH 760 0
DWIDTH 19 0
BBX 17 23 1 0
BITMAP
01C000
01C000
01C000
000000
000000
03F000
0FFC00
1C1E00
380700
700700
600300
E00000
E00000
E00000
E07F80
E07F80
E00380
600380
700380
700780
3C1F80
1FF980
07F180
ENDCHAR
STARTCHAR 011B
ENCODING 283
SWIDTH 560 0
DWIDTH 14 0
BBX 11 23 1 -5
BITMAP
0C00
0C00
0C00
0000
0000
1E60
3FE0
71E0
E0E0
C060
C060
C060
C060
C060
E0E0
F1E0
7FE0
1E60
0060
E060
E0C0
7FC0
1F00
ENDCHAR
STARTCHAR 011C
ENCODING 284
SWIDTH 760 0
DWIDTH 19 0
BBX 17 24 1 -6
BITMAP
03F000
0FFC00
1C1E00
380700
700700
600300
E00000
E00000
E00000
E07F80
E07F80
E00380
600380
700380
700780
3C1F80
1FF980
07F180
008000
008000
01E000
006000
006000
03E000
ENDCHAR
STARTCHAR 011D
ENCODING 285
SWIDTH 560 0
DWIDTH 14 0
BBX 11 24 1 -11
BITMAP
1E60
3FE0
71E0
E0E0
C060
C060
C060
C060
C060
E0E0
F1E0
7FE0
1E60
0060
E060
E0C0
7FC0
1F00
0600
0400
0F00
0380
0300
1F00
ENDCHAR
STARTCHAR 011E
ENCODING 286
SWIDTH 560 0
DWIDTH 14 0
BBX 11 23 1 -5
BITMAP
0300
0600
0C00
0000
0000
1E60
3FE0
71E0
E0E0
C060
C060
C060
C060
C060
E0E0
F1E0
7FE0
1E60
0060
E060
E0C0
7FC0
1F00
ENDCHAR
STARTCHAR 011F
ENCODING 287
SWIDTH 720 0
DWIDTH 18 0
BBX 14 22 2 0
BITMAP
0380
06C0
0C60
0000
C00C
C00C
C00C
C00C
C00C
C00C
C00C
FFFC
FFFC
C00C
C00C
C00C
C00C
C00C
C00C
C00C
C00C
C00C
ENDCHAR
STARTCHAR 0120
ENCODING 288
SWIDTH 560 0
DWIDTH 14 0
BBX 10 22 2 0
BITMAP
0F00
0F00
1980
0000
C000
C000
C000
C000
C000
CF00
FF80
E1C0
C0C0
C0C0
C0C0
C0C0
C0C0
C0C0
C0C0
C0C0
C0C0
C0C0
ENDCHAR
STARTCHAR 0121
ENCODING 289
SWIDTH 720 0
DWIDTH 18 0
BBX 17 18 1 0
BITMAP
600600
600600
600600
FFFF80
FFFF80
600600
600600
600600
7FFE00
7FFE00
600600
600600
600600
600600
600600
600600
600600
600600
ENDCHAR
STARTCHAR 0122
ENCODING 290
SWIDTH 560 0
DWIDTH 14 0
BBX 11 18 1 0
BITMAP
6000
6000
FF00
6000
6000
6780
7FC0
70E0
6060
6060
6060
6060
6060
6060
6060
6060
6060
6060
ENDCHAR
STARTCHAR 0123
ENCODING 291
SWIDTH 440 0
DWIDTH 11 0
BBX 9 23 1 0
BITMAP
7980
7F00
CF00
0000
0000
1C00
1C00
1C00
1C00
1C00
1C00
1C00
1C00
1C00
1C00
1C00
1C00
1C00
1C00
1C00
1C00
1C00
1C00
ENDCHAR
STARTCHAR 0124
ENCODING 292
SWIDTH 440 0
DWIDTH 11 0
BBX 8 19 1 0
BITMAP
71
FF
8E
00
00
00
18
18
18
18
18
18
18
18
18
18
18
18
18
ENDCHAR
STARTCHAR 0125
ENCODING 293
SWIDTH 400 0
DWIDTH 10 0
BBX 8 20 1 0
BITMAP
FF
00
18
18
18
18
18
18
18
18
18
18
18
18
18
18
18
18
18
18
ENDCHAR
STARTCHAR 0126
ENCODING 294
SWIDTH 400 0
DWIDTH 10 0
BBX 8 16 1 0
BITMAP
FF
00
00
18
18
18
18
18
18
18
18
18
18
18
18
18
ENDCHAR
STARTCHAR 0127
ENCODING 295
SWIDTH 280 0
DWIDTH 7 0
BBX 4 23 1 -5
BITMAP
70
70
70
70
70
70
70
70
70
70
70
70
70
70
70
70
70
70
60
C0
C0
F0
F0
ENDCHAR
STARTCHAR 0128
ENCODING 296
SWIDTH 240 0
DWIDTH 6 0
BBX 4 23 0 -5
BITMAP
30
30
00
00
00
30
30
30
30
30
30
30
30
30
30
30
30
30
60
C0
C0
F0
F0
ENDCHAR
STARTCHAR 0129
ENCODING 297
SWIDTH 760 0
DWIDTH 19 0
BBX 16 18 2 0
BITMAP
E007
E007
E007
E007
E007
E007
E007
E007
E007
E007
E007
E007
E707
E707
E706
E38E
E3FC
E0F8
ENDCHAR
STARTCHAR 012A
ENCODING 298
SWIDTH 440 0
DWIDTH 11 0
BBX 7 23 2 -5
BITMAP
C6
C6
06
00
00
C6
C6
C6
C6
C6
C6
C6
C6
C6
C6
C6
C6
C6
06
06
06
1E
1C
ENDCHAR
STARTCHAR 012B
ENCODING 299
SWIDTH 520 0
DWIDTH 13 0
BBX 13 22 0 0
BITMAP
00E0
01B0
0318
0000
00E0
00E0
00E0
00E0
00E0
00E0
00E0
00E0
00E0
00E0
00E0
00E0
E0E0
E0E0
E0C0
71C0
7FC0
1F00
ENDCHAR
STARTCHAR 012C
ENCODING 300
SWIDTH 240 0
DWIDTH 6 0
BBX 7 23 -1 -5
BITMAP
38
6C
C6
00
00
18
18
18
18
18
18
18
18
18
18
18
18
18
18
18
38
78
70
ENDCHAR
STARTCHAR 012D
ENCODING 301
SWIDTH 680 0
DWIDTH 17 0
BBX 15 24 1 -6
BITMAP
601E
603C
6078
60F0
61E0
63C0
6780
6F00
7F80
7D80
79C0
70E0
6070
6070
6038
601C
601E
600E
2000
4000
7000
1800
1800
F000
ENDCHAR
STARTCHAR 012E
ENCODING 302
SWIDTH 520 0
DWIDTH 13 0
BBX 12 24 0 -6
BITMAP
3000
3000
3000
3000
3000
3070
30E0
31C0
3380
3600
3F00
3B00
3380
3180
31C0
30E0
3060
3070
2000
6000
7800
1800
1800
F000
ENDCHAR
STARTCHAR 012F
ENCODING 303
SWIDTH 560 0
DWIDTH 14 0
BBX 11 22 2 0
BITMAP
3800
7000
4000
0000
C000
C000
C000
C000
C000
C000
C000
C000
C000
C000
C000
C000
C000
C000
C000
C000
FFE0
FFE0
ENDCHAR
STARTCHAR 0130
ENCODING 304
SWIDTH 280 0
DWIDTH 7 0
BBX 4 22 2 0
BITMAP
70
60
C0
00
C0
C0
C0
C0
C0
C0
C0
C0
C0
C0
C0
C0
C0
C0
C0
C0
C0
C0
ENDCHAR
STARTCHAR 0131
ENCODING 305
SWIDTH 560 0
DWIDTH 14 0
BBX 11 24 2 -6
BITMAP
C000
C000
C000
C000
C000
C000
C000
C000
C000
C000
C000
C000
C000
C000
C000
C000
FFE0
FFE0
0200
0400
0F00
0180
0180
1F00
ENDCHAR
STARTCHAR 0132
ENCODING 306
SWIDTH 240 0
DWIDTH 6 0
BBX 5 24 0 -6
BITMAP
30
30
30
30
30
30
30
30
30
30
30
30
30
30
30
30
30
30
30
20
78
18
18
F8
ENDCHAR
STARTCHAR 0133
ENCODING 307
SWIDTH 560 0
DWIDTH 14 0
BBX 11 18 2 0
BITMAP
C0E0
C0E0
C0E0
C040
C040
C0C0
C000
C000
C000
C000
C000
C000
C000
C000
C000
C000
FFE0
FFE0
ENDCHAR
STARTCHAR 0134
ENCODING 308
SWIDTH 280 0
DWIDTH 7 0
BBX 6 18 1 0
BITMAP
CC
CC
CC
CC
CC
CC
CC
C0
C0
C0
C0
C0
C0
C0
C0
C0
C0
C0
ENDCHAR
STARTCHAR 0135
ENCODING 309
SWIDTH 560 0
DWIDTH 14 0
BBX 11 18 2 0
BITMAP
C000
C000
C000
C000
C000
C000
C000
C700
C700
C700
C000
C000
C000
C000
C000
C000
FFE0
FFE0
ENDCHAR
STARTCHAR 0136
ENCODING 310
SWIDTH 320 0
DWIDTH 8 0
BBX 6 18 2 0
BITMAP
C0
C0
C0
C0
C0
C0
DC
DC
DC
C0
C0
C0
C0
C0
C0
C0
C0
C0
ENDCHAR
STARTCHAR 0137
ENCODING 311
SWIDTH 720 0
DWIDTH 18 0
BBX 14 22 2 0
BITMAP
00C0
0180
0300
0000
E00C
F00C
F00C
D80C
D80C
CC0C
C60C
C60C
C30C
C30C
C18C
C0CC
C0CC
C06C
C06C
C03C
C01C
C01C
ENDCHAR
STARTCHAR 0138
ENCODING 312
SWIDTH 560 0
DWIDTH 14 0
BBX 10 18 2 0
BITMAP
0380
0600
0400
0000
0000
CF00
FFC0
E1C0
C0C0
C0C0
C0C0
C0C0
C0C0
C0C0
C0C0
C0C0
C0C0
C0C0
ENDCHAR
STARTCHAR 0139
ENCODING 313
SWIDTH 720 0
DWIDTH 18 0
BBX 15 24 1 -6
BITMAP
7006
7806
7806
6C06
6C06
6606
6306
6306
6186
6186
60C6
6066
6066
6036
6036
601E
600E
600E
2000
4000
F000
1800
1800
F000
ENDCHAR
STARTCHAR 013A
ENCODING 314
SWIDTH 560 0
DWIDTH 14 0
BBX 12 19 0 -6
BITMAP
33C0
3FF0
3870
3030
3030
3030
3030
3030
3030
3030
3030
3030
3030
2000
2000
7800
1800
1800
F800
ENDCHAR
STARTCHAR 013B
ENCODING 315
SWIDTH 720 0
DWIDTH 18 0
BBX 14 22 2 0
BITMAP
0CC0
06C0
0380
0000
E00C
F00C
F00C
D80C
D80C
CC0C
C60C
C60C
C30C
C30C
C18C
C0CC
C0CC
C06C
C06C
C03C
C01C
C01C
ENDCHAR
STARTCHAR 013C
ENCODING 316
SWIDTH 560 0
DWIDTH 14 0
BBX 10 18 2 0
BITMAP
3180
1B00
0E00
0000
0000
CF00
FFC0
E1C0
C0C0
C0C0
C0C0
C0C0
C0C0
C0C0
C0C0
C0C0
C0C0
C0C0
ENDCHAR
STARTCHAR 013D
ENCODING 317
SWIDTH 560 0
DWIDTH 14 0
BBX 13 20 0 0
BITMAP
E000
E000
2000
6000
4000
8000
0000
19F0
1BF8
1E38
1C18
1818
1818
1818
1818
1818
1818
1818
1818
1818
ENDCHAR
STARTCHAR 013E
ENCODING 318
SWIDTH 760 0
DWIDTH 19 0
BBX 17 21 1 0
BITMAP
07F000
000000
000000
07F000
1FFC00
3C1E00
380700
700380
600380
E00180
E00180
C00180
C00180
E00180
E00180
E00380
700300
700700
3C0E00
1FFC00
07F000
ENDCHAR
STARTCHAR 013F
ENCODING 319
SWIDTH 560 0
DWIDTH 14 0
BBX 12 16 1 0
BITMAP
3FC0
0000
0000
1F80
3FC0
70E0
E060
C070
C030
C030
C070
C070
E060
70E0
7FC0
1F80
ENDCHAR
STARTCHAR 0140
ENCODING 320
SWIDTH 760 0
DWIDTH 19 0
BBX 17 23 1 0
BITMAP
041000
063000
03E000
000000
000000
07F000
1FFC00
3C1E00
380700
700380
600380
E00180
E00180
C00180
C00180
E00180
E00180
E00380
700300
700700
3C0E00
1FFC00
07F000
ENDCHAR
STARTCHAR 0141
ENCODING 321
SWIDTH 560 0
DWIDTH 14 0
BBX 12 19 1 -1
BITMAP
3040
1080
0F00
0000
0000
1F00
3FC0
70E0
E060
C070
C030
C030
C030
C070
C070
E060
70E0
3FC0
1F00
ENDCHAR
STARTCHAR 0142
ENCODING 322
SWIDTH 760 0
DWIDTH 19 0
BBX 17 24 1 0
BITMAP
01DC00
019800
033000
023000
000000
000000
07F000
1FFC00
3C1E00
380700
700380
600380
E00180
E00180
C00180
C00180
E00180
E00180
E00380
700300
700700
3C0E00
1FFC00
07F000
ENDCHAR
STARTCHAR 0143
ENCODING 323
SWIDTH 560 0
DWIDTH 14 0
BBX 12 19 1 0
BITMAP
0CC0
1DC0
1980
1100
0000
0000
1F80
3FC0
70E0
E060
C070
C030
C030
C070
C070
E060
70E0
7FC0
1F80
ENDCHAR
STARTCHAR 0144
ENCODING 324
SWIDTH 720 0
DWIDTH 18 0
BBX 15 22 2 0
BITMAP
0380
0700
0400
0000
FFF0
FFF8
E01C
E00C
E00C
E00C
E00C
E01C
FFF8
FFF8
E01C
E01C
E00C
E00C
E00C
E00C
E00C
E00E
ENDCHAR
STARTCHAR 0145
ENCODING 325
SWIDTH 320 0
DWIDTH 8 0
BBX 6 18 2 0
BITMAP
30
60
C0
00
00
DC
FC
E0
C0
C0
C0
C0
C0
C0
C0
C0
C0
C0
ENDCHAR
STARTCHAR 0146
ENCODING 326
SWIDTH 720 0
DWIDTH 18 0
BBX 16 24 1 -6
BITMAP
7FF8
7FFC
700E
7006
7006
7006
7006
700E
7FFC
7FFC
700E
700E
7006
7006
7006
7006
7006
7007
2000
6000
7800
1800
1800
F000
ENDCHAR
STARTCHAR 0147
ENCODING 327
SWIDTH 320 0
DWIDTH 8 0
BBX 8 19 0 -6
BITMAP
37
3F
38
30
30
30
30
30
30
30
30
30
30
30
20
78
0C
1C
F8
ENDCHAR
STARTCHAR 0148
ENCODING 328
SWIDTH 720 0
DWIDTH 18 0
BBX 15 22 2 0
BITMAP
18C0
0D80
0700
0000
FFF0
FFF8
E01C
E00C
E00C
E00C
E00C
E01C
FFF8
FFF8
E01C
E01C
E00C
E00C
E00C
E00C
E00C
E00E
ENDCHAR
STARTCHAR 0149
ENCODING 329
SWIDTH 320 0
DWIDTH 8 0
BBX 7 18 1 0
BITMAP
C6
6C
38
00
00
6E
7E
70
60
60
60
60
60
60
60
60
60
60
ENDCHAR
STARTCHAR 014A
ENCODING 330
SWIDTH 680 0
DWIDTH 17 0
BBX 15 23 1 0
BITMAP
01C0
0180
0300
0000
0000
0FC0
3FF0
3838
701C
601C
600C
7000
7E00
1FE0
03F8
003C
000C
E00E
E00C
600C
783C
3FF8
0FE0
ENDCHAR
STARTCHAR 014B
ENCODING 331
SWIDTH 520 0
DWIDTH 13 0
BBX 11 18 1 0
BITMAP
0700
0600
0C00
0000
0000
3F00
7F80
E1C0
C0C0
E000
7C00
3F80
03C0
C0E0
C0E0
E0C0
7FC0
3F00
ENDCHAR
STARTCHAR 014C
ENCODING 332
SWIDTH 680 0
DWIDTH 17 0
BBX 15 23 1 0
BITMAP
0380
06C0
0CE0
0000
0000
0FC0
3FF0
3838
701C
601C
600C
7000
7E00
1FE0
03F8
003C
000C
E00E
E00C
600C
783C
3FF8
0FE0
ENDCHAR
STARTCHAR 014D
ENCODING 333
SWIDTH 520 0
DWIDTH 13 0
BBX 11 18 1 0
BITMAP
0E00
1B00
3180
0000
0000
3F00
7F80
E1C0
C0C0
E000
7C00
3F80
03C0
C0E0
C0E0
E0C0
7FC0
3F00
ENDCHAR
STARTCHAR 014E
ENCODING 334
SWIDTH 600 0
DWIDTH 15 0
BBX 15 24 0 -6
BITMAP
FFFE
FFFE
0380
0380
0380
0380
0380
0380
0380
0380
0380
0380
0380
0380
0380
0380
0380
0380
0180
0100
03C0
00E0
00C0
07C0
ENDCHAR
STARTCHAR 014F
ENCODING 335
SWIDTH 280 0
DWIDTH 7 0
BBX 7 22 0 -6
BITMAP
30
30
30
FC
FC
30
30
30
30
30
30
30
30
30
3C
1C
0C
08
1E
06
06
3E
ENDCHAR
STARTCHAR 0150
ENCODING 336
SWIDTH 600 0
DWIDTH 15 0
BBX 15 22 0 0
BITMAP
0660
06C0
0380
0000
FFFE
FFFE
0380
0380
0380
0380
0380
0380
0380
0380
0380
0380
0380
0380
0380
0380
0380
0380
ENDCHAR
STARTCHAR 0151
ENCODING 337
SWIDTH 360 0
DWIDTH 9 0
BBX 9 20 0 0
BITMAP
0380
0380
0380
3080
3180
3300
3000
FC00
FC00
3000
3000
3000
3000
3000
3000
3000
3000
3000
3C00
1C00
ENDCHAR
STARTCHAR 0152
ENCODING 338
SWIDTH 600 0
DWIDTH 15 0
BBX 15 18 0 0
BITMAP
FFFE
FFFE
0380
0380
0380
0380
0380
0380
0FF0
0380
0380
0380
0380
0380
0380
0380
0380
0380
ENDCHAR
STARTCHAR 0153
ENCODING 339
SWIDTH 320 0
DWIDTH 8 0
BBX 7 16 0 0
BITMAP
30
30
30
FC
FC
30
30
FE
30
30
30
30
30
30
3C
1C
ENDCHAR
STARTCHAR 0154
ENCODING 340
SWIDTH 720 0
DWIDTH 18 0
BBX 14 22 2 0
BITMAP
0E20
1FE0
11C0
0000
E00C
E00C
E00C
E00C
E00C
E00C
E00C
E00C
E00C
E00C
E00C
E00C
E00C
E01C
7018
7878
3FF0
0FC0
ENDCHAR
STARTCHAR 0155
ENCODING 341
SWIDTH 560 0
DWIDTH 14 0
BBX 10 18 2 0
BITMAP
7980
7F00
CF00
0000
0000
C0C0
C0C0
C0C0
C0C0
C0C0
C0C0
C0C0
C0C0
C0C0
C1C0
E3C0
FEC0
7CC0
ENDCHAR
STARTCHAR 0156
ENCODING 342
SWIDTH 720 0
DWIDTH 18 0
BBX 14 21 2 0
BITMAP
1FE0
0000
0000
E00C
E00C
E00C
E00C
E00C
E00C
E00C
E00C
E00C
E00C
E00C
E00C
E00C
E01C
7018
7878
3FF0
0FC0
ENDCHAR
STARTCHAR 0157
ENCODING 343
SWIDTH 560 0
DWIDTH 14 0
BBX 10 16 2 0
BITMAP
7F80
0000
0000
C0C0
C0C0
C0C0
C0C0
C0C0
C0C0
C0C0
C0C0
C0C0
C1C0
E3C0
FEC0
7CC0
ENDCHAR
STARTCHAR 0158
ENCODING 344
SWIDTH 720 0
DWIDTH 18 0
BBX 14 22 2 0
BITMAP
1820
0860
0780
0000
E00C
E00C
E00C
E00C
E00C
E00C
E00C
E00C
E00C
E00C
E00C
E00C
E00C
E01C
701C
7878
3FF0
0FC0
ENDCHAR
STARTCHAR 0159
ENCODING 345
SWIDTH 560 0
DWIDTH 14 0
BBX 10 18 2 0
BITMAP
6180
2100
1E00
0000
0000
C0C0
C0C0
C0C0
C0C0
C0C0
C0C0
C0C0
C0C0
C0C0
C1C0
E3C0
FEC0
7CC0
ENDCHAR
STARTCHAR 015A
ENCODING 346
SWIDTH 720 0
DWIDTH 18 0
BBX 14 24 2 0
BITMAP
0380
0440
0440
0440
0380
0000
E00C
E00C
E00C
E00C
E00C
E00C
E00C
E00C
E00C
E00C
E00C
E00C
E00C
E01C
7018
7878
3FF0
0FC0
ENDCHAR
STARTCHAR 015B
ENCODING 347
SWIDTH 560 0
DWIDTH 14 0
BBX 10 19 2 0
BITMAP
1E00
1200
2100
1200
1C00
0000
C0C0
C0C0
C0C0
C0C0
C0C0
C0C0
C0C0
C0C0
C0C0
C1C0
E3C0
FEC0
7CC0
ENDCHAR
STARTCHAR 015C
ENCODING 348
SWIDTH 720 0
DWIDTH 18 0
BBX 14 23 2 0
BITMAP
0770
0660
0CC0
0CC0
0000
E00C
E00C
E00C
E00C
E00C
E00C
E00C
E00C
E00C
E00C
E00C
E00C
E00C
E01C
7018
7878
3FF0
0FC0
ENDCHAR
STARTCHAR 015D
ENCODING 349
SWIDTH 560 0
DWIDTH 14 0
BBX 10 19 2 0
BITMAP
1980
3B80
3300
2200
0000
0000
C0C0
C0C0
C0C0
C0C0
C0C0
C0C0
C0C0
C0C0
C0C0
C1C0
E3C0
FEC0
7CC0
ENDCHAR
STARTCHAR 015E
ENCODING 350
SWIDTH 720 0
DWIDTH 18 0
BBX 14 23 2 -5
BITMAP
E00C
E00C
E00C
E00C
E00C
E00C
E00C
E00C
E00C
E00C
E00C
E00C
E00C
E01C
7018
7878
3FF0
0FC0
0200
0C00
0C00
0F00
0700
ENDCHAR
STARTCHAR 015F
ENCODING 351
SWIDTH 560 0
DWIDTH 14 0
BBX 10 18 2 -5
BITMAP
C0C0
C0C0
C0C0
C0C0
C0C0
C0C0
C0C0
C0C0
C0C0
C1C0
E3C0
FEC0
7CC0
0180
0300
0300
03C0
03C0
ENDCHAR
STARTCHAR 0160
ENCODING 352
SWIDTH 960 0
DWIDTH 24 0
BBX 22 23 1 0
BITMAP
007800
007800
00CC00
000000
000000
C0701C
C0781C
E0781C
E0F818
60F838
60DC38
70CC38
71CC30
318E70
318670
3B8670
3B8760
1B0760
1B03E0
1F03C0
1E03C0
0E01C0
0E01C0
ENDCHAR
STARTCHAR 0161
ENCODING 353
SWIDTH 720 0
DWIDTH 18 0
BBX 17 18 0 0
BITMAP
01E000
01E000
033000
000000
000000
E0C180
61E180
61E180
61E380
316300
333300
333300
333600
1A3600
1E1E00
1E1E00
0E1C00
0C1C00
ENDCHAR
STARTCHAR 0162
ENCODING 354
SWIDTH 680 0
DWIDTH 17 0
BBX 15 23 1 0
BITMAP
0380
06C0
0C60
0000
0000
E00E
E00E
701C
3018
3838
1C70
1C70
0EE0
06C0
07C0
0380
0380
0380
0380
0380
0380
0380
0380
ENDCHAR
STARTCHAR 0163
ENCODING 355
SWIDTH 520 0
DWIDTH 13 0
BBX 12 23 0 -5
BITMAP
0700
0D80
18C0
0000
0000
E030
6070
7060
7060
30E0
38C0
38C0
19C0
1D80
1D80
0F00
0F00
0700
0600
0600
0C00
7C00
7800
ENDCHAR
STARTCHAR 0164
ENCODING 356
SWIDTH 600 0
DWIDTH 15 0
BBX 14 22 1 0
BITMAP
00C0
0180
0300
0000
FFFC
FFFC
0038
0078
0070
00E0
01C0
0380
0780
0700
0E00
1C00
3800
3800
7000
E000
FFFC
FFFC
ENDCHAR
STARTCHAR 0165
ENCODING 357
SWIDTH 520 0
DWIDTH 13 0
BBX 11 18 1 0
BITMAP
0300
0600
0C00
0000
0000
FFC0
FFC0
01C0
0380
0700
0E00
0C00
1C00
3800
7000
E000
FFE0
FFE0
ENDCHAR
STARTCHAR 0166
ENCODING 358
SWIDTH 600 0
DWIDTH 15 0
BBX 14 23 1 0
BITMAP
0300
0300
0300
0000
0000
FFFC
FFFC
0038
0078
0070
00E0
01C0
0380
0780
0700
0E00
1C00
3800
3800
7000
E000
FFFC
FFFC
ENDCHAR
STARTCHAR 0167
ENCODING 359
SWIDTH 520 0
DWIDTH 13 0
BBX 11 18 1 0
BITMAP
0E00
0E00
0E00
0000
0000
FFC0
FFC0
01C0
0380
0700
0E00
0C00
1C00
3800
7000
E000
FFE0
FFE0
ENDCHAR
STARTCHAR 0168
ENCODING 360
SWIDTH 680 0
DWIDTH 17 0
BBX 15 25 1 -7
BITMAP
0FC0
3FF0
3838
701C
601C
600C
7000
7E00
1FE0
03F8
003C
000C
E00E
E00C
600C
783C
3FF8
0FE0
0000
0000
0300
0300
0100
0100
0200
ENDCHAR
STARTCHAR 0169
ENCODING 361
SWIDTH 520 0
DWIDTH 13 0
BBX 11 20 1 -7
BITMAP
3F00
7F80
E1C0
C0C0
E000
7C00
1F80
01C0
C0E0
C0E0
E1C0
7FC0
3F00
0000
0000
0C00
0C00
0400
0400
0800
ENDCHAR
STARTCHAR 016A
ENCODING 362
SWIDTH 600 0
DWIDTH 15 0
BBX 15 25 0 -7
BITMAP
FFFE
FFFE
0380
0380
0380
0380
0380
0380
0380
0380
0380
0380
0380
0380
0380
0380
0380
0380
0000
0000
0180
0180
0080
0100
0100
ENDCHAR
STARTCHAR 016B
ENCODING 363
SWIDTH 280 0
DWIDTH 7 0
BBX 6 24 0 -7
BITMAP
30
30
30
30
FC
FC
30
30
30
30
30
30
30
30
30
3C
1C
00
00
30
30
10
10
20
ENDCHAR
STARTCHAR 016C
ENCODING 364
SWIDTH 560 0
DWIDTH 14 0
BBX 11 12 1 3
BITMAP
C020
CF60
7FC0
70C0
6060
4060
4060
4060
6040
70C0
FFE0
4F20
ENDCHAR
STARTCHAR 016D
ENCODING 365
SWIDTH 0 0
DWIDTH 0 0
BBX 4 3 -9 15
BITMAP
E0
60
30
ENDCHAR
STARTCHAR 016E
ENCODING 366
SWIDTH 0 0
DWIDTH 0 0
BBX 4 3 -9 15
BITMAP
70
60
C0
ENDCHAR
STARTCHAR 016F
ENCODING 367
SWIDTH 0 0
DWIDTH 0 0
BBX 6 3 -10 15
BITMAP
78
78
CC
ENDCHAR
STARTCHAR 0170
ENCODING 368
SWIDTH 0 0
DWIDTH 0 0
BBX 8 3 -11 15
BITMAP
71
FF
8E
ENDCHAR
STARTCHAR 0171
ENCODING 369
SWIDTH 0 0
DWIDTH 0 0
BBX 8 1 -11 16
BITMAP
FF
ENDCHAR
STARTCHAR 0172
ENCODING 370
SWIDTH 0 0
DWIDTH 0 0
BBX 8 3 -11 15
BITMAP
C1
42
3C
ENDCHAR
STARTCHAR 0173
ENCODING 371
SWIDTH 0 0
DWIDTH 0 0
BBX 2 3 -8 15
BITMAP
C0
C0
C0
ENDCHAR
STARTCHAR 0174
ENCODING 372
SWIDTH 0 0
DWIDTH 0 0
BBX 6 3 -10 15
BITMAP
CC
CC
CC
ENDCHAR
STARTCHAR 0175
ENCODING 373
SWIDTH 0 0
DWIDTH 0 0
BBX 6 5 -10 15
BITMAP
38
48
C4
48
78
ENDCHAR
STARTCHAR 0176
ENCODING 374
SWIDTH 0 0
DWIDTH 0 0
BBX 8 4 -11 15
BITMAP
77
66
C6
CC
ENDCHAR
STARTCHAR 0177
ENCODING 375
SWIDTH 0 0
DWIDTH 0 0
BBX 6 3 -10 15
BITMAP
CC
78
78
ENDCHAR
STARTCHAR 0178
ENCODING 376
SWIDTH 0 0
DWIDTH 0 0
BBX 2 6 -8 -8
BITMAP
C0
C0
C0
40
C0
80
ENDCHAR
STARTCHAR 0179
ENCODING 377
SWIDTH 0 0
DWIDTH 0 0
BBX 6 6 -10 -6
BITMAP
30
20
78
0C
0C
F8
ENDCHAR
STARTCHAR 017A
ENCODING 378
SWIDTH 0 0
DWIDTH 0 0
BBX 4 5 -9 -5
BITMAP
20
C0
C0
F0
70
ENDCHAR
STARTCHAR 017B
ENCODING 379
SWIDTH 0 0
DWIDTH 0 0
BBX 8 18 -11 0
BITMAP
03
06
06
06
04
0C
0C
08
18
18
18
30
30
30
60
60
60
C0
ENDCHAR
STARTCHAR 017C
ENCODING 380
SWIDTH 720 0
DWIDTH 18 0
BBX 17 18 0 0
BITMAP
3FF000
3FFC00
301E00
300700
300700
300300
300380
FFC380
FFC380
300380
300380
300380
300300
300700
300600
301E00
3FFC00
3FF000
ENDCHAR
STARTCHAR 017D
ENCODING 381
SWIDTH 760 0
DWIDTH 19 0
BBX 17 27 1 -9
BITMAP
03F000
0FFC00
1C1E00
380700
700700
600300
E00000
E00000
E00000
E07F80
E07F80
E00380
600380
700380
700780
3C1F80
1FF980
07F180
000000
000000
000000
01C000
01C000
004000
004000
00C000
018000
ENDCHAR
STARTCHAR 017E
ENCODING 382
SWIDTH 560 0
DWIDTH 14 0
BBX 11 27 1 -5
BITMAP
0200
0400
0400
0C00
0E00
0E00
0000
0000
0000
1E60
3FE0
71E0
E0E0
C060
C060
C060
C060
C060
E0E0
F1E0
7FE0
1E60
0060
E060
E0C0
7FC0
1F00
ENDCHAR
STARTCHAR 017F
ENCODING 383
SWIDTH 560 0
DWIDTH 14 0
BBX 11 26 2 -8
BITMAP
C000
C000
C000
C000
C000
C000
C000
C000
C000
C000
C000
C000
C000
C000
C000
C000
FFE0
FFE0
0000
0000
0E00
0E00
0200
0200
0400
0C00
ENDCHAR
STARTCHAR 0180
ENCODING 384
SWIDTH 240 0
DWIDTH 6 0
BBX 2 26 2 -8
BITMAP
C0
C0
C0
C0
C0
C0
C0
C0
C0
C0
C0
C0
C0
C0
C0
C0
C0
C0
00
00
C0
C0
40
40
C0
80
ENDCHAR
STARTCHAR 0181
ENCODING 385
SWIDTH 680 0
DWIDTH 17 0
BBX 14 26 2 -8
BITMAP
C03C
C078
C0F0
C1E0
C3C0
C780
CF00
DE00
FF00
FB00
F380
E1C0
C0E0
C0E0
C070
C038
C03C
C01C
0000
0000
0E00
0E00
0200
0200
0400
0C00
ENDCHAR
STARTCHAR 0182
ENCODING 386
SWIDTH 520 0
DWIDTH 13 0
BBX 10 26 2 -8
BITMAP
C000
C000
C000
C000
C000
C1C0
C380
C700
CE00
D800
FC00
EC00
CE00
C600
C700
C380
C180
C1C0
0000
0000
1C00
1C00
0C00
0C00
0800
1000
ENDCHAR
STARTCHAR 0183
ENCODING 387
SWIDTH 720 0
DWIDTH 18 0
BBX 14 26 2 -8
BITMAP
E00C
F00C
F00C
D80C
D80C
CC0C
C60C
C60C
C30C
C30C
C18C
C0CC
C0CC
C06C
C06C
C03C
C01C
C01C
0000
0000
0700
0700
0100
0300
0200
0400
ENDCHAR
STARTCHAR 0184
ENCODING 388
SWIDTH 560 0
DWIDTH 14 0
BBX 10 21 2 -8
BITMAP
CF00
FFC0
E1C0
C0C0
C0C0
C0C0
C0C0
C0C0
C0C0
C0C0
C0C0
C0C0
C0C0
0000
0000
1C00
1C00
0400
0400
0C00
1800
ENDCHAR
STARTCHAR 0185
ENCODING 389
SWIDTH 720 0
DWIDTH 18 0
BBX 15 26 2 -8
BITMAP
FFF0
FFF8
E01C
E00C
E00C
E00C
E00C
E01C
FFF8
FFF8
E01C
E01C
E00C
E00C
E00C
E00C
E00C
E00E
0000
0000
0300
0300
0100
0100
0300
0200
ENDCHAR
STARTCHAR 0186
ENCODING 390
SWIDTH 320 0
DWIDTH 8 0
BBX 6 21 2 -8
BITMAP
DC
FC
E0
C0
C0
C0
C0
C0
C0
C0
C0
C0
C0
00
00
C0
C0
40
40
C0
80
ENDCHAR
STARTCHAR 0187
ENCODING 391
SWIDTH 200 0
DWIDTH 5 0
BBX 3 23 0 -5
BITMAP
60
60
40
00
00
60
60
60
60
60
60
60
60
60
60
60
60
60
60
60
60
E0
C0
ENDCHAR
STARTCHAR 0188
ENCODING 392
SWIDTH 280 0
DWIDTH 7 0
BBX 2 17 3 -4
BITMAP
C0
C0
C0
00
00
00
00
00
00
00
00
C0
C0
40
40
C0
80
ENDCHAR
STARTCHAR 0189
ENCODING 393
SWIDTH 320 0
DWIDTH 8 0
BBX 6 2 1 6
BITMAP
FC
FC
ENDCHAR
STARTCHAR 018A
ENCODING 394
SWIDTH 240 0
DWIDTH 6 0
BBX 4 18 0 -5
BITMAP
30
30
30
30
30
30
30
30
30
30
30
30
30
30
30
70
F0
E0
ENDCHAR
STARTCHAR 018B
ENCODING 395
SWIDTH 520 0
DWIDTH 13 0
BBX 10 13 2 0
BITMAP
C1C0
C380
C700
CE00
DC00
FC00
EC00
CE00
C600
C700
C380
C180
C1C0
ENDCHAR
STARTCHAR 018C
ENCODING 396
SWIDTH 280 0
DWIDTH 7 0
BBX 7 18 0 0
BITMAP
1E
3E
38
30
30
F0
F0
30
30
30
30
30
30
30
30
30
30
30
ENDCHAR
STARTCHAR 018D
ENCODING 397
SWIDTH 560 0
DWIDTH 14 0
BBX 12 14 1 -1
BITMAP
1F00
3FC0
70E0
E060
C060
FFF0
FFF0
0070
0070
C070
E060
70E0
3FC0
1F00
ENDCHAR
STARTCHAR 018E
ENCODING 398
SWIDTH 560 0
DWIDTH 14 0
BBX 12 14 1 -1
BITMAP
1F00
3FC0
70E0
E060
C070
0070
FFF0
FFF0
C070
C060
E060
70C0
3FC0
1F00
ENDCHAR
STARTCHAR 018F
ENCODING 399
SWIDTH 520 0
DWIDTH 13 0
BBX 11 14 1 0
BITMAP
1F00
7F80
61C0
C0C0
C0E0
00E0
0060
0060
00E0
C0E0
C0C0
E1C0
7F80
3E00
ENDCHAR
STARTCHAR 0190
ENCODING 400
SWIDTH 560 0
DWIDTH 14 0
BBX 12 14 1 -1
BITMAP
E3C0
EFF0
7C70
7030
7030
7030
73E0
7FC0
7000
7000
7070
3060
3FE0
0F80
ENDCHAR
STARTCHAR 0191
ENCODING 401
SWIDTH 0 0
DWIDTH 0 0
BBX 4 4 -9 16
BITMAP
E0
30
30
40
ENDCHAR
STARTCHAR 0192
ENCODING 402
SWIDTH 0 0
DWIDTH 0 0
BBX 8 1 -11 16
BITMAP
FF
ENDCHAR
STARTCHAR 0193
ENCODING 403
SWIDTH 0 0
DWIDTH 0 0
BBX 8 3 -11 15
BITMAP
3C
42
C3
ENDCHAR
STARTCHAR 0194
ENCODING 404
SWIDTH 280 0
DWIDTH 7 0
BBX 8 23 0 0
BITMAP
83
C2
7C
00
00
38
38
38
38
38
38
38
38
38
38
38
38
38
38
38
38
38
38
ENDCHAR
STARTCHAR 0195
ENCODING 405
SWIDTH 280 0
DWIDTH 7 0
BBX 8 18 0 0
BITMAP
83
C2
7C
00
00
38
38
38
38
38
38
38
38
38
38
38
38
38
ENDCHAR
STARTCHAR 0196
ENCODING 406
SWIDTH 720 0
DWIDTH 18 0
BBX 14 23 2 -5
BITMAP
E00C
F00C
F00C
F80C
DC0C
CC0C
CE0C
C70C
C70C
C38C
C18C
C1CC
C0EC
C06C
C07C
C03C
C01C
C01C
000C
000C
000C
003C
0038
ENDCHAR
STARTCHAR 0197
ENCODING 407
SWIDTH 560 0
DWIDTH 14 0
BBX 10 18 2 -5
BITMAP
CF00
FFC0
F1C0
E0C0
C0C0
C0C0
C0C0
C0C0
C0C0
C0C0
C0C0
C0C0
C0C0
00C0
00C0
00C0
03C0
0380
ENDCHAR
STARTCHAR 0198
ENCODING 408
SWIDTH 0 0
DWIDTH 0 0
BBX 6 4 -10 12
BITMAP
08
1C
9C
E0
ENDCHAR
STARTCHAR 0199
ENCODING 409
SWIDTH 680 0
DWIDTH 17 0
BBX 15 18 1 0
BITMAP
0380
03C0
07C0
06C0
0EE0
0EE0
0C60
1C70
1C70
1838
3838
3FF8
7FFC
701C
600C
E00E
E00E
C006
ENDCHAR
STARTCHAR 019A
ENCODING 410
SWIDTH 680 0
DWIDTH 17 0
BBX 13 18 2 0
BITMAP
FFF0
FFF0
C000
C000
C000
C000
C000
C000
FFC0
FFF0
C038
C018
C018
C018
C018
C038
FFF0
FFE0
ENDCHAR
STARTCHAR 019B
ENCODING 411
SWIDTH 680 0
DWIDTH 17 0
BBX 14 18 2 0
BITMAP
FFC0
FFF0
C070
C038
C038
C038
C030
C070
FFE0
FFF0
C038
C018
C01C
C01C
C018
C038
FFF0
FFC0
ENDCHAR
STARTCHAR 019C
ENCODING 412
SWIDTH 520 0
DWIDTH 13 0
BBX 10 18 2 0
BITMAP
FFC0
FFC0
C000
C000
C000
C000
C000
C000
C000
C000
C000
C000
C000
C000
C000
C000
C000
C000
ENDCHAR
STARTCHAR 019D
ENCODING 413
SWIDTH 720 0
DWIDTH 18 0
BBX 17 22 0 -4
BITMAP
0FFE00
0FFE00
0C0600
0C0600
0C0600
0C0600
0C0600
0C0600
0C0600
0C0600
1C0600
1C0600
180600
180600
180600
380600
FFFF80
FFFF80
E00180
E00180
E00180
E00180
ENDCHAR
STARTCHAR 019E
ENCODING 414
SWIDTH 680 0
DWIDTH 17 0
BBX 13 18 2 0
BITMAP
FFF8
FFF8
C000
C000
C000
C000
C000
C000
FFF0
FFF0
C000
C000
C000
C000
C000
C000
FFF8
FFF8
ENDCHAR
STARTCHAR 019F
ENCODING 415
SWIDTH 1000 0
DWIDTH 25 0
BBX 23 18 1 0
BITMAP
E0380E
F0381C
70381C
383838
1C3870
0E38E0
0639C0
033980
03FF80
03FF80
0739C0
0E39E0
1E38E0
1C3870
383838
70383C
F0381E
E0380E
ENDCHAR
STARTCHAR 01A0
ENCODING 416
SWIDTH 680 0
DWIDTH 17 0
BBX 15 18 1 0
BITMAP
0FE0
3FF0
7838
701C
600C
E00C
001C
0038
07F0
07F8
001C
000C
C00E
E00E
E00C
703C
3FF8
0FE0
ENDCHAR
STARTCHAR 01A1
ENCODING 417
SWIDTH 720 0
DWIDTH 18 0
BBX 14 18 2 0
BITMAP
C01C
C03C
C03C
C07C
C06C
C0CC
C1CC
C18C
C38C
C70C
C60C
CE0C
CC0C
D80C
F80C
F00C
F00C
E00C
ENDCHAR
STARTCHAR 01A2
ENCODING 418
SWIDTH 720 0
DWIDTH 18 0
BBX 14 22 2 0
BITMAP
3870
1FE0
0FC0
0000
C01C
C01C
C03C
C07C
C06C
C0CC
C1CC
C18C
C38C
C70C
C60C
CE0C
CC0C
D80C
F80C
F00C
F00C
E00C
ENDCHAR
STARTCHAR 01A3
ENCODING 419
SWIDTH 680 0
DWIDTH 17 0
BBX 14 18 2 0
BITMAP
C03C
C078
C0F0
C1E0
C3C0
C780
CF00
DE00
FF00
FB00
F380
E1C0
C0E0
C0E0
C070
C038
C038
C01C
ENDCHAR
STARTCHAR 01A4
ENCODING 420
SWIDTH 680 0
DWIDTH 17 0
BBX 15 18 0 0
BITMAP
0FFE
0FFE
0C06
0C06
0C06
0C06
0C06
0C06
0C06
0C06
0C06
0C06
0C06
1C06
1806
3806
F006
E006
ENDCHAR
STARTCHAR 01A5
ENCODING 421
SWIDTH 840 0
DWIDTH 21 0
BBX 17 18 2 0
BITMAP
E00780
F00780
F00780
F00D80
D80D80
D80D80
D81980
CC1980
CC1980
CC3180
C63180
C63180
C66180
C36180
C36180
C3C180
C1C180
C1C180
ENDCHAR
STARTCHAR 01A6
ENCODING 422
SWIDTH 720 0
DWIDTH 18 0
BBX 14 18 2 0
BITMAP
C00C
C00C
C00C
C00C
C00C
C00C
C00C
C00C
FFFC
FFFC
C00C
C00C
C00C
C00C
C00C
C00C
C00C
C00C
ENDCHAR
STARTCHAR 01A7
ENCODING 423
SWIDTH 760 0
DWIDTH 19 0
BBX 17 18 1 0
BITMAP
07F000
1FFC00
3C1E00
700700
700380
600380
E00180
C00180
C00180
C00180
C00180
E00180
600380
700300
300700
3C1E00
0FFC00
03F000
ENDCHAR
STARTCHAR 01A8
ENCODING 424
SWIDTH 720 0
DWIDTH 18 0
BBX 14 18 2 0
BITMAP
FFFC
FFFC
C00C
C00C
C00C
C00C
C00C
C00C
C00C
C00C
C00C
C00C
C00C
C00C
C00C
C00C
C00C
C00C
ENDCHAR
STARTCHAR 01A9
ENCODING 425
SWIDTH 680 0
DWIDTH 17 0
BBX 13 18 2 0
BITMAP
FFC0
FFF0
C070
C038
C018
C018
C018
C038
C070
FFF0
FFC0
C000
C000
C000
C000
C000
C000
C000
ENDCHAR
STARTCHAR 01AA
ENCODING 426
SWIDTH 720 0
DWIDTH 18 0
BBX 16 18 1 0
BITMAP
07E0
1FF8
3C1C
700E
7006
6007
E000
C000
C000
C000
C000
E007
E007
7006
700E
3C3C
1FF8
07E0
ENDCHAR
STARTCHAR 01AB
ENCODING 427
SWIDTH 600 0
DWIDTH 15 0
BBX 15 18 0 0
BITMAP
FFFE
FFFE
0380
0380
0380
0380
0380
0380
0380
0380
0380
0380
0380
0380
0380
0380
0380
0380
ENDCHAR
STARTCHAR 01AC
ENCODING 428
SWIDTH 680 0
DWIDTH 17 0
BBX 15 18 1 0
BITMAP
E006
E00E
700C
701C
381C
3818
1C38
1C30
0E30
0E60
0760
03E0
03C0
01C0
0180
0380
1F00
1E00
ENDCHAR
STARTCHAR 01AD
ENCODING 429
SWIDTH 840 0
DWIDTH 21 0
BBX 20 18 1 0
BITMAP
00E000
00E000
07FE00
3FFF80
78E3C0
60E0E0
E0E060
C0E060
C0E070
C0E070
C0E060
E0E060
60E0E0
78E3C0
3FFF80
07FE00
00E000
00E000
ENDCHAR
STARTCHAR 01AE
ENCODING 430
SWIDTH 680 0
DWIDTH 17 0
BBX 15 18 1 0
BITMAP
E00E
701C
3038
3830
1C70
0CE0
0EC0
07C0
0380
0780
07C0
0EE0
1C60
1870
3838
7018
E01C
E00E
ENDCHAR
STARTCHAR 01AF
ENCODING 431
SWIDTH 720 0
DWIDTH 18 0
BBX 16 22 2 -4
BITMAP
C00C
C00C
C00C
C00C
C00C
C00C
C00C
C00C
C00C
C00C
C00C
C00C
C00C
C00C
C00C
C00C
FFFF
FFFF
0003
0003
0003
0003
ENDCHAR
STARTCHAR 01B0
ENCODING 432
SWIDTH 640 0
DWIDTH 16 0
BBX 13 18 1 0
BITMAP
E018
E018
E018
E018
E018
E018
E018
E018
7038
3FF8
1FD8
0018
0018
0018
0018
0018
0018
0018
ENDCHAR
STARTCHAR 01B1
ENCODING 433
SWIDTH 960 0
DWIDTH 24 0
BBX 20 18 2 0
BITMAP
C06070
C06070
C06070
C06070
C06070
C06070
C06070
C06070
C06070
C06070
C06070
C06070
C06070
C06070
C06070
C06070
FFFFF0
FFFFF0
ENDCHAR
STARTCHAR 01B2
ENCODING 434
SWIDTH 960 0
DWIDTH 24 0
BBX 22 22 2 -4
BITMAP
C06070
C06070
C06070
C06070
C06070
C06070
C06070
C06070
C06070
C06070
C06070
C06070
C06070
C06070
C06070
C06070
FFFFFC
FFFFFC
00001C
00001C
00001C
00001C
ENDCHAR
STARTCHAR 01B3
ENCODING 435
SWIDTH 840 0
DWIDTH 21 0
BBX 20 18 0 0
BITMAP
FF8000
FF8000
038000
038000
038000
038000
038000
038000
03FF80
03FFC0
0380E0
038070
038070
038070
038070
0380E0
03FFE0
03FF80
ENDCHAR
STARTCHAR 01B4
ENCODING 436
SWIDTH 880 0
DWIDTH 22 0
BBX 18 18 2 0
BITMAP
C000C0
C000C0
C000C0
C000C0
C000C0
C000C0
C000C0
C000C0
FFC0C0
FFF0C0
C078C0
C038C0
C018C0
C018C0
C038C0
C078C0
FFF0C0
FFC0C0
ENDCHAR
STARTCHAR 01B5
ENCODING 437
SWIDTH 640 0
DWIDTH 16 0
BBX 13 18 2 0
BITMAP
C000
C000
C000
C000
C000
C000
C000
C000
FFC0
FFF0
C078
C038
C018
C018
C038
C078
FFF0
FFC0
ENDCHAR
STARTCHAR 01B6
ENCODING 438
SWIDTH 720 0
DWIDTH 18 0
BBX 16 18 1 0
BITMAP
07E0
1FF8
383C
700E
6006
6007
0007
0007
01FF
01FF
0003
E007
E007
6006
700E
383C
1FF8
07E0
ENDCHAR
STARTCHAR 01B7
ENCODING 439
SWIDTH 1000 0
DWIDTH 25 0
BBX 22 18 2 0
BITMAP
C03F80
C0FFE0
C1E0F0
C38038
C38038
C3001C
C7001C
C7001C
FE000C
FE000C
C7000C
C7001C
C30018
C38018
C1C030
C1E0F0
C0FFE0
C03F80
ENDCHAR
STARTCHAR 01B8
ENCODING 440
SWIDTH 720 0
DWIDTH 18 0
BBX 14 18 2 0
BITMAP
1FFC
7FFC
E00C
E00C
C00C
C00C
E00C
700C
3FFC
3FFC
700C
600C
E00C
E00C
E00C
E00C
C00C
C00C
ENDCHAR
STARTCHAR 01B9
ENCODING 441
SWIDTH 560 0
DWIDTH 14 0
BBX 12 14 1 0
BITMAP
1F80
7FC0
70E0
6060
0060
00E0
1FE0
7C60
E060
C060
C0E0
E1E0
7F70
3E30
ENDCHAR
STARTCHAR 01BA
ENCODING 442
SWIDTH 560 0
DWIDTH 14 0
BBX 12 18 1 0
BITMAP
0060
0FC0
3F80
7000
6000
4F80
DFC0
F0E0
E070
C070
C030
C030
C030
C070
E060
70E0
3FC0
1F80
ENDCHAR
STARTCHAR 01BB
ENCODING 443
SWIDTH 560 0
DWIDTH 14 0
BBX 11 13 2 0
BITMAP
FF00
FF80
C1C0
C0C0
C1C0
FF80
FFC0
C0C0
C0E0
C0E0
C0C0
FFC0
FF00
ENDCHAR
STARTCHAR 01BC
ENCODING 444
SWIDTH 400 0
DWIDTH 10 0
BBX 8 13 2 0
BITMAP
FF
FF
C0
C0
C0
C0
C0
C0
C0
C0
C0
C0
C0
ENDCHAR
STARTCHAR 01BD
ENCODING 445
SWIDTH 600 0
DWIDTH 15 0
BBX 15 16 0 -3
BITMAP
0FF8
0FF8
0C18
0C18
0C18
1C18
1818
1818
1818
1818
3818
FFFE
FFFE
C006
C006
C006
ENDCHAR
STARTCHAR 01BE
ENCODING 446
SWIDTH 560 0
DWIDTH 14 0
BBX 12 14 1 0
BITMAP
0F80
3FC0
70E0
6060
E070
C030
FFF0
FFF0
C000
E070
6060
70E0
3FC0
1F00
ENDCHAR
STARTCHAR 01BF
ENCODING 447
SWIDTH 800 0
DWIDTH 20 0
BBX 18 13 1 0
BITMAP
E0C1C0
70C380
30C700
38CE00
1CDC00
0FF800
0FF800
0CDC00
18CE00
38C600
70C300
E0C380
C0C1C0
ENDCHAR
STARTCHAR 01C0
ENCODING 448
SWIDTH 520 0
DWIDTH 13 0
BBX 11 14 1 0
BITMAP
1F00
7F80
61C0
E0C0
00C0
01C0
0F80
0FC0
00C0
00E0
C0E0
E1C0
7F80
3F00
ENDCHAR
STARTCHAR 01C1
ENCODING 449
SWIDTH 600 0
DWIDTH 15 0
BBX 11 13 2 0
BITMAP
C0E0
C1E0
C1E0
C360
C760
C660
CC60
CC60
D860
F060
F060
E060
E060
ENDCHAR
STARTCHAR 01C2
ENCODING 450
SWIDTH 600 0
DWIDTH 15 0
BBX 11 18 2 0
BITMAP
7180
3F80
1F00
0000
0000
C0E0
C1E0
C1E0
C360
C760
C660
CC60
DC60
D860
F060
F060
E060
E060
ENDCHAR
STARTCHAR 01C3
ENCODING 451
SWIDTH 560 0
DWIDTH 14 0
BBX 11 13 2 0
BITMAP
C0E0
C1C0
C380
C700
CE00
DC00
FC00
EE00
C700
C380
C380
C1C0
C0E0
ENDCHAR
STARTCHAR 01C4
ENCODING 452
SWIDTH 560 0
DWIDTH 14 0
BBX 13 13 0 0
BITMAP
1FF8
1FF8
1838
1838
1838
1838
1838
1838
1838
1838
3838
F038
E038
ENDCHAR
STARTCHAR 01C5
ENCODING 453
SWIDTH 680 0
DWIDTH 17 0
BBX 13 13 2 0
BITMAP
E038
E078
F078
F078
F0D8
D8D8
D8D8
D998
CD98
CD98
CF18
C718
C718
ENDCHAR
STARTCHAR 01C6
ENCODING 454
SWIDTH 560 0
DWIDTH 14 0
BBX 10 13 2 0
BITMAP
C0C0
C0C0
C0C0
C0C0
C0C0
FFC0
FFC0
C0C0
C0C0
C0C0
C0C0
C0C0
C0C0
ENDCHAR
STARTCHAR 01C7
ENCODING 455
SWIDTH 560 0
DWIDTH 14 0
BBX 12 14 1 0
BITMAP
1F80
3FC0
70E0
6060
C070
C030
C030
C030
C030
E070
E060
70E0
3FC0
1F80
ENDCHAR
STARTCHAR 01C8
ENCODING 456
SWIDTH 560 0
DWIDTH 14 0
BBX 10 13 2 0
BITMAP
FFC0
FFC0
C0C0
C0C0
C0C0
C0C0
C0C0
C0C0
C0C0
C0C0
C0C0
C0C0
C0C0
ENDCHAR
STARTCHAR 01C9
ENCODING 457
SWIDTH 560 0
DWIDTH 14 0
BBX 11 19 2 -5
BITMAP
DF00
FF80
E1C0
E0E0
C0E0
C060
C060
C060
C060
C0E0
E0C0
E1C0
FF80
DF00
C000
C000
C000
C000
C000
ENDCHAR
STARTCHAR 01CA
ENCODING 458
SWIDTH 520 0
DWIDTH 13 0
BBX 11 14 1 0
BITMAP
1F00
3FC0
70C0
60E0
C060
C000
C000
C000
C000
C060
E0E0
71C0
3F80
1F00
ENDCHAR
STARTCHAR 01CB
ENCODING 459
SWIDTH 520 0
DWIDTH 13 0
BBX 11 13 1 0
BITMAP
FFE0
FFE0
0C00
0C00
0C00
0C00
0C00
0C00
0C00
0C00
0C00
0C00
0C00
ENDCHAR
STARTCHAR 01CC
ENCODING 460
SWIDTH 520 0
DWIDTH 13 0
BBX 12 18 0 -5
BITMAP
E030
6070
7060
3060
30E0
38C0
18C0
1980
1D80
0D80
0F00
0700
0700
0600
0600
0C00
7C00
7800
ENDCHAR
STARTCHAR 01CD
ENCODING 461
SWIDTH 840 0
DWIDTH 21 0
BBX 19 23 1 -5
BITMAP
00E000
00E000
00E000
00E000
1EEF00
7FFF80
71F1C0
E0E0C0
C0E0E0
C0E060
C0E060
C0E060
C0E060
C0E0E0
E0E0C0
71F1C0
3FFF80
1EEF00
00E000
00E000
00E000
00E000
00E000
ENDCHAR
STARTCHAR 01CE
ENCODING 462
SWIDTH 520 0
DWIDTH 13 0
BBX 11 13 1 0
BITMAP
E0E0
E1C0
7180
3B80
1F00
1E00
0E00
1E00
3F00
3380
71C0
E1C0
C0E0
ENDCHAR
STARTCHAR 01CF
ENCODING 463
SWIDTH 560 0
DWIDTH 14 0
BBX 12 16 2 -3
BITMAP
C0C0
C0C0
C0C0
C0C0
C0C0
C0C0
C0C0
C0C0
C0C0
C0C0
C0C0
FFF0
FFF0
0030
0030
0030
ENDCHAR
STARTCHAR 01D0
ENCODING 464
SWIDTH 520 0
DWIDTH 13 0
BBX 11 13 1 0
BITMAP
C060
C060
C060
C060
E060
E060
7FE0
3FE0
0060
0060
0060
0060
0060
ENDCHAR
STARTCHAR 01D1
ENCODING 465
SWIDTH 760 0
DWIDTH 19 0
BBX 16 13 2 0
BITMAP
C183
C183
C183
C183
C183
C183
C183
C183
C183
C183
C183
FFFF
FFFF
ENDCHAR
STARTCHAR 01D2
ENCODING 466
SWIDTH 800 0
DWIDTH 20 0
BBX 17 16 2 -3
BITMAP
C18300
C18300
C18300
C18300
C18300
C18300
C18300
C18300
C18300
C18300
C18300
FFFF80
FFFF80
000180
000180
000180
ENDCHAR
STARTCHAR 01D3
ENCODING 467
SWIDTH 600 0
DWIDTH 15 0
BBX 15 13 0 0
BITMAP
FE00
FE00
0E00
0E00
0E00
0FF8
0FFC
0E0E
0E06
0E06
0E0E
0FFC
0FF8
ENDCHAR
STARTCHAR 01D4
ENCODING 468
SWIDTH 720 0
DWIDTH 18 0
BBX 14 13 2 0
BITMAP
C00C
C00C
C00C
C00C
C00C
FF0C
FFCC
C1CC
C0CC
C0CC
C1CC
FFCC
FF0C
ENDCHAR
STARTCHAR 01D5
ENCODING 469
SWIDTH 480 0
DWIDTH 12 0
BBX 10 13 2 0
BITMAP
C000
C000
C000
C000
C000
FF00
FF80
C1C0
C0C0
C0C0
C1C0
FF80
FF00
ENDCHAR
STARTCHAR 01D6
ENCODING 470
SWIDTH 520 0
DWIDTH 13 0
BBX 11 14 1 0
BITMAP
1F00
7F80
61C0
C0C0
C0E0
00E0
00E0
0FE0
0FE0
C0E0
C0C0
E1C0
7F80
1E00
ENDCHAR
STARTCHAR 01D7
ENCODING 471
SWIDTH 760 0
DWIDTH 19 0
BBX 17 14 2 0
BITMAP
C0F800
C3FE00
C38E00
C70700
C60300
CE0300
FE0380
FE0380
CE0300
C60300
C70700
C78E00
C3FE00
C0F800
ENDCHAR
STARTCHAR 01D8
ENCODING 472
SWIDTH 560 0
DWIDTH 14 0
BBX 11 13 1 0
BITMAP
3FE0
7FE0
6060
E060
E060
6060
3FE0
7FE0
6060
6060
6060
6060
E060
ENDCHAR
STARTCHAR 01D9
ENCODING 473
SWIDTH 680 0
DWIDTH 17 0
BBX 13 22 2 0
BITMAP
1980
1980
1980
0000
FFF8
FFF8
C000
C000
C000
C000
C000
C000
FFF0
FFF0
C000
C000
C000
C000
C000
C000
FFF8
FFF8
ENDCHAR
STARTCHAR 01DA
ENCODING 474
SWIDTH 560 0
DWIDTH 14 0
BBX 12 19 1 -1
BITMAP
1980
1980
1980
0000
0F80
3FC0
70E0
6060
E070
C030
FFF0
FFF0
C000
E000
E070
6060
70E0
3FC0
0F00
ENDCHAR
STARTCHAR 01DB
ENCODING 475
SWIDTH 520 0
DWIDTH 13 0
BBX 10 23 2 0
BITMAP
0300
0600
0C00
0C00
0000
FFC0
FFC0
C000
C000
C000
C000
C000
C000
C000
C000
C000
C000
C000
C000
C000
C000
C000
C000
ENDCHAR
STARTCHAR 01DC
ENCODING 476
SWIDTH 400 0
DWIDTH 10 0
BBX 8 18 2 0
BITMAP
0E
0C
18
00
00
FF
FF
C0
C0
C0
C0
C0
C0
C0
C0
C0
C0
C0
ENDCHAR
STARTCHAR 01DD
ENCODING 477
SWIDTH 280 0
DWIDTH 7 0
BBX 3 18 2 0
BITMAP
E0
E0
E0
E0
E0
E0
E0
E0
E0
E0
E0
E0
E0
E0
E0
E0
E0
E0
ENDCHAR
STARTCHAR 01DE
ENCODING 478
SWIDTH 240 0
DWIDTH 6 0
BBX 2 18 2 0
BITMAP
C0
C0
C0
00
00
C0
C0
C0
C0
C0
C0
C0
C0
C0
C0
C0
C0
C0
ENDCHAR
STARTCHAR 01DF
ENCODING 479
SWIDTH 520 0
DWIDTH 13 0
BBX 11 18 0 0
BITMAP
00E0
00E0
00E0
00E0
00E0
00E0
00E0
00E0
00E0
00E0
00E0
00E0
E0E0
E0E0
E0C0
71C0
7F80
1F00
ENDCHAR
STARTCHAR 01E0
ENCODING 480
SWIDTH 720 0
DWIDTH 18 0
BBX 16 18 1 0
BITMAP
07E0
1FF8
3C1C
700E
7006
6007
E000
E000
FFC0
FFC0
E000
E007
E007
7006
700E
3C3C
1FF8
07E0
ENDCHAR
STARTCHAR 01E1
ENCODING 481
SWIDTH 520 0
DWIDTH 13 0
BBX 11 14 1 0
BITMAP
1F00
3F80
71C0
E0E0
E060
C000
C000
FE00
FE00
C060
E0E0
71C0
3FC0
1F00
ENDCHAR
STARTCHAR 01E2
ENCODING 482
SWIDTH 280 0
DWIDTH 7 0
BBX 7 22 0 0
BITMAP
EE
EE
EE
00
38
38
38
38
38
38
38
38
38
38
38
38
38
38
38
38
38
38
ENDCHAR
STARTCHAR 01E3
ENCODING 483
SWIDTH 240 0
DWIDTH 6 0
BBX 6 18 0 0
BITMAP
EC
EC
EC
00
00
30
30
30
30
30
30
30
30
30
30
30
30
30
ENDCHAR
STARTCHAR 01E4
ENCODING 484
SWIDTH 1000 0
DWIDTH 25 0
BBX 24 18 0 0
BITMAP
0FFC00
0FFC00
0C0C00
0C0C00
0C0C00
0C0C00
0C0C00
0C0C00
0C0FF8
0C0FFE
0C0C0E
0C0C07
0C0C07
1C0C07
180C07
380C0E
F00FFE
E00FF8
ENDCHAR
STARTCHAR 01E5
ENCODING 485
SWIDTH 840 0
DWIDTH 21 0
BBX 20 13 0 0
BITMAP
1FF800
1FF800
183800
183800
183800
183FC0
183FE0
183870
183830
183830
383870
F03FE0
E03FC0
ENDCHAR
STARTCHAR 01E6
ENCODING 486
SWIDTH 1000 0
DWIDTH 25 0
BBX 22 18 2 0
BITMAP
C03000
C03000
C03000
C03000
C03000
C03000
C03000
C03000
FFFFE0
FFFFF0
C03038
C03018
C0301C
C0301C
C03018
C03038
C03FF0
C03FE0
ENDCHAR
STARTCHAR 01E7
ENCODING 487
SWIDTH 800 0
DWIDTH 20 0
BBX 18 13 2 0
BITMAP
C0C000
C0C000
C0C000
C0C000
C0C000
FFFF00
FFFF80
C0C1C0
C0C0C0
C0C0C0
C0C1C0
C0FF80
C0FF00
ENDCHAR
STARTCHAR 01E8
ENCODING 488
SWIDTH 240 0
DWIDTH 6 0
BBX 4 23 0 -5
BITMAP
30
30
30
00
00
30
30
30
30
30
30
30
30
30
30
30
30
30
30
30
70
F0
E0
ENDCHAR
STARTCHAR 01E9
ENCODING 489
SWIDTH 680 0
DWIDTH 17 0
BBX 14 18 1 0
BITMAP
0FC0
3FF0
3838
6018
601C
600C
7000
3E00
1FE0
03F8
003C
001C
E00C
E00C
600C
783C
3FF8
0FE0
ENDCHAR
STARTCHAR 01EA
ENCODING 490
SWIDTH 760 0
DWIDTH 19 0
BBX 17 18 1 0
BITMAP
FFF800
FFF800
0E0000
0E0000
0E0000
0E0000
0E0000
0E0000
0FFC00
0FFF00
0E0780
0E0380
0E0380
0E0180
0E0180
0E0180
0E0180
0E0180
ENDCHAR
STARTCHAR 01EB
ENCODING 491
SWIDTH 560 0
DWIDTH 14 0
BBX 13 18 0 0
BITMAP
1800
1800
1800
FFE0
FFE0
1800
1800
1800
1BE0
1FF0
1C30
1838
1838
1838
1838
1838
1838
1838
ENDCHAR
STARTCHAR 01EC
ENCODING 492
SWIDTH 680 0
DWIDTH 17 0
BBX 14 23 2 0
BITMAP
0180
0300
0600
0400
0000
C03C
C078
C0F0
C1E0
C3C0
C780
CF00
DE00
FF00
FB80
F380
E1C0
C0E0
C0E0
C070
C038
C038
C01C
ENDCHAR
STARTCHAR 01ED
ENCODING 493
SWIDTH 560 0
DWIDTH 14 0
BBX 11 18 2 0
BITMAP
0700
0600
0C00
0800
0000
C0E0
C1C0
C380
C700
CE00
DC00
FC00
EE00
C700
C300
C380
C1C0
C0E0
ENDCHAR
STARTCHAR 01EE
ENCODING 494
SWIDTH 520 0
DWIDTH 13 0
BBX 11 14 1 0
BITMAP
1F00
7F80
61C0
C0C0
E000
7000
7F00
0FC0
01C0
C0E0
C0E0
E0C0
7F80
1F00
ENDCHAR
STARTCHAR 01EF
ENCODING 495
SWIDTH 760 0
DWIDTH 19 0
BBX 18 23 0 -5
BITMAP
FFFC00
FFFC00
070000
070000
070000
070000
070000
077C00
07FF00
078380
070180
0701C0
0701C0
0700C0
0700C0
0701C0
0701C0
070180
000380
000700
001F00
003C00
003000
ENDCHAR
STARTCHAR 01F0
ENCODING 496
SWIDTH 560 0
DWIDTH 14 0
BBX 13 23 0 -5
BITMAP
1800
1800
1800
FFE0
FFE0
1800
1800
1800
1BC0
1FF0
1C70
1830
1838
1838
1838
1838
1838
1838
0030
0030
0070
01E0
0180
ENDCHAR
STARTCHAR 01F1
ENCODING 497
SWIDTH 680 0
DWIDTH 17 0
BBX 15 22 1 0
BITMAP
1C30
0FF0
07C0
0000
E006
E00E
700C
701C
381C
3818
1C38
0C30
0E70
0660
0760
03E0
03C0
01C0
0180
0380
1F00
1E00
ENDCHAR
STARTCHAR 01F2
ENCODING 498
SWIDTH 520 0
DWIDTH 13 0
BBX 11 23 1 -5
BITMAP
6180
7F80
1F00
0000
0000
C0E0
C0E0
E0C0
61C0
6180
7180
3380
3300
3B00
1B00
1E00
0E00
0E00
0C00
0C00
1800
F800
F000
ENDCHAR
STARTCHAR 01F3
ENCODING 499
SWIDTH 720 0
DWIDTH 18 0
BBX 14 22 2 -4
BITMAP
C00C
C00C
C00C
C00C
C00C
C00C
C00C
C00C
C00C
C00C
C00C
C00C
C00C
C00C
C00C
C00C
FFFC
FFFC
0300
0300
0300
0300
ENDCHAR
STARTCHAR 01F4
ENCODING 500
SWIDTH 560 0
DWIDTH 14 0
BBX 10 16 2 -3
BITMAP
C0C0
C0C0
C0C0
C0C0
C0C0
C0C0
C0C0
C0C0
C0C0
C0C0
C0C0
FFC0
FFC0
0C00
0C00
0C00
ENDCHAR
STARTCHAR 01F5
ENCODING 501
SWIDTH 560 0
DWIDTH 14 0
BBX 11 22 2 0
BITMAP
0060
0060
0060
0060
FFE0
FFE0
C000
C000
C000
C000
C000
C000
C000
C000
C000
C000
C000
C000
C000
C000
C000
C000
ENDCHAR
STARTCHAR 01F6
ENCODING 502
SWIDTH 400 0
DWIDTH 10 0
BBX 7 16 2 0
BITMAP
06
06
06
FE
FE
C0
C0
C0
C0
C0
C0
C0
C0
C0
C0
C0
ENDCHAR
STARTCHAR 01F7
ENCODING 503
SWIDTH 0 0
DWIDTH 0 0
BBX 2 6 -8 12
BITMAP
40
C0
80
C0
C0
C0
ENDCHAR
STARTCHAR 01F8
ENCODING 504
SWIDTH 0 0
DWIDTH 0 0
BBX 2 6 -8 12
BITMAP
C0
C0
C0
40
C0
80
ENDCHAR
STARTCHAR 01F9
ENCODING 505
SWIDTH 0 0
DWIDTH 0 0
BBX 2 6 -8 12
BITMAP
C0
C0
C0
40
C0
80
ENDCHAR
STARTCHAR 01FA
ENCODING 506
SWIDTH 0 0
DWIDTH 0 0
BBX 2 6 -8 12
BITMAP
C0
C0
C0
80
C0
40
ENDCHAR
STARTCHAR 01FB
ENCODING 507
SWIDTH 0 0
DWIDTH 0 0
BBX 8 4 -11 15
BITMAP
EE
66
33
33
ENDCHAR
STARTCHAR 01FC
ENCODING 508
SWIDTH 0 0
DWIDTH 0 0
BBX 2 4 -8 14
BITMAP
C0
C0
C0
C0
ENDCHAR
STARTCHAR 01FD
ENCODING 509
SWIDTH 0 0
DWIDTH 0 0
BBX 4 4 -9 14
BITMAP
90
90
90
90
ENDCHAR
STARTCHAR 01FE
ENCODING 510
SWIDTH 0 0
DWIDTH 0 0
BBX 8 6 -11 15
BITMAP
18
18
18
C1
42
3C
ENDCHAR
STARTCHAR 01FF
ENCODING 511
SWIDTH 0 0
DWIDTH 0 0
BBX 4 4 -9 -5
BITMAP
E0
60
30
30
ENDCHAR
STARTCHAR 0200
ENCODING 512
SWIDTH 0 0
DWIDTH 0 0
BBX 4 4 -9 -5
BITMAP
30
60
C0
C0
ENDCHAR
STARTCHAR 0201
ENCODING 513
SWIDTH 0 0
DWIDTH 0 0
BBX 8 1 -11 -4
BITMAP
FF
ENDCHAR
STARTCHAR 0202
ENCODING 514
SWIDTH 0 0
DWIDTH 0 0
BBX 2 3 -8 -5
BITMAP
C0
C0
C0
ENDCHAR
STARTCHAR 0203
ENCODING 515
SWIDTH 0 0
DWIDTH 0 0
BBX 6 3 -10 -5
BITMAP
CC
CC
CC
ENDCHAR
STARTCHAR 0204
ENCODING 516
SWIDTH 0 0
DWIDTH 0 0
BBX 6 5 -10 -5
BITMAP
38
48
C4
48
78
ENDCHAR
STARTCHAR 0205
ENCODING 517
SWIDTH 0 0
DWIDTH 0 0
BBX 2 4 -8 -6
BITMAP
C0
C0
C0
C0
ENDCHAR
STARTCHAR 0206
ENCODING 518
SWIDTH 0 0
DWIDTH 0 0
BBX 6 4 -10 -5
BITMAP
CC
CC
78
38
ENDCHAR
STARTCHAR 0207
ENCODING 519
SWIDTH 0 0
DWIDTH 0 0
BBX 6 4 -10 -5
BITMAP
38
78
CC
CC
ENDCHAR
STARTCHAR 0208
ENCODING 520
SWIDTH 0 0
DWIDTH 0 0
BBX 8 3 -11 -4
BITMAP
C1
42
3C
ENDCHAR
STARTCHAR 0209
ENCODING 521
SWIDTH 0 0
DWIDTH 0 0
BBX 8 3 -11 -4
BITMAP
3C
42
C3
ENDCHAR
STARTCHAR 020A
ENCODING 522
SWIDTH 0 0
DWIDTH 0 0
BBX 8 3 -11 -5
BITMAP
71
FF
8E
ENDCHAR
STARTCHAR 020B
ENCODING 523
SWIDTH 0 0
DWIDTH 0 0
BBX 8 1 -11 -4
BITMAP
FF
ENDCHAR
STARTCHAR 020C
ENCODING 524
SWIDTH 0 0
DWIDTH 0 0
BBX 8 1 -11 -4
BITMAP
FF
ENDCHAR
STARTCHAR 020D
ENCODING 525
SWIDTH 0 0
DWIDTH 0 0
BBX 8 3 -11 5
BITMAP
71
FF
8E
ENDCHAR
STARTCHAR 020E
ENCODING 526
SWIDTH 0 0
DWIDTH 0 0
BBX 8 1 -11 6
BITMAP
FF
ENDCHAR
STARTCHAR 020F
ENCODING 527
SWIDTH 0 0
DWIDTH 0 0
BBX 8 1 -11 6
BITMAP
FF
ENDCHAR
STARTCHAR 0210
ENCODING 528
SWIDTH 0 0
DWIDTH 0 0
BBX 8 3 -11 -6
BITMAP
FF
00
FF
ENDCHAR
STARTCHAR 0211
ENCODING 529
SWIDTH 0 0
DWIDTH 0 0
BBX 3 9 -8 12
BITMAP
60
C0
80
C0
C0
40
40
C0
80
ENDCHAR
STARTCHAR 0212
ENCODING 530
SWIDTH 0 0
DWIDTH 0 0
BBX 8 4 -11 13
BITMAP
FF
00
00
FF
ENDCHAR
STARTCHAR 0213
ENCODING 531
SWIDTH 0 0
DWIDTH 0 0
BBX 2 6 -8 12
BITMAP
C0
C0
C0
40
C0
80
ENDCHAR
STARTCHAR 0214
ENCODING 532
SWIDTH 0 0
DWIDTH 0 0
BBX 8 3 -11 15
BITMAP
3C
42
C3
ENDCHAR
STARTCHAR 0215
ENCODING 533
SWIDTH 0 0
DWIDTH 0 0
BBX 8 3 -11 15
BITMAP
18
DB
D3
ENDCHAR
STARTCHAR 0216
ENCODING 534
SWIDTH 0 0
DWIDTH 0 0
BBX 4 4 -9 -6
BITMAP
90
90
90
90
ENDCHAR
STARTCHAR 0217
ENCODING 535
SWIDTH 0 0
DWIDTH 0 0
BBX 0 0 0 0
BITMAP
ENDCHAR
STARTCHAR 0218
ENCODING 536
SWIDTH 280 0
DWIDTH 7 0
BBX 7 18 0 -5
BITMAP
18
18
18
18
18
18
18
18
18
18
18
FE
FE
38
38
38
F0
F0
ENDCHAR
STARTCHAR 0219
ENCODING 537
SWIDTH 560 0
DWIDTH 14 0
BBX 10 18 2 -5
BITMAP
C0C0
C0C0
C0C0
C0C0
C0C0
C0C0
C0C0
C0C0
C0C0
C0C0
C1C0
E3C0
FEC0
3CC0
00C0
00C0
00C0
00C0
ENDCHAR
STARTCHAR 021A
ENCODING 538
SWIDTH 840 0
DWIDTH 21 0
BBX 17 13 2 0
BITMAP
C1C180
C1C180
C1C180
C1C180
C1C180
C1C180
C1C180
C1C180
C1C180
C1C380
E3C780
FEFF80
7C7980
ENDCHAR
STARTCHAR 021B
ENCODING 539
SWIDTH 320 0
DWIDTH 8 0
BBX 6 13 2 0
BITMAP
0C
0C
0C
0C
0C
0C
0C
0C
0C
1C
3C
EC
CC
ENDCHAR
STARTCHAR 021C
ENCODING 540
SWIDTH 840 0
DWIDTH 21 0
BBX 17 18 2 -5
BITMAP
C1C180
C1C180
C1C180
C1C180
C1C180
C1C180
C1C180
C1C180
C1C180
C1C380
E3C780
FEFD80
7C7980
000180
000180
000180
000180
000180
ENDCHAR
STARTCHAR 021D
ENCODING 541
SWIDTH 320 0
DWIDTH 8 0
BBX 6 17 2 -4
BITMAP
CC
FC
F0
E0
C0
C0
C0
C0
C0
C0
C0
C0
C0
C0
C0
C0
C0
ENDCHAR
STARTCHAR 021E
ENCODING 542
SWIDTH 320 0
DWIDTH 8 0
BBX 6 18 2 0
BITMAP
0C
0C
0C
0C
0C
0C
0C
0C
0C
0C
0C
0C
0C
0C
1C
3C
EC
CC
ENDCHAR
STARTCHAR 021F
ENCODING 543
SWIDTH 520 0
DWIDTH 13 0
BBX 11 13 1 0
BITMAP
1F00
7F80
61C0
60C0
6000
3E00
3E00
6000
C060
C0E0
E1C0
7FC0
3F00
ENDCHAR
STARTCHAR 0220
ENCODING 544
SWIDTH 520 0
DWIDTH 13 0
BBX 11 13 1 0
BITMAP
1F00
3FC0
70C0
60C0
00C0
0F80
0F80
00C0
C060
C060
60E0
7FC0
1F80
ENDCHAR
STARTCHAR 0221
ENCODING 545
SWIDTH 240 0
DWIDTH 6 0
BBX 4 13 2 0
BITMAP
C0
C0
C0
C0
C0
C0
C0
C0
C0
C0
C0
F0
F0
ENDCHAR
STARTCHAR 0222
ENCODING 546
SWIDTH 400 0
DWIDTH 10 0
BBX 10 24 0 -5
BITMAP
03C0
07C0
0600
0600
0E00
0E00
0E00
0C00
0C00
0C00
0C00
0C00
0C00
0C00
0C00
0C00
0C00
0C00
0C00
1C00
1800
1800
F800
F000
ENDCHAR
STARTCHAR 0223
ENCODING 547
SWIDTH 280 0
DWIDTH 7 0
BBX 6 17 0 0
BITMAP
F0
F0
38
38
38
38
38
38
38
38
38
38
FC
FC
38
38
38
ENDCHAR
STARTCHAR 0224
ENCODING 548
SWIDTH 280 0
DWIDTH 7 0
BBX 6 22 0 -5
BITMAP
30
30
30
30
FC
FC
30
30
30
30
30
30
30
30
30
30
30
30
30
30
3C
1C
ENDCHAR
STARTCHAR 0225
ENCODING 549
SWIDTH 520 0
DWIDTH 13 0
BBX 12 13 0 0
BITMAP
0700
0F00
0F00
0D80
1980
1980
18C0
30C0
30E0
7060
6060
6070
E030
ENDCHAR
STARTCHAR 0226
ENCODING 550
SWIDTH 720 0
DWIDTH 18 0
BBX 17 13 0 0
BITMAP
0C1C00
0E1C00
1E1E00
1E1600
1E3600
333600
333300
332300
31E300
61E380
61E180
61C180
E0C180
ENDCHAR
STARTCHAR 0227
ENCODING 551
SWIDTH 520 0
DWIDTH 13 0
BBX 12 18 0 0
BITMAP
00E0
01E0
0300
0300
0600
0700
0700
0F00
0F80
1D80
1980
18C0
38C0
30E0
3060
7060
6070
E030
ENDCHAR
STARTCHAR 0228
ENCODING 552
SWIDTH 560 0
DWIDTH 14 0
BBX 11 18 2 0
BITMAP
1F00
3F80
61C0
E0E0
C0E0
C0E0
00C0
01C0
0380
0700
0600
0C00
0C00
0C00
0C00
0C00
0C00
0C00
ENDCHAR
STARTCHAR 0229
ENCODING 553
SWIDTH 560 0
DWIDTH 14 0
BBX 11 18 2 0
BITMAP
1F00
7F80
E1C0
E0C0
C0E0
C060
E000
7000
3800
1800
0C00
0C00
0C00
0E00
0E00
0E00
0E00
0E00
ENDCHAR
STARTCHAR 022A
ENCODING 554
SWIDTH 560 0
DWIDTH 14 0
BBX 11 18 2 0
BITMAP
0C00
0C00
0C00
0C00
0C00
0C00
0C00
0600
0700
0380
01C0
00C0
C0E0
C0E0
E0E0
71C0
3F80
1F00
ENDCHAR
STARTCHAR 022B
ENCODING 555
SWIDTH 520 0
DWIDTH 13 0
BBX 10 18 2 -5
BITMAP
E0C0
60C0
70C0
38C0
38C0
1CC0
0DC0
0FC0
06C0
0CC0
38C0
70C0
E0C0
00C0
00C0
00C0
00C0
00C0
ENDCHAR
STARTCHAR 022C
ENCODING 556
SWIDTH 600 0
DWIDTH 15 0
BBX 13 13 1 0
BITMAP
1F30
3FB0
70F0
E070
C070
C070
C030
C070
C070
E070
70F0
3FB8
1F18
ENDCHAR
STARTCHAR 022D
ENCODING 557
SWIDTH 600 0
DWIDTH 15 0
BBX 13 13 1 0
BITMAP
C7C0
EFE0
7870
7038
6018
6018
6018
6018
7018
7038
7870
6FE0
67C0
ENDCHAR
STARTCHAR 022E
ENCODING 558
SWIDTH 720 0
DWIDTH 18 0
BBX 16 18 1 0
BITMAP
07E0
1FF8
383C
700E
600E
E007
E007
0007
0007
0007
0007
0007
E006
E00E
700E
383C
1FF8
0FE0
ENDCHAR
STARTCHAR 022F
ENCODING 559
SWIDTH 720 0
DWIDTH 18 0
BBX 17 18 0 0
BITMAP
3FF000
3FFC00
301E00
300700
300700
300300
300380
300380
FFC380
FFC380
300380
300380
300300
300700
300600
301E00
3FFC00
3FF000
ENDCHAR
STARTCHAR 0230
ENCODING 560
SWIDTH 560 0
DWIDTH 14 0
BBX 12 18 1 0
BITMAP
1F80
3FC0
70E0
E070
C030
C030
C030
C030
C030
6060
70E0
3FC0
1F80
0600
0300
01C0
7FE0
7FE0
ENDCHAR
STARTCHAR 0231
ENCODING 561
SWIDTH 680 0
DWIDTH 17 0
BBX 13 18 2 0
BITMAP
FFF8
FFF8
0018
0018
0018
0018
0018
0018
7FF8
7FF8
0018
0018
0018
0018
0018
0018
FFF8
FFF8
ENDCHAR
STARTCHAR 0232
ENCODING 562
SWIDTH 680 0
DWIDTH 17 0
BBX 14 19 1 -1
BITMAP
0FE0
3FF0
7838
701C
601C
600C
001C
0078
07F8
3FE0
7E00
F000
E000
E00C
E00C
E01C
7038
3FF0
0FE0
ENDCHAR
STARTCHAR 0233
ENCODING 563
SWIDTH 520 0
DWIDTH 13 0
BBX 11 14 1 -1
BITMAP
1F00
7F80
61C0
C0C0
00C0
03C0
3F80
7C00
E000
C0E0
C0C0
E1C0
7F80
3F00
ENDCHAR
STARTCHAR 0234
ENCODING 564
SWIDTH 560 0
DWIDTH 14 0
BBX 13 18 1 0
BITMAP
FFF0
FFF0
7000
3800
1800
0C00
0600
0300
0380
0380
0700
0E00
1C00
3800
7000
E000
FFF8
FFF8
ENDCHAR
STARTCHAR 0235
ENCODING 565
SWIDTH 880 0
DWIDTH 22 0
BBX 19 19 2 0
BITMAP
000040
E00CE0
E00DE0
E00F00
E00C00
E00C00
E00C00
E00C00
E00C00
E00C00
E00C00
E00C00
E00C00
E00C00
E01C00
701800
787800
3FF000
0FC000
ENDCHAR
STARTCHAR 0236
ENCODING 566
SWIDTH 680 0
DWIDTH 17 0
BBX 15 14 2 0
BITMAP
0004
C0CE
C0DE
C0F0
C0C0
C0C0
C0C0
C0C0
C0C0
C0C0
C1C0
E3C0
FEC0
7CC0
ENDCHAR
STARTCHAR 0237
ENCODING 567
SWIDTH 760 0
DWIDTH 19 0
BBX 17 18 1 0
BITMAP
FE3F80
FE3F80
0C1800
380C00
300600
600700
E00300
E00380
C00380
C00180
C00180
C00380
E00300
600700
700600
3C1E00
1FFC00
07F000
ENDCHAR
STARTCHAR 0238
ENCODING 568
SWIDTH 280 0
DWIDTH 7 0
BBX 2 18 2 0
BITMAP
C0
C0
C0
C0
C0
C0
C0
C0
C0
C0
C0
C0
C0
C0
C0
C0
C0
C0
ENDCHAR
STARTCHAR 0239
ENCODING 569
SWIDTH 440 0
DWIDTH 11 0
BBX 7 18 2 0
BITMAP
CE
CE
CE
CE
CE
CE
CE
CE
CE
CE
CE
CE
CE
CE
CE
CE
CE
CE
ENDCHAR
STARTCHAR 023A
ENCODING 570
SWIDTH 280 0
DWIDTH 7 0
BBX 3 18 2 0
BITMAP
E0
E0
E0
E0
E0
E0
E0
60
60
60
60
40
40
40
00
E0
E0
E0
ENDCHAR
STARTCHAR 023B
ENCODING 571
SWIDTH 560 0
DWIDTH 14 0
BBX 12 18 1 0
BITMAP
0600
0600
0600
0600
0600
0600
FFF0
FFF0
0600
0600
0600
FFF0
FFF0
0600
0600
0600
0600
0600
ENDCHAR
STARTCHAR 023C
ENCODING 572
SWIDTH 520 0
DWIDTH 13 0
BBX 11 13 1 0
BITMAP
1F00
3FC0
70C0
E0E0
C060
C000
C000
C000
C060
E0E0
71C0
7F80
1F00
ENDCHAR
STARTCHAR 023D
ENCODING 573
SWIDTH 160 0
DWIDTH 4 0
BBX 2 7 1 -8
BITMAP
80
80
80
80
80
80
C0
ENDCHAR
STARTCHAR 023E
ENCODING 574
SWIDTH 320 0
DWIDTH 8 0
BBX 4 7 3 11
BITMAP
70
70
60
E0
C0
C0
80
ENDCHAR
STARTCHAR 023F
ENCODING 575
SWIDTH 320 0
DWIDTH 8 0
BBX 4 7 3 11
BITMAP
C0
E0
60
60
70
30
30
ENDCHAR
STARTCHAR 0240
ENCODING 576
SWIDTH 1360 0
DWIDTH 34 0
BBX 34 18 0 0
BITMAP
3C08000000
7E08000000
E310000000
C330000000
C320000000
E360000000
7E40000000
3C80000000
0180000000
0100000000
033C1E0F00
027E3F1F80
06C663B1C0
048361B0C0
088361B0C0
18C663B1C0
107E3F1F80
303C1E0F00
ENDCHAR
STARTCHAR 0241
ENCODING 577
SWIDTH 680 0
DWIDTH 17 0
BBX 11 3 3 0
BITMAP
C0E0
C0E0
C0E0
ENDCHAR
STARTCHAR 0242
ENCODING 578
SWIDTH 320 0
DWIDTH 8 0
BBX 2 3 3 0
BITMAP
C0
C0
C0
ENDCHAR
STARTCHAR 0243
ENCODING 579
SWIDTH 320 0
DWIDTH 8 0
BBX 7 6 1 12
BITMAP
EE
EE
EE
88
CC
66
ENDCHAR
STARTCHAR 0244
ENCODING 580
SWIDTH 240 0
DWIDTH 6 0
BBX 3 6 2 12
BITMAP
E0
E0
E0
80
40
60
ENDCHAR
STARTCHAR 0245
ENCODING 581
SWIDTH 320 0
DWIDTH 8 0
BBX 6 2 1 6
BITMAP
FC
FC
ENDCHAR
STARTCHAR 0246
ENCODING 582
SWIDTH 520 0
DWIDTH 13 0
BBX 13 22 0 -4
BITMAP
FFC0
63E0
63F0
63F8
63F8
63F8
63F8
63F8
63F0
63F0
63E0
6300
6300
6300
6300
6300
6300
6300
6300
6300
6300
6300
ENDCHAR
STARTCHAR 0247
ENCODING 583
SWIDTH 520 0
DWIDTH 13 0
BBX 8 7 3 11
BITMAP
73
77
66
E6
CC
CC
8C
ENDCHAR
STARTCHAR 0248
ENCODING 584
SWIDTH 520 0
DWIDTH 13 0
BBX 8 7 3 11
BITMAP
CE
EE
66
66
73
33
31
ENDCHAR
STARTCHAR 0249
ENCODING 585
SWIDTH 680 0
DWIDTH 17 0
BBX 13 7 3 11
BITMAP
7338
7730
6670
E660
CC60
CCC0
8CC0
ENDCHAR
STARTCHAR 024A
ENCODING 586
SWIDTH 680 0
DWIDTH 17 0
BBX 13 7 3 11
BITMAP
CEE0
EE60
6660
6630
7330
3330
3118
ENDCHAR
STARTCHAR 024B
ENCODING 587
SWIDTH 320 0
DWIDTH 8 0
BBX 6 2 1 6
BITMAP
FC
FC
ENDCHAR
STARTCHAR 024C
ENCODING 588
SWIDTH 320 0
DWIDTH 8 0
BBX 2 3 3 7
BITMAP
C0
C0
C0
ENDCHAR
STARTCHAR 024D
ENCODING 589
SWIDTH 320 0
DWIDTH 8 0
BBX 6 2 1 6
BITMAP
FC
FC
ENDCHAR
STARTCHAR 024E
ENCODING 590
SWIDTH 1000 0
DWIDTH 25 0
BBX 19 2 3 6
BITMAP
FFFFE0
FFFFE0
ENDCHAR
STARTCHAR 024F
ENCODING 591
SWIDTH 360 0
DWIDTH 9 0
BBX 5 6 2 6
BITMAP
80
E0
F8
F8
E0
80
ENDCHAR
STARTCHAR 0250
ENCODING 592
SWIDTH 120 0
DWIDTH 3 0
BBX 0 0 0 0
BITMAP
ENDCHAR
STARTCHAR 0251
ENCODING 593
SWIDTH 0 0
DWIDTH 0 0
BBX 0 0 0 0
BITMAP
ENDCHAR
STARTCHAR 0252
ENCODING 594
SWIDTH 0 0
DWIDTH 0 0
BBX 0 0 0 0
BITMAP
ENDCHAR
STARTCHAR 0253
ENCODING 595
SWIDTH 0 0
DWIDTH 0 0
BBX 0 0 0 0
BITMAP
ENDCHAR
STARTCHAR 0254
ENCODING 596
SWIDTH 0 0
DWIDTH 0 0
BBX 0 0 0 0
BITMAP
ENDCHAR
STARTCHAR 0255
ENCODING 597
SWIDTH 0 0
DWIDTH 0 0
BBX 0 0 0 0
BITMAP
ENDCHAR
STARTCHAR 0256
ENCODING 598
SWIDTH 0 0
DWIDTH 0 0
BBX 0 0 0 0
BITMAP
ENDCHAR
STARTCHAR 0257
ENCODING 599
SWIDTH 0 0
DWIDTH 0 0
BBX 0 0 0 0
BITMAP
ENDCHAR
STARTCHAR 0258
ENCODING 600
SWIDTH 280 0
DWIDTH 7 0
BBX 0 0 0 0
BITMAP
ENDCHAR
STARTCHAR 0259
ENCODING 601
SWIDTH 280 0
DWIDTH 7 0
BBX 0 0 0 0
BITMAP
ENDCHAR
STARTCHAR 025A
ENCODING 602
SWIDTH 280 0
DWIDTH 7 0
BBX 0 0 0 0
BITMAP
ENDCHAR
STARTCHAR 025B
ENCODING 603
SWIDTH 280 0
DWIDTH 7 0
BBX 0 0 0 0
BITMAP
ENDCHAR
STARTCHAR 025C
ENCODING 604
SWIDTH 280 0
DWIDTH 7 0
BBX 0 0 0 0
BITMAP
ENDCHAR
STARTCHAR 025D
ENCODING 605
SWIDTH 280 0
DWIDTH 7 0
BBX 0 0 0 0
BITMAP
ENDCHAR
STARTCHAR 025E
ENCODING 606
SWIDTH 280 0
DWIDTH 7 0
BBX 0 0 0 0
BITMAP
ENDCHAR
STARTCHAR 025F
ENCODING 607
SWIDTH 280 0
DWIDTH 7 0
BBX 0 0 0 0
BITMAP
ENDCHAR
STARTCHAR 0260
ENCODING 608
SWIDTH 280 0
DWIDTH 7 0
BBX 0 0 0 0
BITMAP
ENDCHAR
STARTCHAR 0261
ENCODING 609
SWIDTH 0 0
DWIDTH 0 0
BBX 0 0 0 0
BITMAP
ENDCHAR
STARTCHAR 0262
ENCODING 610
SWIDTH 0 0
DWIDTH 0 0
BBX 0 0 0 0
BITMAP
ENDCHAR
STARTCHAR 0263
ENCODING 611
SWIDTH 0 0
DWIDTH 0 0
BBX 0 0 0 0
BITMAP
ENDCHAR
STARTCHAR 0264
ENCODING 612
SWIDTH 0 0
DWIDTH 0 0
BBX 0 0 0 0
BITMAP
ENDCHAR
STARTCHAR 0265
ENCODING 613
SWIDTH 0 0
DWIDTH 0 0
BBX 0 0 0 0
BITMAP
ENDCHAR
STARTCHAR 0266
ENCODING 614
SWIDTH 120 0
DWIDTH 3 0
BBX 0 0 0 0
BITMAP
ENDCHAR
STARTCHAR 0267
ENCODING 615
SWIDTH 80 0
DWIDTH 2 0
BBX 0 0 0 0
BITMAP
ENDCHAR
STARTCHAR 0268
ENCODING 616
SWIDTH 320 0
DWIDTH 8 0
BBX 8 3 0 -6
BITMAP
FF
00
FF
ENDCHAR
STARTCHAR 0269
ENCODING 617
SWIDTH 440 0
DWIDTH 11 0
BBX 6 18 2 0
BITMAP
CC
CC
CC
CC
CC
CC
CC
CC
CC
CC
CC
CC
CC
CC
CC
CC
CC
CC
ENDCHAR
STARTCHAR 026A
ENCODING 618
SWIDTH 560 0
DWIDTH 14 0
BBX 11 18 2 0
BITMAP
1F00
7F80
6CC0
ECE0
CCE0
CCE0
0CC0
0DC0
0F80
0F00
0E00
0E00
0C00
0C00
0000
0C00
0C00
0C00
ENDCHAR
STARTCHAR 026B
ENCODING 619
SWIDTH 320 0
DWIDTH 8 0
BBX 6 2 1 6
BITMAP
FC
FC
ENDCHAR
STARTCHAR 026C
ENCODING 620
SWIDTH 320 0
DWIDTH 8 0
BBX 9 1 0 16
BITMAP
FF80
ENDCHAR
STARTCHAR 026D
ENCODING 621
SWIDTH 520 0
DWIDTH 13 0
BBX 12 11 1 4
BITMAP
FF80
C7C0
C7E0
C7F0
C7F0
C7F0
C7F0
C7F0
C7E0
C7E0
FF80
ENDCHAR
STARTCHAR 026E
ENCODING 622
SWIDTH 520 0
DWIDTH 13 0
BBX 12 11 1 4
BITMAP
0FF0
3E30
7E30
7E30
FE30
FE30
FE30
7E30
7E30
3E30
1FF0
ENDCHAR
STARTCHAR 026F
ENCODING 623
SWIDTH 680 0
DWIDTH 17 0
BBX 15 24 1 0
BITMAP
0380
06C0
0440
0440
0380
0000
0380
0380
07C0
06C0
0EC0
0EE0
0C60
1C70
1870
1830
3838
3FF8
7FF8
701C
601C
E00C
C00E
C006
ENDCHAR
STARTCHAR 0270
ENCODING 624
SWIDTH 600 0
DWIDTH 15 0
BBX 13 18 2 0
BITMAP
0038
0038
0038
0038
0038
0038
0038
0038
7FF8
7FF8
0038
0038
0038
0038
0038
0038
FFF8
FFF8
ENDCHAR
STARTCHAR 0271
ENCODING 625
SWIDTH 560 0
DWIDTH 14 0
BBX 12 14 1 -1
BITMAP
1F00
3FC0
70E0
E060
C070
0070
FFF0
FFF0
C070
C060
E060
70C0
3FC0
1F00
ENDCHAR
STARTCHAR 0272
ENCODING 626
SWIDTH 880 0
DWIDTH 22 0
BBX 20 18 1 0
BITMAP
07F030
1FFC70
3C1E70
380780
700380
600380
E00180
E00180
C00180
C00180
E00180
E00180
E00380
700300
700700
3C0E00
1FFC00
07F000
ENDCHAR
STARTCHAR 0273
ENCODING 627
SWIDTH 680 0
DWIDTH 17 0
BBX 15 15 1 -1
BITMAP
0002
1F0E
3FCE
70F8
E070
C070
C030
C030
C030
C070
C060
E060
70E0
3FC0
1F00
ENDCHAR
STARTCHAR 0274
ENCODING 628
SWIDTH 0 0
DWIDTH 0 0
BBX 2 5 -8 15
BITMAP
80
40
40
40
80
ENDCHAR
STARTCHAR 0275
ENCODING 629
SWIDTH 0 0
DWIDTH 0 0
BBX 2 5 -8 15
BITMAP
40
80
80
80
40
ENDCHAR
STARTCHAR 0276
ENCODING 630
SWIDTH 0 0
DWIDTH 0 0
BBX 2 5 -8 -5
BITMAP
40
80
80
80
40
ENDCHAR
STARTCHAR 0277
ENCODING 631
SWIDTH 0 0
DWIDTH 0 0
BBX 2 5 -8 -5
BITMAP
80
40
40
40
80
ENDCHAR
STARTCHAR 0278
ENCODING 632
SWIDTH 0 0
DWIDTH 0 0
BBX 6 7 -10 12
BITMAP
78
C8
08
78
88
88
74
ENDCHAR
STARTCHAR 0279
ENCODING 633
SWIDTH 0 0
DWIDTH 0 0
BBX 6 7 -10 12
BITMAP
78
4C
84
FC
80
CC
78
ENDCHAR
STARTCHAR 027A
ENCODING 634
SWIDTH 0 0
DWIDTH 0 0
BBX 2 9 -8 12
BITMAP
C0
00
C0
C0
C0
C0
C0
C0
C0
ENDCHAR
STARTCHAR 027B
ENCODING 635
SWIDTH 0 0
DWIDTH 0 0
BBX 6 7 -10 12
BITMAP
78
CC
84
84
84
CC
78
ENDCHAR
STARTCHAR 027C
ENCODING 636
SWIDTH 0 0
DWIDTH 0 0
BBX 6 7 -10 12
BITMAP
C4
C4
C4
C4
CC
CC
74
ENDCHAR
STARTCHAR 027D
ENCODING 637
SWIDTH 0 0
DWIDTH 0 0
BBX 6 7 -10 12
BITMAP
38
4C
C0
80
C4
4C
78
ENDCHAR
STARTCHAR 027E
ENCODING 638
SWIDTH 0 0
DWIDTH 0 0
BBX 6 9 -10 12
BITMAP
04
04
74
4C
84
84
84
4C
74
ENDCHAR
STARTCHAR 027F
ENCODING 639
SWIDTH 0 0
DWIDTH 0 0
BBX 6 9 -10 12
BITMAP
80
80
B8
CC
C4
84
84
84
84
ENDCHAR
STARTCHAR 0280
ENCODING 640
SWIDTH 0 0
DWIDTH 0 0
BBX 8 7 -11 12
BITMAP
F7
99
99
99
99
99
99
ENDCHAR
STARTCHAR 0281
ENCODING 641
SWIDTH 0 0
DWIDTH 0 0
BBX 4 7 -9 12
BITMAP
F0
C0
C0
C0
C0
C0
C0
ENDCHAR
STARTCHAR 0282
ENCODING 642
SWIDTH 0 0
DWIDTH 0 0
BBX 3 9 -8 12
BITMAP
C0
C0
E0
C0
C0
C0
C0
C0
60
ENDCHAR
STARTCHAR 0283
ENCODING 643
SWIDTH 0 0
DWIDTH 0 0
BBX 6 7 -10 12
BITMAP
84
4C
48
48
38
30
30
ENDCHAR
STARTCHAR 0284
ENCODING 644
SWIDTH 0 0
DWIDTH 0 0
BBX 6 7 -10 12
BITMAP
CC
68
30
30
30
48
CC
ENDCHAR
STARTCHAR 0285
ENCODING 645
SWIDTH 0 0
DWIDTH 0 0
BBX 8 4 -11 -7
BITMAP
FF
00
00
FF
ENDCHAR
STARTCHAR 0286
ENCODING 646
SWIDTH 0 0
DWIDTH 0 0
BBX 7 9 -10 4
BITMAP
06
0C
18
18
30
60
60
C0
80
ENDCHAR
STARTCHAR 0287
ENCODING 647
SWIDTH 0 0
DWIDTH 0 0
BBX 6 6 -10 -7
BITMAP
10
10
10
FC
10
10
ENDCHAR
STARTCHAR 0288
ENCODING 648
SWIDTH 0 0
DWIDTH 0 0
BBX 6 6 -10 -7
BITMAP
FC
10
10
10
10
10
ENDCHAR
STARTCHAR 0289
ENCODING 649
SWIDTH 0 0
DWIDTH 0 0
BBX 6 6 -10 -7
BITMAP
10
10
10
10
10
FC
ENDCHAR
STARTCHAR 028A
ENCODING 650
SWIDTH 0 0
DWIDTH 0 0
BBX 6 6 -10 -7
BITMAP
04
04
04
FC
04
04
ENDCHAR
STARTCHAR 028B
ENCODING 651
SWIDTH 0 0
DWIDTH 0 0
BBX 6 6 -10 -7
BITMAP
80
80
80
FC
80
80
ENDCHAR
STARTCHAR 028C
ENCODING 652
SWIDTH 0 0
DWIDTH 0 0
BBX 8 5 -11 15
BITMAP
3C
42
D9
18
18
ENDCHAR
STARTCHAR 028D
ENCODING 653
SWIDTH 160 0
DWIDTH 4 0
BBX 3 7 1 11
BITMAP
60
40
40
40
40
80
80
ENDCHAR
STARTCHAR 028E
ENCODING 654
SWIDTH 320 0
DWIDTH 8 0
BBX 6 7 1 11
BITMAP
6C
48
48
48
48
90
90
ENDCHAR
STARTCHAR 028F
ENCODING 655
SWIDTH 160 0
DWIDTH 4 0
BBX 3 7 1 11
BITMAP
60
40
40
40
40
80
80
ENDCHAR
STARTCHAR 0290
ENCODING 656
SWIDTH 160 0
DWIDTH 4 0
BBX 3 7 1 -6
BITMAP
20
40
40
40
40
40
C0
ENDCHAR
STARTCHAR 0291
ENCODING 657
SWIDTH 560 0
DWIDTH 14 0
BBX 12 13 1 0
BITMAP
3000
1800
1800
FFF0
FFF0
0E00
0600
0700
FFF0
FFF0
0180
0180
00C0
ENDCHAR
STARTCHAR 0292
ENCODING 658
SWIDTH 560 0
DWIDTH 14 0
BBX 12 13 1 0
BITMAP
00C0
0180
0180
FFF0
FFF0
0600
0600
0E00
FFF0
FFF0
1800
1800
3000
ENDCHAR
STARTCHAR 0293
ENCODING 659
SWIDTH 480 0
DWIDTH 12 0
BBX 11 18 1 0
BITMAP
1E00
7E00
6000
E000
C000
C000
C000
DF00
FF80
F1C0
E0C0
E0E0
E0E0
60E0
60E0
31C0
3FC0
0F00
ENDCHAR
STARTCHAR 0294
ENCODING 660
SWIDTH 480 0
DWIDTH 12 0
BBX 11 18 1 0
BITMAP
1F00
0F80
09C0
00C0
00C0
00E0
00E0
1E60
7F60
71E0
E1E0
C0C0
C0C0
C1C0
C180
E380
7F00
3C00
ENDCHAR
STARTCHAR 0295
ENCODING 661
SWIDTH 720 0
DWIDTH 18 0
BBX 14 22 3 -4
BITMAP
7FFC
7FFC
001C
0038
0070
00E0
01C0
0380
0700
0600
0E00
0E00
0700
0380
01C0
00E0
00E0
0070
0038
001C
FFFC
FFFC
ENDCHAR
STARTCHAR 0296
ENCODING 662
SWIDTH 720 0
DWIDTH 18 0
BBX 14 22 0 -4
BITMAP
7FFC
7FFC
7000
3800
1C00
0E00
0700
0380
0180
01C0
00E0
01E0
01C0
0380
0700
0E00
1C00
1C00
3800
7000
FFFC
FFFC
ENDCHAR
STARTCHAR 0297
ENCODING 663
SWIDTH 280 0
DWIDTH 7 0
BBX 10 24 1 -5
BITMAP
F000
F800
1C00
0C00
0C00
0C00
0C00
0C00
0C00
0C00
0C00
0C00
0E00
0E00
0E00
0E00
0E00
0600
0600
0600
0600
0700
03C0
01C0
ENDCHAR
STARTCHAR 0298
ENCODING 664
SWIDTH 280 0
DWIDTH 7 0
BBX 11 24 -5 -5
BITMAP
01E0
03C0
0700
0600
0600
0600
0600
0600
0600
0E00
0E00
0E00
0E00
0E00
0E00
0C00
0C00
0C00
0C00
0C00
0C00
1C00
F800
F000
ENDCHAR
STARTCHAR 0299
ENCODING 665
SWIDTH 560 0
DWIDTH 14 0
BBX 16 23 -2 0
BITMAP
C000
C000
C000
6000
6000
6000
3000
3000
3000
1800
1818
081C
0C1F
0C38
0430
0630
0660
0260
0360
03C0
01C0
01C0
0180
ENDCHAR
STARTCHAR 029A
ENCODING 666
SWIDTH 560 0
DWIDTH 14 0
BBX 16 23 0 0
BITMAP
0003
0003
0002
0006
0006
000C
000C
000C
0018
0018
1018
7830
D830
9830
0C60
0C60
0C40
06C0
06C0
0680
0380
0380
0300
ENDCHAR
STARTCHAR 029B
ENCODING 667
SWIDTH 560 0
DWIDTH 14 0
BBX 12 9 1 2
BITMAP
01E0
87F0
FE10
7800
0000
01E0
87F0
FE10
7800
ENDCHAR
STARTCHAR 029C
ENCODING 668
SWIDTH 560 0
DWIDTH 14 0
BBX 12 9 1 2
BITMAP
7800
FE10
87F0
01E0
0000
7800
FE10
87F0
01E0
ENDCHAR
STARTCHAR 029D
ENCODING 669
SWIDTH 1120 0
DWIDTH 28 0
BBX 26 18 1 0
BITMAP
0001FC00
3C07FE00
660F0700
C30C0380
C31C01C0
C31801C0
66380000
3C380000
00380000
00380000
00380000
003800C0
001801C0
001C0180
001C0380
000F0700
0007FE00
0001F800
ENDCHAR
STARTCHAR 029E
ENCODING 670
SWIDTH 1000 0
DWIDTH 25 0
BBX 24 18 1 0
BITMAP
001FFF
3C1FFF
661C00
C31C00
C31C00
C31C00
661C00
3C1C00
001FFC
001FFC
001C00
001C00
001C00
001C00
001C00
001C00
001C00
001C00
ENDCHAR
STARTCHAR 029F
ENCODING 671
SWIDTH 680 0
DWIDTH 17 0
BBX 14 18 2 0
BITMAP
C03C
C078
C0F0
C1E0
C3C0
C780
CF00
DE00
FF00
FB00
F380
E1C0
C0E0
C0E0
C070
C038
C03C
C01C
ENDCHAR
STARTCHAR 02A0
ENCODING 672
SWIDTH 280 0
DWIDTH 7 0
BBX 3 18 2 0
BITMAP
E0
E0
E0
E0
E0
E0
E0
E0
E0
E0
E0
E0
E0
E0
E0
E0
E0
E0
ENDCHAR
STARTCHAR 02A1
ENCODING 673
SWIDTH 560 0
DWIDTH 14 0
BBX 10 18 2 0
BITMAP
E1C0
E1C0
E1C0
E1C0
E1C0
E1C0
E1C0
E1C0
E1C0
E1C0
E1C0
E1C0
E1C0
E1C0
E1C0
E1C0
E1C0
E1C0
ENDCHAR
STARTCHAR 02A2
ENCODING 674
SWIDTH 840 0
DWIDTH 21 0
BBX 17 18 2 0
BITMAP
E1C380
E1C380
E1C380
E1C380
E1C380
E1C380
E1C380
E1C380
E1C380
E1C380
E1C380
E1C380
E1C380
E1C380
E1C380
E1C380
E1C380
E1C380
ENDCHAR
STARTCHAR 02A3
ENCODING 675
SWIDTH 960 0
DWIDTH 24 0
BBX 21 18 2 0
BITMAP
E30038
E38038
E38030
E1C070
E1C070
E0C060
E0E0E0
E0E0E0
E061C0
E071C0
E07180
E03380
E03B80
E03B00
E01F00
E01F00
E00E00
E00E00
ENDCHAR
STARTCHAR 02A4
ENCODING 676
SWIDTH 680 0
DWIDTH 17 0
BBX 15 18 1 0
BITMAP
E00E
E00E
600C
701C
701C
3018
3838
3838
1830
1C70
1C60
0CE0
0EE0
06C0
07C0
07C0
0380
0380
ENDCHAR
STARTCHAR 02A5
ENCODING 677
SWIDTH 960 0
DWIDTH 24 0
BBX 21 18 1 0
BITMAP
E00E38
E00E38
600C38
701C38
701C38
301838
383838
383838
183038
1C7038
1C6038
0CE038
0EE038
06C038
07C038
07C038
038038
038038
ENDCHAR
STARTCHAR 02A6
ENCODING 678
SWIDTH 1240 0
DWIDTH 31 0
BBX 28 18 1 0
BITMAP
E00E3870
E00E3870
600C3870
701C3870
701C3870
30183870
38383870
38383870
18303870
1C703870
1C603870
0CE03870
0EE03870
06C03870
07C03870
07C03870
03803870
03803870
ENDCHAR
STARTCHAR 02A7
ENCODING 679
SWIDTH 1520 0
DWIDTH 38 0
BBX 34 18 1 0
BITMAP
E00E3870C0
E00E3870C0
600C3870C0
701C3870C0
701C3870C0
30183870C0
38383870C0
38383870C0
18303870C0
1C703870C0
1C603870C0
0CE03870C0
0EE03870C0
06C03870C0
07C03870C0
07C03870C0
03803870C0
03803870C0
ENDCHAR
STARTCHAR 02A8
ENCODING 680
SWIDTH 960 0
DWIDTH 24 0
BBX 21 18 2 0
BITMAP
E38038
E1C070
E0E0E0
E0E0E0
E071C0
E03B80
E03B00
E01F00
E00E00
E01E00
E01F00
E03B80
E07180
E061C0
E0E0E0
E1C070
E38070
E38038
ENDCHAR
STARTCHAR 02A9
ENCODING 681
SWIDTH 680 0
DWIDTH 17 0
BBX 15 18 1 0
BITMAP
E00E
701C
3838
3838
1C70
0EE0
0EE0
07C0
0380
0780
07C0
0EE0
1C70
1870
3838
701C
601C
E00E
ENDCHAR
STARTCHAR 02AA
ENCODING 682
SWIDTH 960 0
DWIDTH 24 0
BBX 21 18 1 0
BITMAP
E00E38
701C38
383838
383838
1C7038
0EE038
0EE038
07C038
038038
078038
07C038
0EE038
1C7038
187038
383838
701C38
601C38
E00E38
ENDCHAR
STARTCHAR 02AB
ENCODING 683
SWIDTH 1240 0
DWIDTH 31 0
BBX 28 18 1 0
BITMAP
E00E3870
701C3870
38383870
38383870
1C703870
0EE03870
0EE03870
07C03870
03803870
07803870
07C03870
0EE03870
1C703870
18703870
38383870
701C3870
601C3870
E00E3870
ENDCHAR
STARTCHAR 02AC
ENCODING 684
SWIDTH 560 0
DWIDTH 14 0
BBX 11 18 2 0
BITMAP
C000
C000
C000
C000
C000
C000
C000
C000
C000
C000
C000
C000
C000
C000
C000
C000
FFE0
FFE0
ENDCHAR
STARTCHAR 02AD
ENCODING 685
SWIDTH 720 0
DWIDTH 18 0
BBX 16 18 1 0
BITMAP
07F0
1FF8
3C1C
300E
7007
6007
E000
E000
E000
E000
E000
E003
6007
7006
700E
3C1C
1FF8
07E0
ENDCHAR
STARTCHAR 02AE
ENCODING 686
SWIDTH 720 0
DWIDTH 18 0
BBX 15 18 2 0
BITMAP
FFC0
FFF0
C078
C01C
C01C
C00C
C00E
C00E
C00E
C00E
C00E
C00E
C00C
C01C
C018
C078
FFF0
FFC0
ENDCHAR
STARTCHAR 02AF
ENCODING 687
SWIDTH 840 0
DWIDTH 21 0
BBX 17 18 2 0
BITMAP
F00780
F00780
F00780
F80F80
D80D80
D80D80
DC1D80
CC1980
CC1980
CE3980
C63180
C63180
C77180
C36180
C36180
C3E180
C1C180
C1C180
ENDCHAR
STARTCHAR 02B0
ENCODING 688
SWIDTH 240 0
DWIDTH 6 0
BBX 2 18 2 0
BITMAP
C0
C0
00
00
00
C0
C0
C0
C0
C0
C0
C0
C0
C0
C0
C0
C0
C0
ENDCHAR
STARTCHAR 02B1
ENCODING 689
SWIDTH 440 0
DWIDTH 11 0
BBX 7 18 2 0
BITMAP
C6
C6
00
00
00
C6
C6
C6
C6
C6
C6
C6
C6
C6
C6
C6
C6
C6
ENDCHAR
STARTCHAR 02B2
ENCODING 690
SWIDTH 680 0
DWIDTH 17 0
BBX 13 18 2 0
BITMAP
C618
C618
0000
0000
0000
C618
C618
C618
C618
C618
C618
C618
C618
C618
C618
C618
C618
C618
ENDCHAR
STARTCHAR 02B3
ENCODING 691
SWIDTH 720 0
DWIDTH 18 0
BBX 16 18 2 0
BITMAP
C000
C000
0000
0000
0000
CC07
CE06
C60E
C60C
C70C
C31C
C318
C398
C1B8
C1B0
C0F0
C0E0
C0E0
ENDCHAR
STARTCHAR 02B4
ENCODING 692
SWIDTH 520 0
DWIDTH 13 0
BBX 12 13 0 0
BITMAP
E030
6070
7060
7060
30E0
38C0
18C0
1980
1980
0D80
0F00
0F00
0700
ENDCHAR
STARTCHAR 02B5
ENCODING 693
SWIDTH 720 0
DWIDTH 18 0
BBX 16 18 0 0
BITMAP
0003
0003
0000
0000
0000
E033
6073
7063
7063
30E3
38C3
18C3
1983
1983
0D83
0F03
0F03
0703
ENDCHAR
STARTCHAR 02B6
ENCODING 694
SWIDTH 960 0
DWIDTH 24 0
BBX 22 18 0 0
BITMAP
00030C
00030C
000000
000000
000000
E0330C
60730C
70630C
70630C
30E30C
38C30C
18C30C
19830C
19830C
0D830C
0F030C
0F030C
07030C
ENDCHAR
STARTCHAR 02B7
ENCODING 695
SWIDTH 1160 0
DWIDTH 29 0
BBX 27 18 0 0
BITMAP
00030C60
00030C60
00000000
00000000
00000000
E0330C60
60730C60
70630C60
70630C60
30E30C60
38C30C60
18C30C60
19830C60
19830C60
0D830C60
0F030C60
0F030C60
07030C60
ENDCHAR
STARTCHAR 02B8
ENCODING 696
SWIDTH 720 0
DWIDTH 18 0
BBX 15 18 2 0
BITMAP
C000
C000
0000
0000
0000
CE0E
C70C
C31C
C3B8
C1F0
C0F0
C0E0
C1F0
C1B8
C398
C71C
C60E
CE06
ENDCHAR
STARTCHAR 02B9
ENCODING 697
SWIDTH 520 0
DWIDTH 13 0
BBX 12 13 0 0
BITMAP
7070
70E0
38C0
1DC0
1F80
0F00
0700
0F00
1F80
19C0
38C0
70E0
E070
ENDCHAR
STARTCHAR 02BA
ENCODING 698
SWIDTH 720 0
DWIDTH 18 0
BBX 16 18 0 0
BITMAP
0003
0003
0000
0000
0000
7073
70E3
38C3
1DC3
1F83
0F03
0703
0F03
1F83
19C3
38C3
70E3
E073
ENDCHAR
STARTCHAR 02BB
ENCODING 699
SWIDTH 960 0
DWIDTH 24 0
BBX 22 18 0 0
BITMAP
00030C
00030C
000000
000000
000000
70730C
70E30C
38C30C
1DC30C
1F830C
0F030C
07030C
0F030C
1F830C
19C30C
38C30C
70E30C
E0730C
ENDCHAR
STARTCHAR 02BC
ENCODING 700
SWIDTH 240 0
DWIDTH 6 0
BBX 2 18 2 0
BITMAP
C0
C0
C0
C0
C0
C0
C0
C0
C0
C0
C0
C0
C0
C0
C0
C0
C0
C0
ENDCHAR
STARTCHAR 02BD
ENCODING 701
SWIDTH 520 0
DWIDTH 13 0
BBX 11 13 1 0
BITMAP
1F80
3FC0
70E0
E060
C000
C000
C000
C000
C060
E0E0
71C0
7F80
1F00
ENDCHAR
STARTCHAR 02BE
ENCODING 702
SWIDTH 560 0
DWIDTH 14 0
BBX 11 18 1 0
BITMAP
0060
0060
0060
0060
0060
1F60
3FE0
71E0
E060
C060
C060
C060
C060
C060
E0E0
71E0
7FE0
1E60
ENDCHAR
STARTCHAR 02BF
ENCODING 703
SWIDTH 840 0
DWIDTH 21 0
BBX 17 13 2 0
BITMAP
CF1E00
FFBF00
E1E380
C1C180
C1C180
C1C180
C1C180
C1C180
C1C180
C1C180
C1C180
C1C180
C1C180
ENDCHAR
STARTCHAR 02C0
ENCODING 704
SWIDTH 1240 0
DWIDTH 31 0
BBX 29 23 1 0
BITMAP
00001980
00000F00
00000F00
00000000
00000000
FFE0FFF8
FFF0FFF8
E0380038
E01C0070
E00C00E0
E00E01C0
E00E03C0
E0060380
E0060700
E0060E00
E0061C00
E00E1C00
E00E3800
E00C7000
E01CE000
E039C000
FFF1FFF8
FFC1FFF8
ENDCHAR
STARTCHAR 02C1
ENCODING 705
SWIDTH 1080 0
DWIDTH 27 0
BBX 26 18 1 0
BITMAP
FFC07300
FFF03600
C0781C00
C01C0000
C01C0000
C00CFFC0
C00EFFC0
C00E0380
C00E0700
C00E0600
C00E0E00
C00C1C00
C00C3800
C01C7000
C018E000
C078C000
FFF1FFC0
FFC1FFC0
ENDCHAR
STARTCHAR 02C2
ENCODING 706
SWIDTH 1000 0
DWIDTH 25 0
BBX 23 18 1 0
BITMAP
006198
0060D8
006070
006000
006000
1F67FE
3FE7FE
71E00C
E0601C
C06038
C06070
C060E0
C061C0
C06180
E0E380
71E700
7FEFFE
1E6FFE
ENDCHAR
STARTCHAR 02C3
ENCODING 707
SWIDTH 1000 0
DWIDTH 25 0
BBX 23 18 1 0
BITMAP
E0000E
E0000E
E0000E
E0000E
E0000E
E0000E
E0000E
E0000E
E0000E
E0000E
E0000E
E0000E
E0060E
E0060E
E0060E
E0071C
FFF3FC
FFF1F0
ENDCHAR
STARTCHAR 02C4
ENCODING 708
SWIDTH 720 0
DWIDTH 18 0
BBX 16 23 1 -5
BITMAP
E003
E003
E003
E000
E000
E003
E003
E003
E003
E003
E003
E003
E003
E003
E003
E003
FFF3
FFF3
0003
0003
0003
000F
000E
ENDCHAR
STARTCHAR 02C5
ENCODING 709
SWIDTH 360 0
DWIDTH 9 0
BBX 8 23 1 -5
BITMAP
C7
C7
C7
C0
C0
C7
C7
C7
C7
C7
C7
C7
C7
C7
C7
C7
C7
C7
07
07
07
1E
1C
ENDCHAR
STARTCHAR 02C6
ENCODING 710
SWIDTH 1120 0
DWIDTH 28 0
BBX 26 18 1 0
BITMAP
F00E01C0
F00E01C0
F80E01C0
F80E01C0
EC0E01C0
EE0E01C0
E60E01C0
E30E01C0
E30E01C0
E18E01C0
E1CE01C0
E0CE01C0
E06FC1C0
E06FC1C0
E03EC1C0
E03EE380
E01EFF80
E00E3E00
ENDCHAR
STARTCHAR 02C7
ENCODING 711
SWIDTH 880 0
DWIDTH 22 0
BBX 20 23 1 -5
BITMAP
E00E30
F00E30
F80E30
F80E00
EC0E00
EC0E30
E60E30
E30E30
E30E30
E18E30
E18E30
E0CE30
E06E30
E06E30
E03E30
E03E30
E01E30
E00E30
000030
000030
000030
0000F0
0000E0
ENDCHAR
STARTCHAR 02C8
ENCODING 712
SWIDTH 720 0
DWIDTH 18 0
BBX 16 23 1 -5
BITMAP
0003
0003
0003
0000
0000
CF83
DFC3
F1C3
E0E3
C0E3
C0E3
C0E3
C0E3
C0E3
C0E3
C0E3
C0E3
C0E3
0003
0003
0003
000F
000E
ENDCHAR
STARTCHAR 02C9
ENCODING 713
SWIDTH 680 0
DWIDTH 17 0
BBX 15 22 1 0
BITMAP
0660
06C0
0380
0000
0380
0380
07C0
06C0
0EC0
0EE0
0C60
1C70
1870
1830
3838
3FF8
7FF8
701C
601C
E00C
C00E
C006
ENDCHAR
STARTCHAR 02CA
ENCODING 714
SWIDTH 560 0
DWIDTH 14 0
BBX 12 18 1 0
BITMAP
18C0
0D80
0700
0000
0000
1F80
7FC0
70E0
6060
0060
0FE0
7F60
F060
C060
C0E0
E1E0
7F70
3E70
ENDCHAR
STARTCHAR 02CB
ENCODING 715
SWIDTH 280 0
DWIDTH 7 0
BBX 6 23 1 0
BITMAP
CC
78
78
00
00
70
70
70
70
70
70
70
70
70
70
70
70
70
70
70
70
70
70
ENDCHAR
STARTCHAR 02CC
ENCODING 716
SWIDTH 280 0
DWIDTH 7 0
BBX 7 18 0 0
BITMAP
C6
6C
38
00
00
38
38
38
38
38
38
38
38
38
38
38
38
38
ENDCHAR
STARTCHAR 02CD
ENCODING 717
SWIDTH 760 0
DWIDTH 19 0
BBX 17 23 1 0
BITMAP
033000
01E000
01E000
000000
000000
07F000
1FFC00
3C1E00
380700
700380
600380
E00180
E00180
C00180
C00180
E00180
E00180
E00380
700300
700700
3C0E00
1FFC00
07F000
ENDCHAR
STARTCHAR 02CE
ENCODING 718
SWIDTH 560 0
DWIDTH 14 0
BBX 12 18 1 0
BITMAP
1980
0D80
0700
0000
0000
1F80
3FC0
70E0
E060
C070
C030
C030
C070
C070
E060
70E0
7FC0
1F80
ENDCHAR
STARTCHAR 02CF
ENCODING 719
SWIDTH 720 0
DWIDTH 18 0
BBX 14 22 2 0
BITMAP
0C60
06C0
0380
0000
E00C
E00C
E00C
E00C
E00C
E00C
E00C
E00C
E00C
E00C
E00C
E00C
E00C
E01C
7018
7878
3FF0
0FC0
ENDCHAR
STARTCHAR 02D0
ENCODING 720
SWIDTH 560 0
DWIDTH 14 0
BBX 10 17 2 0
BITMAP
3380
1B00
0E00
0000
C0C0
C0C0
C0C0
C0C0
C0C0
C0C0
C0C0
C0C0
C0C0
C1C0
E3C0
FEC0
7CC0
ENDCHAR
STARTCHAR 02D1
ENCODING 721
SWIDTH 720 0
DWIDTH 18 0
BBX 14 24 2 0
BITMAP
1FE0
0000
0EE0
0EE0
0EE0
0000
E00C
E00C
E00C
E00C
E00C
E00C
E00C
E00C
E00C
E00C
E00C
E00C
E00C
E01C
7018
7878
3FF0
0FC0
ENDCHAR
STARTCHAR 02D2
ENCODING 722
SWIDTH 560 0
DWIDTH 14 0
BBX 10 19 2 0
BITMAP
7F80
0000
3300
3300
3300
0000
C0C0
C0C0
C0C0
C0C0
C0C0
C0C0
C0C0
C0C0
C0C0
C1C0
E3C0
FEC0
7CC0
ENDCHAR
STARTCHAR 02D3
ENCODING 723
SWIDTH 720 0
DWIDTH 18 0
BBX 14 26 2 0
BITMAP
00C0
0180
0300
0000
0EE0
0EE0
0EE0
0000
E00C
E00C
E00C
E00C
E00C
E00C
E00C
E00C
E00C
E00C
E00C
E00C
E00C
E01C
7018
7878
3FF0
0FC0
ENDCHAR
STARTCHAR 02D4
ENCODING 724
SWIDTH 560 0
DWIDTH 14 0
BBX 10 21 2 0
BITMAP
0700
0600
0C00
0000
3300
3300
3300
0000
C0C0
C0C0
C0C0
C0C0
C0C0
C0C0
C0C0
C0C0
C0C0
C1C0
E3C0
FEC0
7CC0
ENDCHAR
STARTCHAR 02D5
ENCODING 725
SWIDTH 720 0
DWIDTH 18 0
BBX 14 25 2 0
BITMAP
0CC0
06C0
0380
0CC0
0CC0
0CC0
0000
E00C
E00C
E00C
E00C
E00C
E00C
E00C
E00C
E00C
E00C
E00C
E00C
E00C
E01C
7018
7878
3FF0
0FC0
ENDCHAR
STARTCHAR 02D6
ENCODING 726
SWIDTH 560 0
DWIDTH 14 0
BBX 10 20 2 0
BITMAP
3300
3600
1C00
3300
3300
3300
0000
C0C0
C0C0
C0C0
C0C0
C0C0
C0C0
C0C0
C0C0
C0C0
C1C0
E3C0
FEC0
7CC0
ENDCHAR
STARTCHAR 02D7
ENCODING 727
SWIDTH 720 0
DWIDTH 18 0
BBX 14 25 2 0
BITMAP
0C00
0600
0300
0000
0CC0
0CC0
0CC0
E00C
E00C
E00C
E00C
E00C
E00C
E00C
E00C
E00C
E00C
E00C
E00C
E00C
E01C
7018
7878
3FF0
0FC0
ENDCHAR
STARTCHAR 02D8
ENCODING 728
SWIDTH 560 0
DWIDTH 14 0
BBX 10 20 2 0
BITMAP
3000
1800
0C00
3300
3300
3300
0000
C0C0
C0C0
C0C0
C0C0
C0C0
C0C0
C0C0
C0C0
C0C0
C1C0
E3C0
FEC0
7CC0
ENDCHAR
STARTCHAR 02D9
ENCODING 729
SWIDTH 680 0
DWIDTH 17 0
BBX 15 24 1 0
BITMAP
1FE0
0000
0EE0
0EE0
0EE0
0000
0380
0380
07C0
06C0
0EC0
0EE0
0C60
1C70
1870
1830
3838
3FF8
7FF8
701C
601C
E00C
C00E
C006
ENDCHAR
STARTCHAR 02DA
ENCODING 730
SWIDTH 560 0
DWIDTH 14 0
BBX 12 20 1 0
BITMAP
3F80
0000
3B80
3B80
3B80
0000
0000
1F80
7FC0
70E0
6060
0060
0FE0
7F60
F060
C060
C0E0
E1E0
7F70
3E70
ENDCHAR
STARTCHAR 02DB
ENCODING 731
SWIDTH 680 0
DWIDTH 17 0
BBX 15 24 1 0
BITMAP
1FE0
0000
0380
0380
0380
0000
0380
0380
07C0
06C0
0EC0
0EE0
0C60
1C70
1870
1830
3838
3FF8
7FF8
701C
601C
E00C
C00E
C006
ENDCHAR
STARTCHAR 02DC
ENCODING 732
SWIDTH 560 0
DWIDTH 14 0
BBX 12 20 1 0
BITMAP
3F80
0000
0E00
0E00
0E00
0000
0000
1F80
7FC0
70E0
6060
0060
0FE0
7F60
F060
C060
C0E0
E1E0
7F70
3E70
ENDCHAR
STARTCHAR 02DD
ENCODING 733
SWIDTH 1000 0
DWIDTH 25 0
BBX 24 21 0 0
BITMAP
001FE0
000000
000000
01FFFF
01FFFF
039C00
031C00
031C00
071C00
061C00
0E1C00
0E1FFE
0C1FFE
1C1C00
1FFC00
3FFC00
381C00
301C00
701C00
601FFF
E01FFF
ENDCHAR
STARTCHAR 02DE
ENCODING 734
SWIDTH 880 0
DWIDTH 22 0
BBX 20 16 1 0
BITMAP
03FC00
000000
000000
1F0F80
7FDFE0
60F0E0
E06070
00E030
1FFFF0
7F7FF0
E06000
C0E030
C0E070
E3B0E0
7F3FC0
3E0F80
ENDCHAR
STARTCHAR 02DF
ENCODING 735
SWIDTH 760 0
DWIDTH 19 0
BBX 17 23 1 0
BITMAP
063000
036000
01C000
000000
000000
03F000
0FFC00
1C1E00
380700
700700
600300
E00000
E00000
E00000
E07F80
E07F80
E00380
600380
700380
700780
3C1F80
1FF980
07F180
ENDCHAR
STARTCHAR 02E0
ENCODING 736
SWIDTH 560 0
DWIDTH 14 0
BBX 11 23 1 -5
BITMAP
3180
1B00
0E00
0000
0000
1E60
3FE0
71E0
E0E0
C060
C060
C060
C060
C060
E0E0
F1E0
7FE0
1E60
0060
E060
E0C0
7FC0
1F00
ENDCHAR
STARTCHAR 02E1
ENCODING 737
SWIDTH 680 0
DWIDTH 17 0
BBX 14 22 2 0
BITMAP
18C0
0D80
0700
0000
C03C
C078
C0F0
C1E0
C3C0
C780
CF00
DE00
FF00
FB00
F380
E1C0
C0E0
C0E0
C070
C038
C03C
C01C
ENDCHAR
STARTCHAR 02E2
ENCODING 738
SWIDTH 520 0
DWIDTH 13 0
BBX 10 22 2 0
BITMAP
3300
3600
1C00
0000
C000
C000
C000
C000
C000
C1C0
C380
C700
CE00
D800
FC00
EC00
CE00
C600
C700
C380
C180
C1C0
ENDCHAR
STARTCHAR 02E3
ENCODING 739
SWIDTH 760 0
DWIDTH 19 0
BBX 17 23 1 -5
BITMAP
07F000
1FFC00
3C1E00
380700
700380
600380
E00180
E00180
C00180
C00180
E00180
E00180
E00380
700300
700700
3C0E00
1FFC00
07F000
018000
030000
030000
03C000
03C000
ENDCHAR
STARTCHAR 02E4
ENCODING 740
SWIDTH 560 0
DWIDTH 14 0
BBX 12 18 1 -5
BITMAP
1F80
3FC0
70E0
E060
C070
C030
C030
C070
C070
E060
70E0
7FC0
1F80
0C00
1800
1800
1E00
1E00
ENDCHAR
STARTCHAR 02E5
ENCODING 741
SWIDTH 760 0
DWIDTH 19 0
BBX 17 26 1 -5
BITMAP
0FF000
000000
000000
07F000
1FFC00
3C1E00
380700
700380
600380
E00180
E00180
C00180
C00180
E00180
E00180
E00380
700300
700700
3C0E00
1FFC00
07F000
018000
030000
030000
03C000
03C000
ENDCHAR
STARTCHAR 02E6
ENCODING 742
SWIDTH 560 0
DWIDTH 14 0
BBX 12 21 1 -5
BITMAP
3F80
0000
0000
1F80
3FC0
70E0
E060
C070
C030
C030
C070
C070
E060
70E0
7FC0
1F80
0C00
1800
1800
1E00
1E00
ENDCHAR
STARTCHAR 02E7
ENCODING 743
SWIDTH 240 0
DWIDTH 6 0
BBX 6 23 0 -5
BITMAP
CC
D8
70
00
00
30
30
30
30
30
30
30
30
30
30
30
30
30
30
30
70
F0
E0
ENDCHAR
STARTCHAR 02E8
ENCODING 744
SWIDTH 1240 0
DWIDTH 31 0
BBX 29 18 1 0
BITMAP
FFC0FFF8
FFF0FFF8
C0780070
C01C0070
C01C00E0
C00C01C0
C00E0380
C00E0780
C00E0700
C00E0E00
C00E1C00
C00E3800
C00C3800
C01C7000
C018E000
C079C000
FFF1FFF8
FFC1FFF8
ENDCHAR
STARTCHAR 02E9
ENCODING 745
SWIDTH 1120 0
DWIDTH 28 0
BBX 26 18 1 0
BITMAP
FFE00000
FFF00000
E0380000
E01C0000
E00C0000
E00EFFC0
E00EFFC0
E00601C0
E0060380
E0060700
E0060E00
E00E1C00
E00E1800
E00C3800
E01C7000
E038E000
FFF1FFC0
FFC1FFC0
ENDCHAR
STARTCHAR 02EA
ENCODING 746
SWIDTH 1000 0
DWIDTH 25 0
BBX 23 18 1 0
BITMAP
006000
006000
006000
006000
006000
1F67FE
3FE7FE
71E01C
E06018
C06038
C06070
C060E0
C061C0
C06380
E0E300
71E700
7FEFFE
1E6FFE
ENDCHAR
STARTCHAR 02EB
ENCODING 747
SWIDTH 760 0
DWIDTH 19 0
BBX 17 23 1 0
BITMAP
00E000
01C000
018000
000000
000000
03F000
0FFC00
1C1E00
380700
700700
600300
E00000
E00000
E00000
E07F80
E07F80
E00380
600380
700380
700780
3C1F80
1FF980
07F180
ENDCHAR
STARTCHAR 02EC
ENCODING 748
SWIDTH 720 0
DWIDTH 18 0
BBX 14 22 2 0
BITMAP
0E00
0700
0300
0000
E00C
F00C
F00C
D80C
D80C
CC0C
C60C
C60C
C30C
C30C
C18C
C0CC
C0CC
C06C
C06C
C03C
C01C
C01C
ENDCHAR
STARTCHAR 02ED
ENCODING 749
SWIDTH 560 0
DWIDTH 14 0
BBX 10 18 2 0
BITMAP
3800
0C00
0600
0000
0000
CF00
FFC0
E1C0
C0C0
C0C0
C0C0
C0C0
C0C0
C0C0
C0C0
C0C0
C0C0
C0C0
ENDCHAR
STARTCHAR 02EE
ENCODING 750
SWIDTH 680 0
DWIDTH 17 0
BBX 15 28 1 0
BITMAP
00E0
00C0
0180
0000
0380
0440
0440
0440
0380
0000
0380
0380
07C0
06C0
0EC0
0EE0
0C60
1C70
1870
1830
3838
3FF8
7FF8
701C
601C
E00C
C00E
C006
ENDCHAR
STARTCHAR 02EF
ENCODING 751
SWIDTH 560 0
DWIDTH 14 0
BBX 12 23 1 0
BITMAP
0380
0300
0600
0000
0E00
0900
1100
0900
0E00
0000
1F80
7FC0
70E0
6060
0060
0FE0
7F60
F060
C060
C0E0
E1E0
7F70
3E70
ENDCHAR
STARTCHAR 02F0
ENCODING 752
SWIDTH 1000 0
DWIDTH 25 0
BBX 24 22 0 0
BITMAP
000180
000300
000600
000000
01FFFF
01FFFF
039C00
031C00
031C00
071C00
061C00
0E1C00
0E1FFE
0C1FFE
1C1C00
1FFC00
3FFC00
381C00
301C00
701C00
601FFF
E01FFF
ENDCHAR
STARTCHAR 02F1
ENCODING 753
SWIDTH 880 0
DWIDTH 22 0
BBX 20 18 1 0
BITMAP
003000
006000
00C000
000000
000000
1F0F80
7FDFE0
60F0E0
E06070
00E030
1FFFF0
7F7FF0
E06000
C0E030
C0E070
E3B0E0
7F3FC0
3E0F80
ENDCHAR
STARTCHAR 02F2
ENCODING 754
SWIDTH 760 0
DWIDTH 19 0
BBX 17 23 1 0
BITMAP
00E000
00C000
018000
000000
000000
07F080
1FFD80
3C1F00
380700
700F80
601B80
E03180
E06180
C0C180
C18180
E10180
E20180
E40380
780300
780700
3C1E00
5FFC00
87F000
ENDCHAR
STARTCHAR 02F3
ENCODING 755
SWIDTH 600 0
DWIDTH 15 0
BBX 13 18 1 0
BITMAP
0380
0300
0600
0000
0000
0F88
3FF0
3870
7070
60B0
E138
E238
E438
6830
7070
70E0
7FE0
8F80
ENDCHAR
STARTCHAR 02F4
ENCODING 756
SWIDTH 680 0
DWIDTH 17 0
BBX 15 23 1 0
BITMAP
3B80
1980
0CC0
0CC0
0000
0380
0380
07C0
06C0
0EC0
0EE0
0C60
1C70
1870
1830
3838
3FF8
7FF8
701C
601C
E00C
C00E
C006
ENDCHAR
STARTCHAR 02F5
ENCODING 757
SWIDTH 560 0
DWIDTH 14 0
BBX 12 19 1 0
BITMAP
6700
3300
3300
1980
0000
0000
1F80
7FC0
70E0
6060
0060
0FE0
7F60
F060
C060
C0E0
E1E0
7F70
3E70
ENDCHAR
STARTCHAR 02F6
ENCODING 758
SWIDTH 680 0
DWIDTH 17 0
BBX 15 22 1 0
BITMAP
07C0
0C60
0820
0000
0380
0380
07C0
06C0
0EC0
0EE0
0C60
1C70
1870
1830
3838
3FF8
7FF8
701C
601C
E00C
C00E
C006
ENDCHAR
STARTCHAR 02F7
ENCODING 759
SWIDTH 560 0
DWIDTH 14 0
BBX 12 18 1 0
BITMAP
1F00
3180
2080
0000
0000
1F80
7FC0
70E0
6060
0060
0FE0
7F60
F060
C060
C0E0
E1E0
7F70
3E70
ENDCHAR
STARTCHAR 02F8
ENCODING 760
SWIDTH 680 0
DWIDTH 17 0
BBX 13 23 2 0
BITMAP
3B80
1980
1880
0CC0
0000
FFF8
FFF8
E000
E000
E000
E000
E000
E000
FFF0
FFF0
E000
E000
E000
E000
E000
E000
FFF8
FFF8
ENDCHAR
STARTCHAR 02F9
ENCODING 761
SWIDTH 560 0
DWIDTH 14 0
BBX 12 19 1 0
BITMAP
7700
3300
1980
1980
0000
0000
1F80
3FC0
70E0
E060
C070
FFF0
FFF0
C000
C070
E060
70E0
3FC0
1F00
ENDCHAR
STARTCHAR 02FA
ENCODING 762
SWIDTH 680 0
DWIDTH 17 0
BBX 13 22 2 0
BITMAP
0F80
18C0
1060
0000
FFF8
FFF8
E000
E000
E000
E000
E000
E000
FFF0
FFF0
E000
E000
E000
E000
E000
E000
FFF8
FFF8
ENDCHAR
STARTCHAR 02FB
ENCODING 763
SWIDTH 560 0
DWIDTH 14 0
BBX 12 18 1 0
BITMAP
0F80
10C0
3040
0000
0000
1F80
3FC0
70E0
E060
C070
FFF0
FFF0
C000
C070
E060
70E0
3FC0
1F00
ENDCHAR
STARTCHAR 02FC
ENCODING 764
SWIDTH 280 0
DWIDTH 7 0
BBX 7 23 -1 0
BITMAP
CC
EE
66
22
00
1C
1C
1C
1C
1C
1C
1C
1C
1C
1C
1C
1C
1C
1C
1C
1C
1C
1C
ENDCHAR
STARTCHAR 02FD
ENCODING 765
SWIDTH 240 0
DWIDTH 6 0
BBX 8 19 -2 0
BITMAP
CC
66
66
33
00
00
0C
0C
0C
0C
0C
0C
0C
0C
0C
0C
0C
0C
0C
ENDCHAR
STARTCHAR 02FE
ENCODING 766
SWIDTH 280 0
DWIDTH 7 0
BBX 8 22 0 0
BITMAP
7C
C6
83
00
38
38
38
38
38
38
38
38
38
38
38
38
38
38
38
38
38
38
ENDCHAR
STARTCHAR 02FF
ENCODING 767
SWIDTH 240 0
DWIDTH 6 0
BBX 8 18 -1 0
BITMAP
3C
C2
83
00
00
18
18
18
18
18
18
18
18
18
18
18
18
18
ENDCHAR
STARTCHAR 0300
ENCODING 768
SWIDTH 760 0
DWIDTH 19 0
BBX 17 24 1 0
BITMAP
0CC000
0EE000
066000
023000
000000
000000
07F000
1FFC00
3C1E00
380700
700380
600380
E00180
E00180
C00180
C00180
E00180
E00180
E00380
700300
700700
3C0E00
1FFC00
07F000
ENDCHAR
STARTCHAR 0301
ENCODING 769
SWIDTH 560 0
DWIDTH 14 0
BBX 12 19 1 0
BITMAP
7700
3300
3180
1980
0000
0000
1F80
3FC0
70E0
E060
C070
C030
C030
C070
C070
E060
70E0
7FC0
1F80
ENDCHAR
STARTCHAR 0302
ENCODING 770
SWIDTH 760 0
DWIDTH 19 0
BBX 17 23 1 0
BITMAP
03E000
063000
041000
000000
000000
07F000
1FFC00
3C1E00
380700
700380
600380
E00180
E00180
C00180
C00180
E00180
E00180
E00380
700300
700700
3C0E00
1FFC00
07F000
ENDCHAR
STARTCHAR 0303
ENCODING 771
SWIDTH 560 0
DWIDTH 14 0
BBX 12 18 1 0
BITMAP
0F00
3080
20C0
0000
0000
1F80
3FC0
70E0
E060
C070
C030
C030
C070
C070
E060
70E0
7FC0
1F80
ENDCHAR
STARTCHAR 0304
ENCODING 772
SWIDTH 720 0
DWIDTH 18 0
BBX 15 23 2 0
BITMAP
3B80
1980
18C0
0CC0
0000
FFF0
FFF8
E01C
E00C
E00C
E00C
E00C
E01C
FFF8
FFF8
E01C
E01C
E00C
E00C
E00C
E00C
E00C
E00E
ENDCHAR
STARTCHAR 0305
ENCODING 773
SWIDTH 320 0
DWIDTH 8 0
BBX 8 19 0 0
BITMAP
CC
E6
66
33
00
00
37
3F
38
30
30
30
30
30
30
30
30
30
30
ENDCHAR
STARTCHAR 0306
ENCODING 774
SWIDTH 720 0
DWIDTH 18 0
BBX 15 22 2 0
BITMAP
0F80
18C0
1040
0000
FFF0
FFF8
E01C
E00C
E00C
E00C
E00C
E01C
FFF8
FFF8
E01C
E01C
E00C
E00C
E00C
E00C
E00C
E00E
ENDCHAR
STARTCHAR 0307
ENCODING 775
SWIDTH 320 0
DWIDTH 8 0
BBX 8 18 1 0
BITMAP
3C
C2
83
00
00
6E
7E
70
60
60
60
60
60
60
60
60
60
60
ENDCHAR
STARTCHAR 0308
ENCODING 776
SWIDTH 720 0
DWIDTH 18 0
BBX 14 23 2 0
BITMAP
3980
1980
0CC0
0440
0000
E00C
E00C
E00C
E00C
E00C
E00C
E00C
E00C
E00C
E00C
E00C
E00C
E00C
E01C
7018
7878
3FF0
0FC0
ENDCHAR
STARTCHAR 0309
ENCODING 777
SWIDTH 560 0
DWIDTH 14 0
BBX 10 19 2 0
BITMAP
EE00
6600
2300
3300
0000
0000
C0C0
C0C0
C0C0
C0C0
C0C0
C0C0
C0C0
C0C0
C0C0
C1C0
E3C0
FEC0
7CC0
ENDCHAR
STARTCHAR 030A
ENCODING 778
SWIDTH 720 0
DWIDTH 18 0
BBX 14 22 2 0
BITMAP
07C0
0860
1820
0000
E00C
E00C
E00C
E00C
E00C
E00C
E00C
E00C
E00C
E00C
E00C
E00C
E00C
E01C
7018
7878
3FF0
0FC0
ENDCHAR
STARTCHAR 030B
ENCODING 779
SWIDTH 560 0
DWIDTH 14 0
BBX 10 18 2 0
BITMAP
1E00
6100
4180
0000
0000
C0C0
C0C0
C0C0
C0C0
C0C0
C0C0
C0C0
C0C0
C0C0
C1C0
E3C0
FEC0
7CC0
ENDCHAR
STARTCHAR 030C
ENCODING 780
SWIDTH 720 0
DWIDTH 18 0
BBX 14 22 2 0
BITMAP
0CE0
06C0
0380
0000
C00C
C00C
C00C
C00C
C00C
C00C
C00C
FFFC
FFFC
C00C
C00C
C00C
C00C
C00C
C00C
C00C
C00C
C00C
ENDCHAR
STARTCHAR 030D
ENCODING 781
SWIDTH 560 0
DWIDTH 14 0
BBX 10 22 2 0
BITMAP
3300
1B00
0E00
0000
C000
C000
C000
C000
C000
CF00
FF80
E1C0
C0C0
C0C0
C0C0
C0C0
C0C0
C0C0
C0C0
C0C0
C0C0
C0C0
ENDCHAR
STARTCHAR 030E
ENCODING 782
SWIDTH 680 0
DWIDTH 17 0
BBX 15 22 1 0
BITMAP
0380
0380
0380
0000
0380
0380
07C0
06C0
0EC0
0EE0
0C60
1C70
1870
1830
3838
3FF8
7FF8
701C
601C
E00C
C00E
C006
ENDCHAR
STARTCHAR 030F
ENCODING 783
SWIDTH 560 0
DWIDTH 14 0
BBX 12 18 1 0
BITMAP
0600
0600
0600
0000
0000
1F80
7FC0
70E0
6060
0060
0FE0
7F60
F060
C060
C0E0
E1E0
7F70
3E70
ENDCHAR
STARTCHAR 0310
ENCODING 784
SWIDTH 680 0
DWIDTH 17 0
BBX 13 24 2 -6
BITMAP
FFF8
FFF8
E000
E000
E000
E000
E000
E000
FFF0
FFF0
E000
E000
E000
E000
E000
E000
FFF8
FFF8
0100
0200
0780
00C0
00C0
0F80
ENDCHAR
STARTCHAR 0311
ENCODING 785
SWIDTH 560 0
DWIDTH 14 0
BBX 12 19 1 -6
BITMAP
1F80
3FC0
70E0
E060
C070
FFF0
FFF0
C000
C070
E060
70E0
3FC0
1F00
0200
0400
0700
0180
0180
0F00
ENDCHAR
STARTCHAR 0312
ENCODING 786
SWIDTH 760 0
DWIDTH 19 0
BBX 17 27 1 0
BITMAP
07F800
000000
000000
000000
033000
033000
033000
000000
000000
07F000
1FFC00
3C1E00
380700
700380
600380
E00180
E00180
C00180
C00180
E00180
E00180
E00380
700300
700700
3C0E00
1FFC00
07F000
ENDCHAR
STARTCHAR 0313
ENCODING 787
SWIDTH 560 0
DWIDTH 14 0
BBX 12 20 1 0
BITMAP
3FC0
0000
1980
1980
1980
0000
0000
1F80
3FC0
70E0
E060
C070
C030
C030
C070
C070
E060
70E0
7FC0
1F80
ENDCHAR
STARTCHAR 0314
ENCODING 788
SWIDTH 760 0
DWIDTH 19 0
BBX 17 25 1 0
BITMAP
07F000
000000
000000
038800
07F800
04F000
000000
07F000
1FFC00
3C1E00
380700
700380
600380
E00180
E00180
C00180
C00180
E00180
E00180
E00380
700300
700700
3C0E00
1FFC00
07F000
ENDCHAR
STARTCHAR 0315
ENCODING 789
SWIDTH 560 0
DWIDTH 14 0
BBX 12 20 1 0
BITMAP
3FC0
0000
1C40
3FC0
2380
0000
0000
1F80
3FC0
70E0
E060
C070
C030
C030
C070
C070
E060
70E0
7FC0
1F80
ENDCHAR
STARTCHAR 0316
ENCODING 790
SWIDTH 760 0
DWIDTH 19 0
BBX 17 23 1 0
BITMAP
01C000
01C000
01C000
000000
000000
07F000
1FFC00
3C1E00
380700
700380
600380
E00180
E00180
C00180
C00180
E00180
E00180
E00380
700300
700700
3C0E00
1FFC00
07F000
ENDCHAR
STARTCHAR 0317
ENCODING 791
SWIDTH 560 0
DWIDTH 14 0
BBX 12 18 1 0
BITMAP
0600
0600
0600
0000
0000
1F80
3FC0
70E0
E060
C070
C030
C030
C070
C070
E060
70E0
7FC0
1F80
ENDCHAR
STARTCHAR 0318
ENCODING 792
SWIDTH 760 0
DWIDTH 19 0
BBX 17 25 1 0
BITMAP
07F000
000000
01C000
01C000
01C000
000000
000000
07F000
1FFC00
3C1E00
380700
700380
600380
E00180
E00180
C00180
C00180
E00180
E00180
E00380
700300
700700
3C0E00
1FFC00
07F000
ENDCHAR
STARTCHAR 0319
ENCODING 793
SWIDTH 560 0
DWIDTH 14 0
BBX 12 19 1 0
BITMAP
3FC0
0600
0600
0600
0000
0000
1F80
3FC0
70E0
E060
C070
C030
C030
C070
C070
E060
70E0
7FC0
1F80
ENDCHAR
STARTCHAR 031A
ENCODING 794
SWIDTH 680 0
DWIDTH 17 0
BBX 15 20 1 0
BITMAP
0FF0
0000
E00E
E00E
701C
3018
3838
1C70
1C70
0EE0
06C0
07C0
0380
0380
0380
0380
0380
0380
0380
0380
ENDCHAR
STARTCHAR 031B
ENCODING 795
SWIDTH 520 0
DWIDTH 13 0
BBX 12 21 0 -5
BITMAP
1FC0
0000
0000
E030
6070
7060
7060
30E0
38C0
38C0
19C0
1D80
1D80
0F00
0F00
0700
0600
0600
0C00
7C00
7800
ENDCHAR
STARTCHAR 031C
ENCODING 796
SWIDTH 320 0
DWIDTH 8 0
BBX 7 6 1 12
BITMAP
EE
EE
66
46
44
88
ENDCHAR
STARTCHAR 031D
ENCODING 797
SWIDTH 280 0
DWIDTH 7 0
BBX 3 18 2 0
BITMAP
E0
E0
E0
E0
E0
E0
E0
E0
E0
E0
E0
E0
E0
E0
E0
E0
E0
E0
ENDCHAR
STARTCHAR 031E
ENCODING 798
SWIDTH 680 0
DWIDTH 17 0
BBX 15 24 1 -6
BITMAP
0380
0380
07C0
06C0
0EC0
0EE0
0C60
1C70
1870
1830
3838
3FF8
7FF8
701C
601C
E00C
C00E
C006
0000
0380
04C0
0440
04C0
0380
ENDCHAR
STARTCHAR 031F
ENCODING 799
SWIDTH 560 0
DWIDTH 14 0
BBX 12 20 1 -7
BITMAP
1F80
7FC0
70E0
6060
0060
0FE0
7F60
F060
C060
C0E0
E1E0
7F70
3E70
0000
0000
0E00
0900
1100
0900
0E00
ENDCHAR
STARTCHAR 0320
ENCODING 800
SWIDTH 680 0
DWIDTH 17 0
BBX 14 23 2 0
BITMAP
0600
0600
0600
0000
0000
FFC0
FFF0
C070
C038
C038
C038
C030
C070
FFE0
FFF0
C038
C018
C01C
C01C
C018
C038
FFF0
FFE0
ENDCHAR
STARTCHAR 0321
ENCODING 801
SWIDTH 560 0
DWIDTH 14 0
BBX 12 22 1 0
BITMAP
0600
0600
0600
0000
E000
E000
E000
E000
E000
EF80
FFC0
F0E0
E070
E070
C030
C030
E030
E070
E060
F0E0
DFC0
CF80
ENDCHAR
STARTCHAR 0322
ENCODING 802
SWIDTH 680 0
DWIDTH 17 0
BBX 14 22 2 -4
BITMAP
FFC0
FFF0
C070
C038
C038
C038
C030
C070
FFE0
FFF0
C038
C018
C01C
C01C
C018
C038
FFF0
FFE0
0000
0600
0600
0600
ENDCHAR
STARTCHAR 0323
ENCODING 803
SWIDTH 560 0
DWIDTH 14 0
BBX 12 22 1 -4
BITMAP
E000
E000
E000
E000
E000
EF80
FFC0
F0E0
E070
E070
C030
C030
E030
E070
E060
F0E0
DFC0
CF80
0000
0600
0600
0600
ENDCHAR
STARTCHAR 0324
ENCODING 804
SWIDTH 680 0
DWIDTH 17 0
BBX 14 20 2 -2
BITMAP
FFC0
FFF0
C070
C038
C038
C038
C030
C070
FFE0
FFF0
C038
C018
C01C
C01C
C018
C038
FFF0
FFE0
0000
3FC0
ENDCHAR
STARTCHAR 0325
ENCODING 805
SWIDTH 560 0
DWIDTH 14 0
BBX 12 21 1 -3
BITMAP
E000
E000
E000
E000
E000
EF80
FFC0
F0E0
E070
E070
C030
C030
E030
E070
E060
F0E0
DFC0
CF80
0000
0000
3FC0
ENDCHAR
STARTCHAR 0326
ENCODING 806
SWIDTH 720 0
DWIDTH 18 0
BBX 16 28 1 -5
BITMAP
01C0
0180
0300
0000
0000
07F0
1FF8
3C1C
300E
7007
6007
E000
E000
E000
E000
E000
E003
6007
7006
700E
3C1C
1FF8
07E0
0100
03C0
00C0
00C0
07C0
ENDCHAR
STARTCHAR 0327
ENCODING 807
SWIDTH 520 0
DWIDTH 13 0
BBX 11 23 1 -5
BITMAP
0700
0600
0C00
0000
0000
1F80
3FC0
70E0
E060
C000
C000
C000
C000
C060
E0E0
71C0
7F80
3F00
0800
1E00
0300
0300
1E00
ENDCHAR
STARTCHAR 0328
ENCODING 808
SWIDTH 720 0
DWIDTH 18 0
BBX 15 23 2 0
BITMAP
0E00
0E00
0E00
0000
0000
FFC0
FFF0
C078
C01C
C01C
C00C
C00E
C00E
C00E
C00E
C00E
C00E
C00C
C01C
C018
C078
FFF0
FFC0
ENDCHAR
STARTCHAR 0329
ENCODING 809
SWIDTH 560 0
DWIDTH 14 0
BBX 11 22 1 0
BITMAP
0600
0600
0600
0000
0060
0060
0060
0060
0060
1F60
3FE0
71E0
E060
C060
C060
C060
C060
C060
E0E0
71E0
7FE0
1E60
ENDCHAR
STARTCHAR 032A
ENCODING 810
SWIDTH 720 0
DWIDTH 18 0
BBX 15 22 2 -4
BITMAP
FFC0
FFF0
C078
C01C
C01C
C00C
C00E
C00E
C00E
C00E
C00E
C00E
C00C
C01C
C018
C078
FFF0
FFC0
0000
0600
0600
0600
ENDCHAR
STARTCHAR 032B
ENCODING 811
SWIDTH 560 0
DWIDTH 14 0
BBX 11 22 1 -4
BITMAP
0060
0060
0060
0060
0060
1F60
3FE0
71E0
E060
C060
C060
C060
C060
C060
E0E0
71E0
7FE0
1E60
0000
0E00
0E00
0E00
ENDCHAR
STARTCHAR 032C
ENCODING 812
SWIDTH 720 0
DWIDTH 18 0
BBX 15 21 2 -3
BITMAP
FFC0
FFF0
C078
C01C
C01C
C00C
C00E
C00E
C00E
C00E
C00E
C00E
C00C
C01C
C018
C078
FFF0
FFC0
0000
0000
3FC0
ENDCHAR
STARTCHAR 032D
ENCODING 813
SWIDTH 560 0
DWIDTH 14 0
BBX 11 21 1 -3
BITMAP
0060
0060
0060
0060
0060
1F60
3FE0
71E0
E060
C060
C060
C060
C060
C060
E0E0
71E0
7FE0
1E60
0000
0000
1FC0
ENDCHAR
STARTCHAR 032E
ENCODING 814
SWIDTH 720 0
DWIDTH 18 0
BBX 15 26 2 -8
BITMAP
FFC0
FFF0
C078
C01C
C01C
C00C
C00E
C00E
C00E
C00E
C00E
C00E
C00C
C01C
C018
C078
FFF0
FFC0
0000
0000
0600
0600
0200
0200
0200
0400
ENDCHAR
STARTCHAR 032F
ENCODING 815
SWIDTH 560 0
DWIDTH 14 0
BBX 11 26 1 -8
BITMAP
0060
0060
0060
0060
0060
1F60
3FE0
71E0
E060
C060
C060
C060
C060
C060
E0E0
71E0
7FE0
1E60
0000
0000
0600
0600
0200
0200
0200
0400
ENDCHAR
STARTCHAR 0330
ENCODING 816
SWIDTH 720 0
DWIDTH 18 0
BBX 15 23 2 -5
BITMAP
FFC0
FFF0
C078
C01C
C01C
C00C
C00E
C00E
C00E
C00E
C00E
C00E
C00C
C01C
C018
C078
FFF0
FFC0
0000
0000
0700
0D80
18C0
ENDCHAR
STARTCHAR 0331
ENCODING 817
SWIDTH 560 0
DWIDTH 14 0
BBX 11 23 1 -5
BITMAP
0060
0060
0060
0060
0060
1F60
3FE0
71E0
E060
C060
C060
C060
C060
C060
E0E0
71E0
7FE0
1E60
0000
0000
0E00
1B00
3180
ENDCHAR
STARTCHAR 0332
ENCODING 818
SWIDTH 680 0
DWIDTH 17 0
BBX 13 25 2 0
BITMAP
0600
0300
0180
0000
1FE0
0000
0000
FFF8
FFF8
E000
E000
E000
E000
E000
E000
FFF0
FFF0
E000
E000
E000
E000
E000
E000
FFF8
FFF8
ENDCHAR
STARTCHAR 0333
ENCODING 819
SWIDTH 560 0
DWIDTH 14 0
BBX 12 21 1 0
BITMAP
0C00
0600
0300
0000
0000
3FC0
0000
0000
1F80
3FC0
70E0
E060
C070
FFF0
FFF0
C000
C070
E060
70E0
3FC0
1F00
ENDCHAR
STARTCHAR 0334
ENCODING 820
SWIDTH 680 0
DWIDTH 17 0
BBX 13 25 2 0
BITMAP
0380
0700
0600
0000
1FE0
0000
0000
FFF8
FFF8
E000
E000
E000
E000
E000
E000
FFF0
FFF0
E000
E000
E000
E000
E000
E000
FFF8
FFF8
ENDCHAR
STARTCHAR 0335
ENCODING 821
SWIDTH 560 0
DWIDTH 14 0
BBX 12 20 1 0
BITMAP
0700
0600
0C00
0000
3FC0
0000
0000
1F80
3FC0
70E0
E060
C070
FFF0
FFF0
C000
C070
E060
70E0
3FC0
1F00
ENDCHAR
STARTCHAR 0336
ENCODING 822
SWIDTH 680 0
DWIDTH 17 0
BBX 13 22 2 -4
BITMAP
FFF8
FFF8
E000
E000
E000
E000
E000
E000
FFF0
FFF0
E000
E000
E000
E000
E000
E000
FFF8
FFF8
0000
0700
0D80
18C0
ENDCHAR
STARTCHAR 0337
ENCODING 823
SWIDTH 560 0
DWIDTH 14 0
BBX 12 18 1 -5
BITMAP
1F80
3FC0
70E0
E060
C070
FFF0
FFF0
C000
C070
E060
70E0
3FC0
1F00
0000
0000
0E00
1B00
1980
ENDCHAR
STARTCHAR 0338
ENCODING 824
SWIDTH 680 0
DWIDTH 17 0
BBX 13 22 2 -4
BITMAP
FFF8
FFF8
E000
E000
E000
E000
E000
E000
FFF0
FFF0
E000
E000
E000
E000
E000
E000
FFF8
FFF8
0000
0E20
1FE0
11C0
ENDCHAR
STARTCHAR 0339
ENCODING 825
SWIDTH 560 0
DWIDTH 14 0
BBX 12 17 1 -4
BITMAP
1F80
3FC0
70E0
E060
C070
FFF0
FFF0
C000
C070
E060
70E0
3FC0
1F00
0000
1C40
3FC0
2380
ENDCHAR
STARTCHAR 033A
ENCODING 826
SWIDTH 680 0
DWIDTH 17 0
BBX 13 28 2 -6
BITMAP
1060
0840
0F80
0000
FFF8
FFF8
E000
E000
E000
E000
E000
E000
FFF0
FFF0
E000
E000
E000
E000
E000
E000
FFF8
FFF8
0100
0200
0780
00C0
00C0
0F80
ENDCHAR
STARTCHAR 033B
ENCODING 827
SWIDTH 560 0
DWIDTH 14 0
BBX 12 24 1 -6
BITMAP
30C0
1080
0F00
0000
0000
1F80
3FC0
70E0
E060
C070
FFF0
FFF0
C000
C070
E060
70E0
3FC0
1F00
0200
0400
0700
0180
0180
0F00
ENDCHAR
STARTCHAR 033C
ENCODING 828
SWIDTH 600 0
DWIDTH 15 0
BBX 13 23 2 0
BITMAP
0700
0700
0700
0000
0000
FFF8
FFF8
E000
E000
E000
E000
E000
E000
FFE0
FFE0
E000
E000
E000
E000
E000
E000
E000
E000
ENDCHAR
STARTCHAR 033D
ENCODING 829
SWIDTH 280 0
DWIDTH 7 0
BBX 7 23 0 0
BITMAP
18
18
18
00
00
1E
3E
38
30
30
FE
FE
30
30
30
30
30
30
30
30
30
30
30
ENDCHAR
STARTCHAR 033E
ENCODING 830
SWIDTH 760 0
DWIDTH 19 0
BBX 17 21 1 0
BITMAP
07F800
000000
000000
03F000
0FFC00
1C1E00
380700
700700
600300
E00000
E00000
E00000
E07F80
E07F80
E00380
600380
700380
700780
3C1F80
1FF980
07F180
ENDCHAR
STARTCHAR 033F
ENCODING 831
SWIDTH 560 0
DWIDTH 14 0
BBX 11 21 1 -5
BITMAP
3FC0
0000
0000
1E60
3FE0
71E0
E0E0
C060
C060
C060
C060
C060
E0E0
F1E0
7FE0
1E60
0060
E060
E0C0
7FC0
1F00
ENDCHAR
STARTCHAR 0340
ENCODING 832
SWIDTH 720 0
DWIDTH 18 0
BBX 14 22 2 0
BITMAP
0300
0300
0300
0000
C00C
C00C
C00C
C00C
C00C
C00C
C00C
FFFC
FFFC
C00C
C00C
C00C
C00C
C00C
C00C
C00C
C00C
C00C
ENDCHAR
STARTCHAR 0341
ENCODING 833
SWIDTH 560 0
DWIDTH 14 0
BBX 10 22 2 0
BITMAP
0C00
0C00
0C00
0000
C000
C000
C000
C000
C000
CF00
FF80
E1C0
C0C0
C0C0
C0C0
C0C0
C0C0
C0C0
C0C0
C0C0
C0C0
C0C0
ENDCHAR
STARTCHAR 0342
ENCODING 834
SWIDTH 720 0
DWIDTH 18 0
BBX 14 22 2 -4
BITMAP
C00C
C00C
C00C
C00C
C00C
C00C
C00C
FFFC
FFFC
C00C
C00C
C00C
C00C
C00C
C00C
C00C
C00C
C00C
0000
0380
0380
0380
ENDCHAR
STARTCHAR 0343
ENCODING 835
SWIDTH 560 0
DWIDTH 14 0
BBX 10 22 2 -4
BITMAP
C000
C000
C000
C000
C000
CF00
FF80
E1C0
C0C0
C0C0
C0C0
C0C0
C0C0
C0C0
C0C0
C0C0
C0C0
C0C0
0000
0C00
0C00
0C00
ENDCHAR
STARTCHAR 0344
ENCODING 836
SWIDTH 720 0
DWIDTH 18 0
BBX 14 22 2 0
BITMAP
0CC0
0CC0
0CC0
0000
C00C
C00C
C00C
C00C
C00C
C00C
C00C
FFFC
FFFC
C00C
C00C
C00C
C00C
C00C
C00C
C00C
C00C
C00C
ENDCHAR
STARTCHAR 0345
ENCODING 837
SWIDTH 560 0
DWIDTH 14 0
BBX 10 22 2 0
BITMAP
3300
3300
3300
0000
C000
C000
C000
C000
C000
CF00
FF80
E1C0
C0C0
C0C0
C0C0
C0C0
C0C0
C0C0
C0C0
C0C0
C0C0
C0C0
ENDCHAR
STARTCHAR 0346
ENCODING 838
SWIDTH 720 0
DWIDTH 18 0
BBX 15 24 1 -6
BITMAP
6006
6006
6006
6006
6006
6006
6006
7FFE
7FFE
6006
6006
6006
6006
6006
6006
6006
6006
6006
2000
6000
7800
1800
1800
F000
ENDCHAR
STARTCHAR 0347
ENCODING 839
SWIDTH 560 0
DWIDTH 14 0
BBX 12 24 0 -6
BITMAP
3000
3000
3000
3000
3000
33C0
3FE0
3870
3030
3030
3030
3030
3030
3030
3030
3030
3030
3030
3000
2000
7800
0C00
0C00
F800
ENDCHAR
STARTCHAR 0348
ENCODING 840
SWIDTH 720 0
DWIDTH 18 0
BBX 14 22 2 -4
BITMAP
C00C
C00C
C00C
C00C
C00C
C00C
C00C
FFFC
FFFC
C00C
C00C
C00C
C00C
C00C
C00C
C00C
C00C
C00C
0000
1820
0C60
0780
ENDCHAR
STARTCHAR 0349
ENCODING 841
SWIDTH 560 0
DWIDTH 14 0
BBX 10 22 2 -4
BITMAP
C000
C000
C000
C000
C000
CF00
FF80
E1C0
C0C0
C0C0
C0C0
C0C0
C0C0
C0C0
C0C0
C0C0
C0C0
C0C0
0000
6080
2100
1E00
ENDCHAR
STARTCHAR 034A
ENCODING 842
SWIDTH 280 0
DWIDTH 7 0
BBX 8 22 0 -4
BITMAP
38
38
38
38
38
38
38
38
38
38
38
38
38
38
38
38
38
38
00
71
FF
8E
ENDCHAR
STARTCHAR 034B
ENCODING 843
SWIDTH 240 0
DWIDTH 6 0
BBX 8 22 -1 -4
BITMAP
18
18
00
00
00
18
18
18
18
18
18
18
18
18
18
18
18
18
00
71
FF
8E
ENDCHAR
STARTCHAR 034C
ENCODING 844
SWIDTH 280 0
DWIDTH 7 0
BBX 7 26 0 0
BITMAP
0C
18
30
00
EE
EE
EE
00
38
38
38
38
38
38
38
38
38
38
38
38
38
38
38
38
38
38
ENDCHAR
STARTCHAR 034D
ENCODING 845
SWIDTH 280 0
DWIDTH 7 0
BBX 7 21 0 0
BITMAP
0C
18
30
00
EE
EE
EE
00
38
38
38
38
38
38
38
38
38
38
38
38
38
ENDCHAR
STARTCHAR 034E
ENCODING 846
SWIDTH 680 0
DWIDTH 17 0
BBX 14 22 2 0
BITMAP
0300
0600
0C00
0000
C03C
C078
C0F0
C1E0
C3C0
C780
CF00
DE00
FF00
FB00
F380
E1C0
C0E0
C0E0
C070
C038
C03C
C01C
ENDCHAR
STARTCHAR 034F
ENCODING 847
SWIDTH 520 0
DWIDTH 13 0
BBX 10 21 2 0
BITMAP
0600
0C00
1800
C000
C000
C000
C000
C000
C1C0
C380
C700
CE00
D800
FC00
EC00
CE00
C600
C700
C380
C180
C1C0
ENDCHAR
STARTCHAR 0350
ENCODING 848
SWIDTH 680 0
DWIDTH 17 0
BBX 14 22 2 -4
BITMAP
C03C
C078
C0F0
C1E0
C3C0
C780
CF00
DE00
FF00
FB00
F380
E1C0
C0E0
C0E0
C070
C038
C03C
C01C
0000
0600
0600
0600
ENDCHAR
STARTCHAR 0351
ENCODING 849
SWIDTH 520 0
DWIDTH 13 0
BBX 10 22 2 -4
BITMAP
C000
C000
C000
C000
C000
C1C0
C380
C700
CE00
D800
FC00
EC00
CE00
C600
C700
C380
C180
C1C0
0000
1800
1800
1800
ENDCHAR
STARTCHAR 0352
ENCODING 850
SWIDTH 680 0
DWIDTH 17 0
BBX 14 20 2 -2
BITMAP
C03C
C078
C0F0
C1E0
C3C0
C780
CF00
DE00
FF00
FB00
F380
E1C0
C0E0
C0E0
C070
C038
C03C
C01C
0000
1FC0
ENDCHAR
STARTCHAR 0353
ENCODING 851
SWIDTH 520 0
DWIDTH 13 0
BBX 10 20 2 -2
BITMAP
C000
C000
C000
C000
C000
C1C0
C380
C700
CE00
D800
FC00
EC00
CE00
C600
C700
C380
C180
C1C0
0000
7F80
ENDCHAR
STARTCHAR 0354
ENCODING 852
SWIDTH 560 0
DWIDTH 14 0
BBX 11 22 2 -4
BITMAP
C000
C000
C000
C000
C000
C000
C000
C000
C000
C000
C000
C000
C000
C000
C000
C000
FFE0
FFE0
0000
0600
0600
0600
ENDCHAR
STARTCHAR 0355
ENCODING 853
SWIDTH 240 0
DWIDTH 6 0
BBX 2 22 2 -4
BITMAP
C0
C0
C0
C0
C0
C0
C0
C0
C0
C0
C0
C0
C0
C0
C0
C0
C0
C0
00
C0
C0
C0
ENDCHAR
STARTCHAR 0356
ENCODING 854
SWIDTH 560 0
DWIDTH 14 0
BBX 11 25 2 -4
BITMAP
3FC0
0000
0000
C000
C000
C000
C000
C000
C000
C000
C000
C000
C000
C000
C000
C000
C000
C000
C000
FFE0
FFE0
0000
0600
0600
0600
ENDCHAR
STARTCHAR 0357
ENCODING 855
SWIDTH 240 0
DWIDTH 6 0
BBX 8 25 -1 -4
BITMAP
FF
00
00
18
18
18
18
18
18
18
18
18
18
18
18
18
18
18
18
18
18
00
18
18
18
ENDCHAR
STARTCHAR 0358
ENCODING 856
SWIDTH 560 0
DWIDTH 14 0
BBX 11 20 2 -2
BITMAP
C000
C000
C000
C000
C000
C000
C000
C000
C000
C000
C000
C000
C000
C000
C000
C000
FFE0
FFE0
0000
3FC0
ENDCHAR
STARTCHAR 0359
ENCODING 857
SWIDTH 240 0
DWIDTH 6 0
BBX 8 20 -1 -2
BITMAP
18
18
18
18
18
18
18
18
18
18
18
18
18
18
18
18
18
18
00
FF
ENDCHAR
STARTCHAR 035A
ENCODING 858
SWIDTH 560 0
DWIDTH 14 0
BBX 11 23 2 -5
BITMAP
C000
C000
C000
C000
C000
C000
C000
C000
C000
C000
C000
C000
C000
C000
C000
C000
FFE0
FFE0
0000
0000
0E00
1B00
3300
ENDCHAR
STARTCHAR 035B
ENCODING 859
SWIDTH 240 0
DWIDTH 6 0
BBX 6 22 0 -4
BITMAP
30
30
30
30
30
30
30
30
30
30
30
30
30
30
30
30
30
30
00
70
D8
CC
ENDCHAR
STARTCHAR 035C
ENCODING 860
SWIDTH 840 0
DWIDTH 21 0
BBX 17 22 2 0
BITMAP
00E000
01C000
018000
000000
F00780
F00780
F00780
F80F80
D80D80
D80D80
DC1D80
CC1980
CC1980
CE3980
C63180
C63180
C77180
C36180
C36180
C3E180
C1C180
C1C180
ENDCHAR
STARTCHAR 035D
ENCODING 861
SWIDTH 840 0
DWIDTH 21 0
BBX 17 18 2 0
BITMAP
00E000
018000
010000
000000
000000
CF1E00
FFBF00
E1E380
C1C180
C1C180
C1C180
C1C180
C1C180
C1C180
C1C180
C1C180
C1C180
C1C180
ENDCHAR
STARTCHAR 035E
ENCODING 862
SWIDTH 840 0
DWIDTH 21 0
BBX 17 22 2 0
BITMAP
00C000
00C000
00C000
000000
F00780
F00780
F00780
F80F80
D80D80
D80D80
DC1D80
CC1980
CC1980
CE3980
C63180
C63180
C77180
C36180
C36180
C3E180
C1C180
C1C180
ENDCHAR
STARTCHAR 035F
ENCODING 863
SWIDTH 840 0
DWIDTH 21 0
BBX 17 18 2 0
BITMAP
00C000
00C000
00C000
000000
000000
CF1E00
FFBF00
E1E380
C1C180
C1C180
C1C180
C1C180
C1C180
C1C180
C1C180
C1C180
C1C180
C1C180
ENDCHAR
STARTCHAR 0360
ENCODING 864
SWIDTH 840 0
DWIDTH 21 0
BBX 17 22 2 -4
BITMAP
F00780
F00780
F00780
F80F80
D80D80
D80D80
DC1D80
CC1980
CC1980
CE3980
C63180
C63180
C77180
C36180
C36180
C3E180
C1C180
C1C180
000000
01C000
01C000
01C000
ENDCHAR
STARTCHAR 0361
ENCODING 865
SWIDTH 840 0
DWIDTH 21 0
BBX 17 17 2 -4
BITMAP
CF1E00
FFBF00
E1E380
C1C180
C1C180
C1C180
C1C180
C1C180
C1C180
C1C180
C1C180
C1C180
C1C180
000000
01C000
01C000
01C000
ENDCHAR
STARTCHAR 0362
ENCODING 866
SWIDTH 720 0
DWIDTH 18 0
BBX 14 22 2 0
BITMAP
0300
0300
0300
0000
E00C
F00C
F00C
D80C
D80C
CC0C
C60C
C60C
C30C
C30C
C18C
C0CC
C0CC
C06C
C06C
C03C
C01C
C01C
ENDCHAR
STARTCHAR 0363
ENCODING 867
SWIDTH 560 0
DWIDTH 14 0
BBX 10 18 2 0
BITMAP
0C00
0C00
0C00
0000
0000
CF00
FFC0
E1C0
C0C0
C0C0
C0C0
C0C0
C0C0
C0C0
C0C0
C0C0
C0C0
C0C0
ENDCHAR
STARTCHAR 0364
ENCODING 868
SWIDTH 720 0
DWIDTH 18 0
BBX 14 22 2 -4
BITMAP
E00C
F00C
F00C
D80C
D80C
CC0C
C60C
C60C
C30C
C30C
C18C
C0CC
C0CC
C06C
C06C
C03C
C01C
C01C
0000
0300
0300
0300
ENDCHAR
STARTCHAR 0365
ENCODING 869
SWIDTH 560 0
DWIDTH 14 0
BBX 10 17 2 -4
BITMAP
CF00
FFC0
E1C0
C0C0
C0C0
C0C0
C0C0
C0C0
C0C0
C0C0
C0C0
C0C0
C0C0
0000
0C00
0C00
0C00
ENDCHAR
STARTCHAR 0366
ENCODING 870
SWIDTH 720 0
DWIDTH 18 0
BBX 14 20 2 -2
BITMAP
E00C
F00C
F00C
D80C
D80C
CC0C
C60C
C60C
C30C
C30C
C18C
C0CC
C0CC
C06C
C06C
C03C
C01C
C01C
0000
1FE0
ENDCHAR
STARTCHAR 0367
ENCODING 871
SWIDTH 560 0
DWIDTH 14 0
BBX 10 15 2 -2
BITMAP
CF00
FFC0
E1C0
C0C0
C0C0
C0C0
C0C0
C0C0
C0C0
C0C0
C0C0
C0C0
C0C0
0000
7F80
ENDCHAR
STARTCHAR 0368
ENCODING 872
SWIDTH 720 0
DWIDTH 18 0
BBX 14 22 2 -4
BITMAP
E00C
F00C
F00C
D80C
D80C
CC0C
C60C
C60C
C30C
C30C
C18C
C0CC
C0CC
C06C
C06C
C03C
C01C
C01C
0000
0700
0D80
18C0
ENDCHAR
STARTCHAR 0369
ENCODING 873
SWIDTH 560 0
DWIDTH 14 0
BBX 10 17 2 -4
BITMAP
CF00
FFC0
E1C0
C0C0
C0C0
C0C0
C0C0
C0C0
C0C0
C0C0
C0C0
C0C0
C0C0
0000
1C00
3600
6300
ENDCHAR
STARTCHAR 036A
ENCODING 874
SWIDTH 760 0
DWIDTH 19 0
BBX 17 26 1 0
BITMAP
00C000
018000
030000
038800
07F800
0CF000
000000
000000
07F000
1FFC00
3C1E00
380700
700380
600380
E00180
E00180
C00180
C00180
E00180
E00180
E00380
700300
700700
3C0E00
1FFC00
07F000
ENDCHAR
STARTCHAR 036B
ENCODING 875
SWIDTH 560 0
DWIDTH 14 0
BBX 12 21 1 0
BITMAP
0700
0600
0C00
0000
1C40
3FC0
2780
0000
1F80
3FC0
70E0
E060
C070
C030
C030
C070
C070
E060
70E0
7FC0
1F80
ENDCHAR
STARTCHAR 036C
ENCODING 876
SWIDTH 760 0
DWIDTH 19 0
BBX 17 26 1 0
BITMAP
067000
067000
067000
000000
079000
0FF000
08E000
000000
07F000
1FFC00
3C1E00
380700
700380
600380
E00180
E00180
C00180
C00180
E00180
E00180
E00380
700300
700700
3C0E00
1FFC00
07F000
ENDCHAR
STARTCHAR 036D
ENCODING 877
SWIDTH 560 0
DWIDTH 14 0
BBX 12 21 1 0
BITMAP
1980
1980
1980
0000
1C40
3FC0
2380
0000
1F80
3FC0
70E0
E060
C070
C030
C030
C070
C070
E060
70E0
7FC0
1F80
ENDCHAR
STARTCHAR 036E
ENCODING 878
SWIDTH 760 0
DWIDTH 19 0
BBX 17 25 1 0
BITMAP
018000
00C000
006000
000000
07F800
000000
000000
07F000
1FFC00
3C1E00
380700
700380
600380
E00180
E00180
C00180
C00180
E00180
E00180
E00380
700300
700700
3C0E00
1FFC00
07F000
ENDCHAR
STARTCHAR 036F
ENCODING 879
SWIDTH 560 0
DWIDTH 14 0
BBX 12 21 1 0
BITMAP
0C00
0600
0300
0000
0000
3F80
0000
0000
1F80
3FC0
70E0
E060
C070
C030
C030
C070
C070
E060
70E0
7FC0
1F80
ENDCHAR
STARTCHAR 0370
ENCODING 880
SWIDTH 760 0
DWIDTH 19 0
BBX 17 25 1 0
BITMAP
00E000
018000
030000
000000
07F000
000000
000000
07F000
1FFC00
3C1E00
380700
700380
600380
E00180
E00180
C00180
C00180
E00180
E00180
E00380
700300
700700
3C0E00
1FFC00
07F000
ENDCHAR
STARTCHAR 0371
ENCODING 881
SWIDTH 560 0
DWIDTH 14 0
BBX 12 20 1 0
BITMAP
0700
0600
0C00
0000
3F80
0000
0000
1F80
3FC0
70E0
E060
C070
C030
C030
C070
C070
E060
70E0
7FC0
1F80
ENDCHAR
STARTCHAR 0372
ENCODING 882
SWIDTH 680 0
DWIDTH 17 0
BBX 14 22 2 0
BITMAP
0300
0600
0C00
0000
FFE0
FFF0
E038
E018
E01C
E018
E018
E038
FFF0
FFE0
E000
E000
E000
E000
E000
E000
E000
E000
ENDCHAR
STARTCHAR 0373
ENCODING 883
SWIDTH 560 0
DWIDTH 14 0
BBX 12 23 1 -5
BITMAP
0300
0600
0C00
0000
0000
EF80
FFC0
F0E0
E070
E070
E030
E030
E030
E070
E060
F0E0
FFC0
EF80
E000
E000
E000
E000
E000
ENDCHAR
STARTCHAR 0374
ENCODING 884
SWIDTH 680 0
DWIDTH 17 0
BBX 14 23 2 0
BITMAP
0600
0600
0600
0000
0000
FFE0
FFF0
E038
E018
E01C
E018
E018
E038
FFF0
FFE0
E000
E000
E000
E000
E000
E000
E000
E000
ENDCHAR
STARTCHAR 0375
ENCODING 885
SWIDTH 560 0
DWIDTH 14 0
BBX 12 23 1 -5
BITMAP
0700
0700
0700
0000
0000
EF80
FFC0
F0E0
E070
E070
E030
E030
E030
E070
E060
F0E0
FFC0
EF80
E000
E000
E000
E000
E000
ENDCHAR
STARTCHAR 0376
ENCODING 886
SWIDTH 720 0
DWIDTH 18 0
BBX 15 23 2 0
BITMAP
0300
0300
0300
0000
0000
FFF0
FFF8
E01C
E00C
E00C
E00C
E00C
E01C
FFF8
FFF8
E01C
E01C
E00C
E00C
E00C
E00C
E00C
E00E
ENDCHAR
STARTCHAR 0377
ENCODING 887
SWIDTH 320 0
DWIDTH 8 0
BBX 6 18 2 0
BITMAP
C0
C0
C0
00
00
DC
FC
E0
C0
C0
C0
C0
C0
C0
C0
C0
C0
C0
ENDCHAR
STARTCHAR 0378
ENCODING 888
SWIDTH 720 0
DWIDTH 18 0
BBX 15 22 2 -4
BITMAP
FFF0
FFF8
E01C
E00C
E00C
E00C
E00C
E01C
FFF8
FFF8
E01C
E01C
E00C
E00C
E00C
E00C
E00C
E00E
0000
0300
0300
0300
ENDCHAR
STARTCHAR 0379
ENCODING 889
SWIDTH 320 0
DWIDTH 8 0
BBX 6 17 2 -4
BITMAP
DC
FC
E0
C0
C0
C0
C0
C0
C0
C0
C0
C0
C0
00
C0
C0
C0
ENDCHAR
STARTCHAR 037A
ENCODING 890
SWIDTH 720 0
DWIDTH 18 0
BBX 15 25 2 -4
BITMAP
1FE0
0000
0000
FFF0
FFF8
E01C
E00C
E00C
E00C
E00C
E01C
FFF8
FFF8
E01C
E01C
E00C
E00C
E00C
E00C
E00C
E00E
0000
0300
0300
0300
ENDCHAR
STARTCHAR 037B
ENCODING 891
SWIDTH 320 0
DWIDTH 8 0
BBX 8 20 1 -4
BITMAP
FF
00
00
6E
7E
70
60
60
60
60
60
60
60
60
60
60
00
60
60
60
ENDCHAR
STARTCHAR 037C
ENCODING 892
SWIDTH 720 0
DWIDTH 18 0
BBX 15 20 2 -2
BITMAP
FFF0
FFF8
E01C
E00C
E00C
E00C
E00C
E01C
FFF8
FFF8
E01C
E01C
E00C
E00C
E00C
E00C
E00C
E00E
0000
1FE0
ENDCHAR
STARTCHAR 037D
ENCODING 893
SWIDTH 320 0
DWIDTH 8 0
BBX 8 15 0 -2
BITMAP
37
3F
38
30
30
30
30
30
30
30
30
30
30
00
FF
ENDCHAR
STARTCHAR 037E
ENCODING 894
SWIDTH 680 0
DWIDTH 17 0
BBX 15 22 1 0
BITMAP
0380
0380
0380
0000
0FC0
3FF0
3838
701C
601C
600C
7000
7E00
1FE0
03F8
003C
000C
E00E
E00C
600C
783C
3FF8
0FE0
ENDCHAR
STARTCHAR 037F
ENCODING 895
SWIDTH 520 0
DWIDTH 13 0
BBX 11 18 1 0
BITMAP
0C00
0C00
0C00
0000
0000
3F00
7F80
E1C0
C0C0
E000
7C00
3F80
03C0
C0E0
C0E0
E0C0
7FC0
3F00
ENDCHAR
STARTCHAR 0380
ENCODING 896
SWIDTH 680 0
DWIDTH 17 0
BBX 15 22 1 -4
BITMAP
0FC0
3FF0
3838
701C
601C
600C
7000
7E00
1FE0
03F8
003C
000C
E00E
E00C
600C
783C
3FF8
0FE0
0000
0380
0380
0380
ENDCHAR
STARTCHAR 0381
ENCODING 897
SWIDTH 520 0
DWIDTH 13 0
BBX 11 17 1 -4
BITMAP
3F00
7F80
E1C0
C0C0
E000
7C00
3F80
03C0
C0E0
C0E0
E0C0
7FC0
3F00
0000
0E00
0E00
0E00
ENDCHAR
STARTCHAR 0382
ENCODING 898
SWIDTH 680 0
DWIDTH 17 0
BBX 15 27 1 0
BITMAP
0180
0180
0180
0000
0180
0300
0600
0000
0000
0FC0
3FF0
3838
701C
601C
600C
7000
7E00
1FE0
03F8
003C
000C
E00E
E00C
600C
783C
3FF8
0FE0
ENDCHAR
STARTCHAR 0383
ENCODING 899
SWIDTH 520 0
DWIDTH 13 0
BBX 11 22 1 0
BITMAP
0700
0700
0700
0000
0000
0700
0600
0C00
0000
3F00
7F80
E1C0
C0C0
E000
7C00
3F80
03C0
C0E0
C0E0
E0C0
7FC0
3F00
ENDCHAR
STARTCHAR 0384
ENCODING 900
SWIDTH 680 0
DWIDTH 17 0
BBX 15 27 1 0
BITMAP
0380
0380
0380
0000
0000
0C60
06C0
0380
0000
0FC0
3FF0
3838
701C
601C
600C
7000
7E00
1FE0
03F8
003C
000C
E00E
E00C
600C
783C
3FF8
0FE0
ENDCHAR
STARTCHAR 0385
ENCODING 901
SWIDTH 520 0
DWIDTH 13 0
BBX 11 22 1 0
BITMAP
0E00
0E00
0E00
0000
3180
1B00
0E00
0000
0000
3F00
7F80
E1C0
C0C0
E000
7C00
3F80
03C0
C0E0
C0E0
E0C0
7FC0
3F00
ENDCHAR
STARTCHAR 0386
ENCODING 902
SWIDTH 680 0
DWIDTH 17 0
BBX 15 27 1 -4
BITMAP
0380
0380
0380
0000
0000
0FC0
3FF0
3838
701C
601C
600C
7000
7E00
1FE0
03F8
003C
000C
E00E
E00C
600C
783C
3FF8
0FE0
0000
0380
0380
0380
ENDCHAR
STARTCHAR 0387
ENCODING 903
SWIDTH 520 0
DWIDTH 13 0
BBX 11 22 1 -4
BITMAP
0E00
0E00
0E00
0000
0000
3F00
7F80
E1C0
C0C0
E000
7C00
3F80
03C0
C0E0
C0E0
E0C0
7FC0
3F00
0000
0E00
0E00
0E00
ENDCHAR
STARTCHAR 0388
ENCODING 904
SWIDTH 600 0
DWIDTH 15 0
BBX 15 22 0 0
BITMAP
0180
0180
0180
0000
FFFE
FFFE
0380
0380
0380
0380
0380
0380
0380
0380
0380
0380
0380
0380
0380
0380
0380
0380
ENDCHAR
STARTCHAR 0389
ENCODING 905
SWIDTH 280 0
DWIDTH 7 0
BBX 6 21 0 0
BITMAP
30
30
30
00
00
30
30
30
FC
FC
30
30
30
30
30
30
30
30
30
3C
1C
ENDCHAR
STARTCHAR 038A
ENCODING 906
SWIDTH 600 0
DWIDTH 15 0
BBX 15 22 0 -4
BITMAP
FFFE
FFFE
0380
0380
0380
0380
0380
0380
0380
0380
0380
0380
0380
0380
0380
0380
0380
0380
0000
0380
0380
0380
ENDCHAR
STARTCHAR 038B
ENCODING 907
SWIDTH 280 0
DWIDTH 7 0
BBX 6 20 0 -4
BITMAP
30
30
30
FC
FC
30
30
30
30
30
30
30
30
30
3C
1C
00
38
38
38
ENDCHAR
STARTCHAR 038C
ENCODING 908
SWIDTH 600 0
DWIDTH 15 0
BBX 15 20 0 -2
BITMAP
FFFE
FFFE
0380
0380
0380
0380
0380
0380
0380
0380
0380
0380
0380
0380
0380
0380
0380
0380
0000
0FF0
ENDCHAR
STARTCHAR 038D
ENCODING 909
SWIDTH 280 0
DWIDTH 7 0
BBX 7 18 0 -2
BITMAP
30
30
30
FC
FC
30
30
30
30
30
30
30
30
30
3C
1C
00
FE
ENDCHAR
STARTCHAR 038E
ENCODING 910
SWIDTH 600 0
DWIDTH 15 0
BBX 15 23 0 -5
BITMAP
FFFE
FFFE
0380
0380
0380
0380
0380
0380
0380
0380
0380
0380
0380
0380
0380
0380
0380
0380
0000
0000
0380
06C0
0C60
ENDCHAR
STARTCHAR 038F
ENCODING 911
SWIDTH 280 0
DWIDTH 7 0
BBX 7 21 0 -5
BITMAP
30
30
30
FC
FC
30
30
30
30
30
30
30
30
30
3C
1C
00
00
38
6C
C6
ENDCHAR
STARTCHAR 0390
ENCODING 912
SWIDTH 720 0
DWIDTH 18 0
BBX 14 22 2 -4
BITMAP
E00C
E00C
E00C
E00C
E00C
E00C
E00C
E00C
E00C
E00C
E00C
E00C
E00C
E01C
7018
7878
3FF0
0FC0
0000
0EE0
0EE0
0EE0
ENDCHAR
STARTCHAR 0391
ENCODING 913
SWIDTH 560 0
DWIDTH 14 0
BBX 10 17 2 -4
BITMAP
C0C0
C0C0
C0C0
C0C0
C0C0
C0C0
C0C0
C0C0
C0C0
C1C0
E3C0
FEC0
7CC0
0000
3300
3300
3300
ENDCHAR
STARTCHAR 0392
ENCODING 914
SWIDTH 720 0
DWIDTH 18 0
BBX 14 23 2 -5
BITMAP
E00C
E00C
E00C
E00C
E00C
E00C
E00C
E00C
E00C
E00C
E00C
E00C
E00C
E01C
7018
7878
3FF0
0FC0
0000
0000
0F30
0FE0
19E0
ENDCHAR
STARTCHAR 0393
ENCODING 915
SWIDTH 560 0
DWIDTH 14 0
BBX 10 17 2 -4
BITMAP
C0C0
C0C0
C0C0
C0C0
C0C0
C0C0
C0C0
C0C0
C0C0
C1C0
E3C0
FEC0
7CC0
0000
3880
7F80
4700
ENDCHAR
STARTCHAR 0394
ENCODING 916
SWIDTH 720 0
DWIDTH 18 0
BBX 14 23 2 -5
BITMAP
E00C
E00C
E00C
E00C
E00C
E00C
E00C
E00C
E00C
E00C
E00C
E00C
E00C
E01C
7018
7878
3FF0
0FC0
0000
0000
0700
0D80
0CC0
ENDCHAR
STARTCHAR 0395
ENCODING 917
SWIDTH 560 0
DWIDTH 14 0
BBX 10 18 2 -5
BITMAP
C0C0
C0C0
C0C0
C0C0
C0C0
C0C0
C0C0
C0C0
C0C0
C1C0
E3C0
FEC0
7CC0
0000
0000
1C00
3600
6300
ENDCHAR
STARTCHAR 0396
ENCODING 918
SWIDTH 720 0
DWIDTH 18 0
BBX 14 26 2 0
BITMAP
0180
0300
0600
0000
0E20
1FE0
11C0
0000
E00C
E00C
E00C
E00C
E00C
E00C
E00C
E00C
E00C
E00C
E00C
E00C
E00C
E01C
7018
7878
3FF0
0FC0
ENDCHAR
STARTCHAR 0397
ENCODING 919
SWIDTH 560 0
DWIDTH 14 0
BBX 10 21 2 0
BITMAP
0600
0C00
1800
0000
3880
7F80
4700
0000
C0C0
C0C0
C0C0
C0C0
C0C0
C0C0
C0C0
C0C0
C0C0
C1C0
E3C0
FEC0
7CC0
ENDCHAR
STARTCHAR 0398
ENCODING 920
SWIDTH 720 0
DWIDTH 18 0
BBX 14 24 2 0
BITMAP
0EE0
0EE0
0EE0
0000
1FE0
0000
E00C
E00C
E00C
E00C
E00C
E00C
E00C
E00C
E00C
E00C
E00C
E00C
E00C
E01C
7018
7878
3FF0
0FC0
ENDCHAR
STARTCHAR 0399
ENCODING 921
SWIDTH 560 0
DWIDTH 14 0
BBX 10 20 2 0
BITMAP
3300
3300
3300
0000
7F80
0000
0000
C0C0
C0C0
C0C0
C0C0
C0C0
C0C0
C0C0
C0C0
C0C0
C1C0
E3C0
FEC0
7CC0
ENDCHAR
STARTCHAR 039A
ENCODING 922
SWIDTH 680 0
DWIDTH 17 0
BBX 15 22 1 0
BITMAP
0730
0FF0
19E0
0000
E00E
E00E
600C
701C
701C
3018
3838
3838
1830
1C70
1C60
0CE0
0EE0
06C0
07C0
07C0
0380
0380
ENDCHAR
STARTCHAR 039B
ENCODING 923
SWIDTH 520 0
DWIDTH 13 0
BBX 12 18 0 0
BITMAP
1E60
1FC0
33C0
0000
0000
E030
6070
7060
7060
30E0
38C0
18C0
1980
1980
0D80
0F00
0F00
0700
ENDCHAR
STARTCHAR 039C
ENCODING 924
SWIDTH 680 0
DWIDTH 17 0
BBX 15 22 1 -4
BITMAP
E00E
E00E
600C
701C
701C
3018
3838
3838
1830
1C70
1C60
0CE0
0EE0
06C0
07C0
07C0
0380
0380
0000
0380
0380
0380
ENDCHAR
STARTCHAR 039D
ENCODING 925
SWIDTH 520 0
DWIDTH 13 0
BBX 12 17 0 -4
BITMAP
E030
6070
7060
7060
30E0
38C0
18C0
1980
1980
0D80
0F00
0F00
0700
0000
0600
0600
0600
ENDCHAR
STARTCHAR 039E
ENCODING 926
SWIDTH 960 0
DWIDTH 24 0
BBX 22 22 1 0
BITMAP
00E000
006000
003000
000000
C0701C
C0781C
E0781C
E0F818
60F838
60DC38
70CC38
71CC30
318E70
318670
3B8670
3B8760
1B0760
1B03E0
1F03C0
1E03C0
0E01C0
0E01C0
ENDCHAR
STARTCHAR 039F
ENCODING 927
SWIDTH 720 0
DWIDTH 18 0
BBX 17 18 0 0
BITMAP
038000
018000
00C000
000000
000000
E0C180
61E180
61E180
61E380
316300
333300
333300
333600
1A3600
1E1E00
1E1E00
0E1C00
0C1C00
ENDCHAR
STARTCHAR 03A0
ENCODING 928
SWIDTH 960 0
DWIDTH 24 0
BBX 22 23 1 0
BITMAP
001C00
001800
003000
000000
000000
C0701C
C0781C
E0781C
E0F818
60F838
60DC38
70CC38
71CC30
318E70
318670
3B8670
3B8760
1B0760
1B03E0
1F03C0
1E03C0
0E01C0
0E01C0
ENDCHAR
STARTCHAR 03A1
ENCODING 929
SWIDTH 720 0
DWIDTH 18 0
BBX 17 18 0 0
BITMAP
003000
006000
00C000
000000
000000
E0C180
61E180
61E180
61E380
316300
333300
333300
333600
1A3600
1E1E00
1E1E00
0E1C00
0C1C00
ENDCHAR
STARTCHAR 03A2
ENCODING 930
SWIDTH 960 0
DWIDTH 24 0
BBX 22 22 1 0
BITMAP
00CC00
00CC00
00CC00
000000
C0701C
C0781C
E0781C
E0F818
60F838
60DC38
70CC38
71CC30
318E70
318670
3B8670
3B8760
1B0760
1B03E0
1F03C0
1E03C0
0E01C0
0E01C0
ENDCHAR
STARTCHAR 03A3
ENCODING 931
SWIDTH 720 0
DWIDTH 18 0
BBX 17 18 0 0
BITMAP
033000
033000
033000
000000
000000
E0C180
61E180
61E180
61E380
316300
333300
333300
333600
1A3600
1E1E00
1E1E00
0E1C00
0C1C00
ENDCHAR
STARTCHAR 03A4
ENCODING 932
SWIDTH 960 0
DWIDTH 24 0
BBX 22 22 1 0
BITMAP
003000
003000
003000
000000
C0701C
C0781C
E0781C
E0F818
60F838
60DC38
70CC38
71CC30
318E70
318670
3B8670
3B8760
1B0760
1B03E0
1F03C0
1E03C0
0E01C0
0E01C0
ENDCHAR
STARTCHAR 03A5
ENCODING 933
SWIDTH 720 0
DWIDTH 18 0
BBX 17 18 0 0
BITMAP
00C000
00C000
00C000
000000
000000
E0C180
61E180
61E180
61E380
316300
333300
333300
333600
1A3600
1E1E00
1E1E00
0E1C00
0C1C00
ENDCHAR
STARTCHAR 03A6
ENCODING 934
SWIDTH 960 0
DWIDTH 24 0
BBX 22 22 1 -4
BITMAP
C0701C
C0781C
E0781C
E0F818
60F838
60DC38
70CC38
71CC30
318E70
318670
3B8670
3B8760
1B0760
1B03E0
1F03C0
1E03C0
0E01C0
0E01C0
000000
003000
003000
003000
ENDCHAR
STARTCHAR 03A7
ENCODING 935
SWIDTH 720 0
DWIDTH 18 0
BBX 17 17 0 -4
BITMAP
E0C180
61E180
61E180
61E380
316300
333300
333300
333600
1A3600
1E1E00
1E1E00
0E1C00
0C1C00
000000
00C000
00C000
00C000
ENDCHAR
STARTCHAR 03A8
ENCODING 936
SWIDTH 680 0
DWIDTH 17 0
BBX 15 22 1 0
BITMAP
0380
0380
0380
0000
E00E
701C
3838
3838
1C70
0EE0
0EE0
07C0
0380
0780
07C0
0EE0
1C70
1870
3838
701C
601C
E00E
ENDCHAR
STARTCHAR 03A9
ENCODING 937
SWIDTH 520 0
DWIDTH 13 0
BBX 12 18 0 0
BITMAP
0600
0600
0600
0000
0000
7070
70E0
38C0
1DC0
1F80
0F00
0700
0F00
1F80
19C0
38C0
70E0
E070
ENDCHAR
STARTCHAR 03AA
ENCODING 938
SWIDTH 680 0
DWIDTH 17 0
BBX 15 22 1 0
BITMAP
0EE0
0EE0
0EE0
0000
E00E
701C
3838
3838
1C70
0EE0
0EE0
07C0
0380
0780
07C0
0EE0
1C70
1870
3838
701C
601C
E00E
ENDCHAR
STARTCHAR 03AB
ENCODING 939
SWIDTH 520 0
DWIDTH 13 0
BBX 12 18 0 0
BITMAP
1980
1980
1980
0000
0000
7070
70E0
38C0
1DC0
1F80
0F00
0700
0F00
1F80
19C0
38C0
70E0
E070
ENDCHAR
STARTCHAR 03AC
ENCODING 940
SWIDTH 680 0
DWIDTH 17 0
BBX 15 22 1 0
BITMAP
0380
0380
0380
0000
E00E
E00E
701C
3018
3838
1C70
1C70
0EE0
06C0
07C0
0380
0380
0380
0380
0380
0380
0380
0380
ENDCHAR
STARTCHAR 03AD
ENCODING 941
SWIDTH 520 0
DWIDTH 13 0
BBX 12 23 0 -5
BITMAP
0700
0700
0700
0000
0000
E030
6070
7060
7060
30E0
38C0
38C0
19C0
1D80
1D80
0F00
0F00
0700
0600
0600
0C00
7C00
7800
ENDCHAR
STARTCHAR 03AE
ENCODING 942
SWIDTH 600 0
DWIDTH 15 0
BBX 14 22 1 0
BITMAP
0700
0D80
18C0
0000
FFFC
FFFC
0038
0078
0070
00E0
01C0
0380
0780
0700
0E00
1C00
3800
3800
7000
E000
FFFC
FFFC
ENDCHAR
STARTCHAR 03AF
ENCODING 943
SWIDTH 520 0
DWIDTH 13 0
BBX 11 18 1 0
BITMAP
0E00
1B00
3300
0000
0000
FFC0
FFC0
01C0
0380
0700
0E00
0C00
1C00
3800
7000
E000
FFE0
FFE0
ENDCHAR
STARTCHAR 03B0
ENCODING 944
SWIDTH 600 0
DWIDTH 15 0
BBX 14 22 1 -4
BITMAP
FFFC
FFFC
0038
0078
0070
00E0
01C0
0380
0780
0700
0E00
1C00
3800
3800
7000
E000
FFFC
FFFC
0000
0300
0300
0300
ENDCHAR
STARTCHAR 03B1
ENCODING 945
SWIDTH 520 0
DWIDTH 13 0
BBX 11 17 1 -4
BITMAP
FFC0
FFC0
01C0
0380
0700
0E00
0C00
1C00
3800
7000
E000
FFE0
FFE0
0000
0E00
0E00
0E00
ENDCHAR
STARTCHAR 03B2
ENCODING 946
SWIDTH 600 0
DWIDTH 15 0
BBX 14 20 1 -2
BITMAP
FFFC
FFFC
0038
0078
0070
00E0
01C0
0380
0780
0700
0E00
1C00
3800
3800
7000
E000
FFFC
FFFC
0000
1FE0
ENDCHAR
STARTCHAR 03B3
ENCODING 947
SWIDTH 520 0
DWIDTH 13 0
BBX 11 15 1 -2
BITMAP
FFC0
FFC0
01C0
0380
0700
0E00
0C00
1C00
3800
7000
E000
FFE0
FFE0
0000
7F80
ENDCHAR
STARTCHAR 03B4
ENCODING 948
SWIDTH 560 0
DWIDTH 14 0
BBX 10 20 2 -2
BITMAP
C000
C000
C000
C000
C000
CF00
FF80
E1C0
C0C0
C0C0
C0C0
C0C0
C0C0
C0C0
C0C0
C0C0
C0C0
C0C0
0000
7F80
ENDCHAR
STARTCHAR 03B5
ENCODING 949
SWIDTH 280 0
DWIDTH 7 0
BBX 7 22 0 0
BITMAP
CE
CE
CE
00
00
00
30
30
30
FC
FC
30
30
30
30
30
30
30
30
30
3C
1C
ENDCHAR
STARTCHAR 03B6
ENCODING 950
SWIDTH 720 0
DWIDTH 18 0
BBX 17 20 0 0
BITMAP
01E000
012000
021000
012000
01E000
000000
000000
E0C180
61E180
61E180
61E380
316300
333300
333300
333600
1A3600
1E1E00
1E1E00
0E1C00
0C1C00
ENDCHAR
STARTCHAR 03B7
ENCODING 951
SWIDTH 520 0
DWIDTH 13 0
BBX 12 24 0 -5
BITMAP
0700
0880
0880
0880
0700
0000
E030
6070
7060
7060
30E0
38C0
38C0
19C0
1D80
1D80
0F00
0F00
0700
0600
0600
0C00
7C00
7800
ENDCHAR
STARTCHAR 03B8
ENCODING 952
SWIDTH 280 0
DWIDTH 7 0
BBX 7 22 0 0
BITMAP
18
18
18
00
1E
3E
38
30
30
F0
F0
30
30
30
30
30
30
30
30
30
30
30
ENDCHAR
STARTCHAR 03B9
ENCODING 953
SWIDTH 680 0
DWIDTH 17 0
BBX 15 22 1 -4
BITMAP
0380
0380
07C0
06C0
0EC0
0EE0
0C60
1C70
1870
1830
3838
3FF8
7FF8
701C
601C
E00C
C00E
C006
0000
0380
0380
0380
ENDCHAR
STARTCHAR 03BA
ENCODING 954
SWIDTH 560 0
DWIDTH 14 0
BBX 12 17 1 -4
BITMAP
1F80
7FC0
70E0
6060
0060
0FE0
7F60
F060
C060
C0E0
E1E0
7F70
3E70
0000
0700
0700
0700
ENDCHAR
STARTCHAR 03BB
ENCODING 955
SWIDTH 680 0
DWIDTH 17 0
BBX 15 23 1 0
BITMAP
0380
00C0
0080
0100
0000
0380
0380
07C0
06C0
0EC0
0EE0
0C60
1C70
1870
1830
3838
3FF8
7FF8
701C
601C
E00C
C00E
C006
ENDCHAR
STARTCHAR 03BC
ENCODING 956
SWIDTH 560 0
DWIDTH 14 0
BBX 12 18 1 0
BITMAP
0600
0100
0100
0600
0000
1F80
7FC0
70E0
6060
0060
0FE0
7F60
F060
C060
C0E0
E1E0
7F70
3E70
ENDCHAR
STARTCHAR 03BD
ENCODING 957
SWIDTH 680 0
DWIDTH 17 0
BBX 15 24 1 0
BITMAP
001C
0018
03B0
06C0
0C60
0000
0380
0380
07C0
06C0
0EC0
0EE0
0C60
1C70
1870
1830
3838
3FF8
7FF8
701C
601C
E00C
C00E
C006
ENDCHAR
STARTCHAR 03BE
ENCODING 958
SWIDTH 560 0
DWIDTH 14 0
BBX 12 20 1 0
BITMAP
0070
00E0
0EC0
1B00
1980
0000
0000
1F80
7FC0
70E0
6060
0060
0FE0
7F60
F060
C060
C0E0
E1E0
7F70
3E70
ENDCHAR
STARTCHAR 03BF
ENCODING 959
SWIDTH 680 0
DWIDTH 17 0
BBX 15 24 1 0
BITMAP
C000
6000
3380
06C0
0CC0
0000
0380
0380
07C0
06C0
0EC0
0EE0
0C60
1C70
1870
1830
3838
3FF8
7FF8
701C
601C
E00C
C00E
C006
ENDCHAR
STARTCHAR 03C0
ENCODING 960
SWIDTH 560 0
DWIDTH 14 0
BBX 13 20 0 0
BITMAP
C000
6000
3700
0D80
0CC0
0000
0000
0FC0
3FE0
3870
3030
0030
07F0
3FB0
7830
6030
6070
70F0
3FB8
1F38
ENDCHAR
STARTCHAR 03C1
ENCODING 961
SWIDTH 680 0
DWIDTH 17 0
BBX 15 25 1 0
BITMAP
0070
0018
0018
03A0
06C0
0C60
0000
0380
0380
07C0
06C0
0EC0
0EE0
0C60
1C70
1870
1830
3838
3FF8
7FF8
701C
601C
E00C
C00E
C006
ENDCHAR
STARTCHAR 03C2
ENCODING 962
SWIDTH 560 0
DWIDTH 14 0
BBX 12 21 1 0
BITMAP
00C0
0020
0060
0E80
1B00
3180
0000
0000
1F80
7FC0
70E0
6060
0060
0FE0
7F60
F060
C060
C0E0
E1E0
7F70
3E70
ENDCHAR
STARTCHAR 03C3
ENCODING 963
SWIDTH 680 0
DWIDTH 17 0
BBX 15 26 1 0
BITMAP
0710
0FF0
19E0
0000
0380
06C0
0CE0
0000
0380
0380
07C0
06C0
0EC0
0EE0
0C60
1C70
1870
1830
3838
3FF8
7FF8
701C
601C
E00C
C00E
C006
ENDCHAR
STARTCHAR 03C4
ENCODING 964
SWIDTH 560 0
DWIDTH 14 0
BBX 12 21 1 0
BITMAP
1C40
3FC0
6780
0000
0E00
1B00
3180
0000
1F80
7FC0
70E0
6060
0060
0FE0
7F60
F060
C060
C0E0
E1E0
7F70
3E70
ENDCHAR
STARTCHAR 03C5
ENCODING 965
SWIDTH 680 0
DWIDTH 17 0
BBX 15 26 1 -4
BITMAP
0380
06C0
0CE0
0000
0380
0380
07C0
06C0
0EC0
0EE0
0C60
1C70
1870
1830
3838
3FF8
7FF8
701C
601C
E00C
C00E
C006
0000
0180
0180
0180
ENDCHAR
STARTCHAR 03C6
ENCODING 966
SWIDTH 560 0
DWIDTH 14 0
BBX 12 22 1 -4
BITMAP
0F00
0F00
1980
0000
0000
1F80
7FC0
70E0
6060
0060
0FE0
7F60
F060
C060
C0E0
E1E0
7F70
3E70
0000
0600
0600
0600
ENDCHAR
STARTCHAR 03C7
ENCODING 967
SWIDTH 680 0
DWIDTH 17 0
BBX 15 25 1 0
BITMAP
00E0
01C0
0180
0830
0C20
07C0
0000
0380
0380
07C0
06C0
0EC0
0EE0
0C60
1C70
1870
1830
3838
3FF8
7FF8
701C
601C
E00C
C00E
C006
ENDCHAR
STARTCHAR 03C8
ENCODING 968
SWIDTH 560 0
DWIDTH 14 0
BBX 12 21 1 0
BITMAP
01C0
0300
0200
1040
18C0
0F80
0000
0000
1F80
7FC0
70E0
6060
0060
0FE0
7F60
F060
C060
C0E0
E1E0
7F70
3E70
ENDCHAR
STARTCHAR 03C9
ENCODING 969
SWIDTH 680 0
DWIDTH 17 0
BBX 15 26 1 0
BITMAP
0E00
0700
0100
0000
0820
0C60
07C0
0000
0380
0380
07C0
06C0
0EC0
0EE0
0C60
1C70
1870
1830
3838
3FF8
7FF8
701C
601C
E00C
C00E
C006
ENDCHAR
STARTCHAR 03CA
ENCODING 970
SWIDTH 560 0
DWIDTH 14 0
BBX 12 22 1 0
BITMAP
1C00
0C00
0600
0000
1040
18C0
0F80
0000
0000
1F80
7FC0
70E0
6060
0060
0FE0
7F60
F060
C060
C0E0
E1E0
7F70
3E70
ENDCHAR
STARTCHAR 03CB
ENCODING 971
SWIDTH 680 0
DWIDTH 17 0
BBX 15 27 1 0
BITMAP
0380
00C0
0080
0100
0000
0820
0C60
07C0
0000
0380
0380
07C0
06C0
0EC0
0EE0
0C60
1C70
1870
1830
3838
3FF8
7FF8
701C
601C
E00C
C00E
C006
ENDCHAR
STARTCHAR 03CC
ENCODING 972
SWIDTH 560 0
DWIDTH 14 0
BBX 12 23 1 0
BITMAP
0700
0100
0100
0200
0000
1040
18C0
0F80
0000
0000
1F80
7FC0
70E0
6060
0060
0FE0
7F60
F060
C060
C0E0
E1E0
7F70
3E70
ENDCHAR
STARTCHAR 03CD
ENCODING 973
SWIDTH 680 0
DWIDTH 17 0
BBX 15 26 1 0
BITMAP
0710
0FF0
08E0
0000
0820
0C60
07C0
0000
0380
0380
07C0
06C0
0EC0
0EE0
0C60
1C70
1870
1830
3838
3FF8
7FF8
701C
601C
E00C
C00E
C006
ENDCHAR
STARTCHAR 03CE
ENCODING 974
SWIDTH 560 0
DWIDTH 14 0
BBX 12 22 1 0
BITMAP
1E60
1FC0
33C0
0000
1040
18C0
0F80
0000
0000
1F80
7FC0
70E0
6060
0060
0FE0
7F60
F060
C060
C0E0
E1E0
7F70
3E70
ENDCHAR
STARTCHAR 03CF
ENCODING 975
SWIDTH 680 0
DWIDTH 17 0
BBX 15 26 1 -4
BITMAP
0820
0C60
07C0
0000
0380
0380
07C0
06C0
0EC0
0EE0
0C60
1C70
1870
1830
3838
3FF8
7FF8
701C
601C
E00C
C00E
C006
0000
0180
0180
0180
ENDCHAR
STARTCHAR 03D0
ENCODING 976
SWIDTH 560 0
DWIDTH 14 0
BBX 12 22 1 -4
BITMAP
1040
18C0
0F80
0000
0000
1F80
7FC0
70E0
6060
0060
0FE0
7F60
F060
C060
C0E0
E1E0
7F70
3E70
0000
0700
0700
0700
ENDCHAR
STARTCHAR 03D1
ENCODING 977
SWIDTH 680 0
DWIDTH 17 0
BBX 13 22 2 -4
BITMAP
FFF8
FFF8
E000
E000
E000
E000
E000
E000
FFF0
FFF0
E000
E000
E000
E000
E000
E000
FFF8
FFF8
0000
0300
0300
0300
ENDCHAR
STARTCHAR 03D2
ENCODING 978
SWIDTH 560 0
DWIDTH 14 0
BBX 12 17 1 -4
BITMAP
1F80
3FC0
70E0
E060
C070
FFF0
FFF0
C000
C070
E060
70E0
3FC0
1F00
0000
0600
0600
0600
ENDCHAR
STARTCHAR 03D3
ENCODING 979
SWIDTH 680 0
DWIDTH 17 0
BBX 13 24 2 0
BITMAP
0700
0180
0100
0200
0000
0000
FFF8
FFF8
E000
E000
E000
E000
E000
E000
FFF0
FFF0
E000
E000
E000
E000
E000
E000
FFF8
FFF8
ENDCHAR
STARTCHAR 03D4
ENCODING 980
SWIDTH 560 0
DWIDTH 14 0
BBX 12 19 1 0
BITMAP
0E00
0300
0300
0400
0000
0000
1F80
3FC0
70E0
E060
C070
FFF0
FFF0
C000
C070
E060
70E0
3FC0
1F00
ENDCHAR
STARTCHAR 03D5
ENCODING 981
SWIDTH 680 0
DWIDTH 17 0
BBX 13 22 2 0
BITMAP
0E20
1FE0
11C0
0000
FFF8
FFF8
E000
E000
E000
E000
E000
E000
FFF0
FFF0
E000
E000
E000
E000
E000
E000
FFF8
FFF8
ENDCHAR
STARTCHAR 03D6
ENCODING 982
SWIDTH 560 0
DWIDTH 14 0
BBX 12 18 1 0
BITMAP
1C40
3FC0
2380
0000
0000
1F80
3FC0
70E0
E060
C070
FFF0
FFF0
C000
C070
E060
70E0
3FC0
1F00
ENDCHAR
STARTCHAR 03D7
ENCODING 983
SWIDTH 680 0
DWIDTH 17 0
BBX 13 25 2 0
BITMAP
0038
0030
0060
0700
0D80
18C0
0000
FFF8
FFF8
E000
E000
E000
E000
E000
E000
FFF0
FFF0
E000
E000
E000
E000
E000
E000
FFF8
FFF8
ENDCHAR
STARTCHAR 03D8
ENCODING 984
SWIDTH 560 0
DWIDTH 14 0
BBX 12 20 1 0
BITMAP
0070
0060
0EC0
1B00
3180
0000
0000
1F80
3FC0
70E0
E060
C070
FFF0
FFF0
C000
C070
E060
70E0
3FC0
1F00
ENDCHAR
STARTCHAR 03D9
ENCODING 985
SWIDTH 680 0
DWIDTH 17 0
BBX 13 25 2 0
BITMAP
E000
7000
3380
06C0
0C60
0000
0000
FFF8
FFF8
E000
E000
E000
E000
E000
E000
FFF0
FFF0
E000
E000
E000
E000
E000
E000
FFF8
FFF8
ENDCHAR
STARTCHAR 03DA
ENCODING 986
SWIDTH 560 0
DWIDTH 14 0
BBX 13 20 0 0
BITMAP
E000
7000
1000
0780
0780
0CC0
0000
0FC0
1FE0
3870
7030
6038
7FF8
7FF8
6000
6038
7030
3870
1FE0
0F80
ENDCHAR
STARTCHAR 03DB
ENCODING 987
SWIDTH 680 0
DWIDTH 17 0
BBX 13 26 2 0
BITMAP
0060
0010
0010
0060
0700
0D80
0CC0
0000
FFF8
FFF8
E000
E000
E000
E000
E000
E000
FFF0
FFF0
E000
E000
E000
E000
E000
E000
FFF8
FFF8
ENDCHAR
STARTCHAR 03DC
ENCODING 988
SWIDTH 560 0
DWIDTH 14 0
BBX 12 21 1 0
BITMAP
00E0
0020
0020
0740
0D80
1980
0000
0000
1F80
3FC0
70E0
E060
C070
FFF0
FFF0
C000
C070
E060
70E0
3FC0
1F00
ENDCHAR
STARTCHAR 03DD
ENCODING 989
SWIDTH 680 0
DWIDTH 17 0
BBX 13 26 2 0
BITMAP
0E20
1FE0
11C0
0000
0700
0D80
18C0
0000
FFF8
FFF8
E000
E000
E000
E000
E000
E000
FFF0
FFF0
E000
E000
E000
E000
E000
E000
FFF8
FFF8
ENDCHAR
STARTCHAR 03DE
ENCODING 990
SWIDTH 560 0
DWIDTH 14 0
BBX 12 21 1 0
BITMAP
1C40
3FC0
2380
0000
0E00
1B00
1980
0000
1F80
3FC0
70E0
E060
C070
FFF0
FFF0
C000
C070
E060
70E0
3FC0
1F00
ENDCHAR
STARTCHAR 03DF
ENCODING 991
SWIDTH 680 0
DWIDTH 17 0
BBX 13 26 2 -4
BITMAP
0700
0D80
18C0
0000
FFF8
FFF8
E000
E000
E000
E000
E000
E000
FFF0
FFF0
E000
E000
E000
E000
E000
E000
FFF8
FFF8
0000
0300
0300
0300
ENDCHAR
STARTCHAR 03E0
ENCODING 992
SWIDTH 560 0
DWIDTH 14 0
BBX 12 22 1 -4
BITMAP
0E00
1B00
3180
0000
0000
1F80
3FC0
70E0
E060
C070
FFF0
FFF0
C000
C070
E060
70E0
3FC0
1F00
0000
0600
0600
0600
ENDCHAR
STARTCHAR 03E1
ENCODING 993
SWIDTH 280 0
DWIDTH 7 0
BBX 3 24 2 0
BITMAP
E0
20
20
40
00
00
E0
E0
E0
E0
E0
E0
E0
E0
E0
E0
E0
E0
E0
E0
E0
E0
E0
E0
ENDCHAR
STARTCHAR 03E2
ENCODING 994
SWIDTH 280 0
DWIDTH 7 0
BBX 3 19 2 0
BITMAP
E0
20
20
40
00
00
E0
E0
E0
E0
E0
E0
E0
E0
E0
E0
E0
E0
E0
ENDCHAR
STARTCHAR 03E3
ENCODING 995
SWIDTH 280 0
DWIDTH 7 0
BBX 3 22 2 -4
BITMAP
E0
E0
E0
E0
E0
E0
E0
E0
E0
E0
E0
E0
E0
E0
E0
E0
E0
E0
00
E0
E0
E0
ENDCHAR
STARTCHAR 03E4
ENCODING 996
SWIDTH 240 0
DWIDTH 6 0
BBX 2 22 2 -4
BITMAP
C0
C0
00
00
00
C0
C0
C0
C0
C0
C0
C0
C0
C0
C0
C0
C0
C0
00
C0
C0
C0
ENDCHAR
STARTCHAR 03E5
ENCODING 997
SWIDTH 760 0
DWIDTH 19 0
BBX 17 22 1 -4
BITMAP
07F000
1FFC00
3C1E00
380700
700380
600380
E00180
E00180
C00180
C00180
E00180
E00180
E00380
700300
700700
3C0E00
1FFC00
07F000
000000
00C000
00C000
00C000
ENDCHAR
STARTCHAR 03E6
ENCODING 998
SWIDTH 560 0
DWIDTH 14 0
BBX 12 17 1 -4
BITMAP
1F80
3FC0
70E0
E060
C070
C030
C030
C070
C070
E060
70E0
7FC0
1F80
0000
0600
0600
0600
ENDCHAR
STARTCHAR 03E7
ENCODING 999
SWIDTH 760 0
DWIDTH 19 0
BBX 17 24 1 0
BITMAP
01C000
006000
004000
008000
000000
000000
07F000
1FFC00
3C1E00
380700
700380
600380
E00180
E00180
C00180
C00180
E00180
E00180
E00380
700300
700700
3C0E00
1FFC00
07F000
ENDCHAR
STARTCHAR 03E8
ENCODING 1000
SWIDTH 560 0
DWIDTH 14 0
BBX 12 19 1 0
BITMAP
0E00
0300
0300
0400
0000
0000
1F80
3FC0
70E0
E060
C070
C030
C030
C070
C070
E060
70E0
7FC0
1F80
ENDCHAR
STARTCHAR 03E9
ENCODING 1001
SWIDTH 760 0
DWIDTH 19 0
BBX 17 25 1 0
BITMAP
000600
000C00
01D800
036000
073000
000000
000000
07F000
1FFC00
3C1E00
380700
700380
600380
E00180
E00180
C00180
C00180
E00180
E00180
E00380
700300
700700
3C0E00
1FFC00
07F000
ENDCHAR
STARTCHAR 03EA
ENCODING 1002
SWIDTH 560 0
DWIDTH 14 0
BBX 12 20 1 0
BITMAP
0030
0060
0FC0
0F00
1980
0000
0000
1F80
3FC0
70E0
E060
C070
C030
C030
C070
C070
E060
70E0
7FC0
1F80
ENDCHAR
STARTCHAR 03EB
ENCODING 1003
SWIDTH 760 0
DWIDTH 19 0
BBX 17 25 1 0
BITMAP
300000
180000
0DC000
036000
063000
000000
000000
07F000
1FFC00
3C1E00
380700
700380
600380
E00180
E00180
C00180
C00180
E00180
E00180
E00380
700300
700700
3C0E00
1FFC00
07F000
ENDCHAR
STARTCHAR 03EC
ENCODING 1004
SWIDTH 560 0
DWIDTH 14 0
BBX 13 20 0 0
BITMAP
E000
6000
3700
0D80
0CC0
0000
0000
0FC0
1FE0
3870
7030
6038
6018
6018
6038
6038
7030
3870
3FE0
0FC0
ENDCHAR
STARTCHAR 03ED
ENCODING 1005
SWIDTH 760 0
DWIDTH 19 0
BBX 17 26 1 0
BITMAP
001C00
000400
000400
000800
00E000
01B000
033000
000000
07F000
1FFC00
3C1E00
380700
700380
600380
E00180
E00180
C00180
C00180
E00180
E00180
E00380
700300
700700
3C0E00
1FFC00
07F000
ENDCHAR
STARTCHAR 03EE
ENCODING 1006
SWIDTH 560 0
DWIDTH 14 0
BBX 12 21 1 0
BITMAP
00E0
0020
0020
0F40
0F00
1980
0000
0000
1F80
3FC0
70E0
E060
C070
C030
C030
C070
C070
E060
70E0
7FC0
1F80
ENDCHAR
STARTCHAR 03EF
ENCODING 1007
SWIDTH 760 0
DWIDTH 19 0
BBX 17 26 1 0
BITMAP
03CC00
03F800
067800
000000
00E000
01B000
031800
000000
07F000
1FFC00
3C1E00
380700
700380
600380
E00180
E00180
C00180
C00180
E00180
E00180
E00380
700300
700700
3C0E00
1FFC00
07F000
ENDCHAR
STARTCHAR 03F0
ENCODING 1008
SWIDTH 560 0
DWIDTH 14 0
BBX 12 22 1 0
BITMAP
1C40
3FC0
2380
0000
0000
0E00
1B00
1980
0000
1F80
3FC0
70E0
E060
C070
C030
C030
C070
C070
E060
70E0
7FC0
1F80
ENDCHAR
STARTCHAR 03F1
ENCODING 1009
SWIDTH 760 0
DWIDTH 19 0
BBX 17 26 1 -4
BITMAP
01C000
036000
063000
000000
07F000
1FFC00
3C1E00
380700
700380
600380
E00180
E00180
C00180
C00180
E00180
E00180
E00380
700300
700700
3C0E00
1FFC00
07F000
000000
00C000
00C000
00C000
ENDCHAR
STARTCHAR 03F2
ENCODING 1010
SWIDTH 560 0
DWIDTH 14 0
BBX 12 22 1 -4
BITMAP
0700
0D80
1980
0000
0000
1F80
3FC0
70E0
E060
C070
C030
C030
C070
C070
E060
70E0
7FC0
1F80
0000
0600
0600
0600
ENDCHAR
STARTCHAR 03F3
ENCODING 1011
SWIDTH 880 0
DWIDTH 22 0
BBX 20 23 1 0
BITMAP
007000
00E000
00C000
000000
000000
07F030
1FFC70
3C1E70
380780
700380
600380
E00180
E00180
C00180
C00180
E00180
E00180
E00380
700300
700700
3C0E00
1FFC00
07F000
ENDCHAR
STARTCHAR 03F4
ENCODING 1012
SWIDTH 680 0
DWIDTH 17 0
BBX 15 19 1 -1
BITMAP
0380
0600
0400
0000
0002
1F0E
3FCE
70F8
E070
C070
C030
C030
C030
C070
C060
E060
70E0
3FC0
1F00
ENDCHAR
STARTCHAR 03F5
ENCODING 1013
SWIDTH 880 0
DWIDTH 22 0
BBX 20 23 1 0
BITMAP
038000
01C000
00C000
000000
000000
07F030
1FFC70
3C1E70
380780
700380
600380
E00180
E00180
C00180
C00180
E00180
E00180
E00380
700300
700700
3C0E00
1FFC00
07F000
ENDCHAR
STARTCHAR 03F6
ENCODING 1014
SWIDTH 680 0
DWIDTH 17 0
BBX 15 19 1 -1
BITMAP
1C00
0600
0300
0000
0002
1F0E
3FCE
70F8
E070
C070
C030
C030
C030
C070
C060
E060
70E0
3FC0
1F00
ENDCHAR
STARTCHAR 03F7
ENCODING 1015
SWIDTH 880 0
DWIDTH 22 0
BBX 20 24 1 0
BITMAP
01C000
006000
004000
008000
000000
000000
07F030
1FFC70
3C1E70
380780
700380
600380
E00180
E00180
C00180
C00180
E00180
E00180
E00380
700300
700700
3C0E00
1FFC00
07F000
ENDCHAR
STARTCHAR 03F8
ENCODING 1016
SWIDTH 680 0
DWIDTH 17 0
BBX 15 20 1 -1
BITMAP
0E00
0300
0300
0400
0000
0002
1F0E
3FCE
70F8
E070
C070
C030
C030
C030
C070
C060
E060
70E0
3FC0
1F00
ENDCHAR
STARTCHAR 03F9
ENCODING 1017
SWIDTH 880 0
DWIDTH 22 0
BBX 20 23 1 0
BITMAP
038800
07F800
047000
000000
000000
07F030
1FFC70
3C1E70
380780
700380
600380
E00180
E00180
C00180
C00180
E00180
E00180
E00380
700300
700700
3C0E00
1FFC00
07F000
ENDCHAR
STARTCHAR 03FA
ENCODING 1018
SWIDTH 680 0
DWIDTH 17 0
BBX 15 19 1 -1
BITMAP
1C40
3FC0
2380
0000
0002
1F0E
3FCE
70F8
E070
C070
C030
C030
C030
C070
C060
E060
70E0
3FC0
1F00
ENDCHAR
STARTCHAR 03FB
ENCODING 1019
SWIDTH 880 0
DWIDTH 22 0
BBX 20 22 1 -4
BITMAP
07F030
1FFC70
3C1E70
380780
700380
600380
E00180
E00180
C00180
C00180
E00180
E00180
E00380
700300
700700
3C0E00
1FFC00
07F000
000000
00C000
00C000
00C000
ENDCHAR
STARTCHAR 03FC
ENCODING 1020
SWIDTH 680 0
DWIDTH 17 0
BBX 15 18 1 -4
BITMAP
0002
1F0E
3FCE
70F8
E070
C070
C030
C030
C030
C070
C060
E060
70E0
3FC0
1F00
0600
0600
0600
ENDCHAR
STARTCHAR 03FD
ENCODING 1021
SWIDTH 720 0
DWIDTH 18 0
BBX 14 22 2 -4
BITMAP
E00C
E00C
E00C
E00C
E00C
E00C
E00C
E00C
E00C
E00C
E00C
E00C
E00C
E01C
7018
7878
3FF0
0FC0
0000
0300
0300
0300
ENDCHAR
STARTCHAR 03FE
ENCODING 1022
SWIDTH 560 0
DWIDTH 14 0
BBX 10 17 2 -4
BITMAP
C0C0
C0C0
C0C0
C0C0
C0C0
C0C0
C0C0
C0C0
C0C0
C1C0
E3C0
FEC0
7CC0
0000
1C00
1C00
1C00
ENDCHAR
STARTCHAR 03FF
ENCODING 1023
SWIDTH 720 0
DWIDTH 18 0
BBX 14 24 2 0
BITMAP
0300
0080
0180
0200
0000
0000
E00C
E00C
E00C
E00C
E00C
E00C
E00C
E00C
E00C
E00C
E00C
E00C
E00C
E01C
7018
7878
3FF0
0FC0
ENDCHAR
STARTCHAR 0400
ENCODING 1024
SWIDTH 560 0
DWIDTH 14 0
BBX 10 19 2 0
BITMAP
1C00
0600
0600
0800
0000
0000
C0C0
C0C0
C0C0
C0C0
C0C0
C0C0
C0C0
C0C0
C0C0
C1C0
E3C0
FEC0
7CC0
ENDCHAR
STARTCHAR 0401
ENCODING 1025
SWIDTH 880 0
DWIDTH 22 0
BBX 19 22 2 0
BITMAP
01C000
038000
030000
000040
E00CE0
E00DE0
E00F00
E00C00
E00C00
E00C00
E00C00
E00C00
E00C00
E00C00
E00C00
E00C00
E00C00
E01C00
701800
787800
3FF000
0FC000
ENDCHAR
STARTCHAR 0402
ENCODING 1026
SWIDTH 680 0
DWIDTH 17 0
BBX 15 18 2 0
BITMAP
0600
0C00
1800
0000
0004
C0CE
C0DE
C0F0
C0C0
C0C0
C0C0
C0C0
C0C0
C0C0
C1C0
E3C0
FEC0
7CC0
ENDCHAR
STARTCHAR 0403
ENCODING 1027
SWIDTH 880 0
DWIDTH 22 0
BBX 19 22 2 0
BITMAP
060000
030000
018000
000040
E00CE0
E00DE0
E00F00
E00C00
E00C00
E00C00
E00C00
E00C00
E00C00
E00C00
E00C00
E00C00
E00C00
E01C00
701800
787800
3FF000
0FC000
ENDCHAR
STARTCHAR 0404
ENCODING 1028
SWIDTH 680 0
DWIDTH 17 0
BBX 15 18 2 0
BITMAP
1800
0C00
0600
0000
0004
C0CE
C0DE
C0F0
C0C0
C0C0
C0C0
C0C0
C0C0
C0C0
C1C0
E3C0
FEC0
7CC0
ENDCHAR
STARTCHAR 0405
ENCODING 1029
SWIDTH 880 0
DWIDTH 22 0
BBX 19 23 2 0
BITMAP
038000
008000
008000
010000
000040
E00CE0
E00DE0
E00F00
E00C00
E00C00
E00C00
E00C00
E00C00
E00C00
E00C00
E00C00
E00C00
E00C00
E01C00
701800
787800
3FF000
0FC000
ENDCHAR
STARTCHAR 0406
ENCODING 1030
SWIDTH 680 0
DWIDTH 17 0
BBX 15 18 2 0
BITMAP
1C00
0600
0600
0800
0004
C0CE
C0DE
C0F0
C0C0
C0C0
C0C0
C0C0
C0C0
C0C0
C1C0
E3C0
FEC0
7CC0
ENDCHAR
STARTCHAR 0407
ENCODING 1031
SWIDTH 880 0
DWIDTH 22 0
BBX 19 22 2 0
BITMAP
0F3000
0FE000
19E000
000040
E00CE0
E00DE0
E00F00
E00C00
E00C00
E00C00
E00C00
E00C00
E00C00
E00C00
E00C00
E00C00
E00C00
E01C00
701800
787800
3FF000
0FC000
ENDCHAR
STARTCHAR 0408
ENCODING 1032
SWIDTH 680 0
DWIDTH 17 0
BBX 15 18 2 0
BITMAP
3880
7F80
4F00
0000
0004
C0CE
C0DE
C0F0
C0C0
C0C0
C0C0
C0C0
C0C0
C0C0
C1C0
E3C0
FEC0
7CC0
ENDCHAR
STARTCHAR 0409
ENCODING 1033
SWIDTH 880 0
DWIDTH 22 0
BBX 19 23 2 -4
BITMAP
000040
E00CE0
E00DE0
E00F00
E00C00
E00C00
E00C00
E00C00
E00C00
E00C00
E00C00
E00C00
E00C00
E00C00
E01C00
701800
787800
3FF000
0FC000
000000
030000
030000
030000
ENDCHAR
STARTCHAR 040A
ENCODING 1034
SWIDTH 680 0
DWIDTH 17 0
BBX 15 18 2 -4
BITMAP
0004
C0CE
C0DE
C0F0
C0C0
C0C0
C0C0
C0C0
C0C0
C0C0
C1C0
E3C0
FEC0
7CC0
0000
0C00
0C00
0C00
ENDCHAR
STARTCHAR 040B
ENCODING 1035
SWIDTH 680 0
DWIDTH 17 0
BBX 15 22 1 0
BITMAP
0600
0300
0180
0000
E00E
E00E
701C
3018
3838
1C70
1C70
0EE0
06C0
07C0
0380
0380
0380
0380
0380
0380
0380
0380
ENDCHAR
STARTCHAR 040C
ENCODING 1036
SWIDTH 520 0
DWIDTH 13 0
BBX 12 23 0 -5
BITMAP
0C00
0600
0300
0000
0000
E030
6070
7060
7060
30E0
38C0
38C0
19C0
1D80
1D80
0F00
0F00
0700
0600
0600
0C00
7C00
7800
ENDCHAR
STARTCHAR 040D
ENCODING 1037
SWIDTH 680 0
DWIDTH 17 0
BBX 15 22 1 -4
BITMAP
E00E
E00E
701C
3018
3838
1C70
1C70
0EE0
06C0
07C0
0380
0380
0380
0380
0380
0380
0380
0380
0000
0380
0380
0380
ENDCHAR
STARTCHAR 040E
ENCODING 1038
SWIDTH 520 0
DWIDTH 13 0
BBX 12 22 0 -9
BITMAP
E030
6070
7060
7060
30E0
38C0
38C0
19C0
1D80
1D80
0F00
0F00
0700
0600
0600
0C00
7C00
7800
0000
0700
0700
0700
ENDCHAR
STARTCHAR 040F
ENCODING 1039
SWIDTH 680 0
DWIDTH 17 0
BBX 15 23 1 0
BITMAP
0380
0080
0080
0100
0000
E00E
E00E
701C
3018
3838
1C70
1C70
0EE0
06C0
07C0
0380
0380
0380
0380
0380
0380
0380
0380
ENDCHAR
STARTCHAR 0410
ENCODING 1040
SWIDTH 520 0
DWIDTH 13 0
BBX 12 23 0 -5
BITMAP
0600
0100
0100
0600
0000
E030
6070
7060
7060
30E0
38C0
38C0
19C0
1D80
1D80
0F00
0F00
0700
0600
0600
0C00
7C00
7800
ENDCHAR
STARTCHAR 0411
ENCODING 1041
SWIDTH 680 0
DWIDTH 17 0
BBX 15 22 1 0
BITMAP
0710
0FF0
08E0
0000
E00E
E00E
701C
3018
3838
1C70
1C70
0EE0
06C0
07C0
0380
0380
0380
0380
0380
0380
0380
0380
ENDCHAR
STARTCHAR 0412
ENCODING 1042
SWIDTH 520 0
DWIDTH 13 0
BBX 12 23 0 -5
BITMAP
1E60
1FC0
33C0
0000
0000
E030
6070
7060
7060
30E0
38C0
38C0
19C0
1D80
1D80
0F00
0F00
0700
0600
0600
0C00
7C00
7800
ENDCHAR
STARTCHAR 0413
ENCODING 1043
SWIDTH 680 0
DWIDTH 17 0
BBX 13 25 2 0
BITMAP
1FC0
0000
0000
0700
0D80
18C0
0000
FFF8
FFF8
E000
E000
E000
E000
E000
E000
FFF0
FFF0
E000
E000
E000
E000
E000
E000
FFF8
FFF8
ENDCHAR
STARTCHAR 0414
ENCODING 1044
SWIDTH 560 0
DWIDTH 14 0
BBX 12 20 1 0
BITMAP
3FC0
0000
0000
0F00
0F80
1980
0000
1F80
3FC0
70E0
E060
C070
FFF0
FFF0
C000
C070
E060
70E0
3FC0
1F00
ENDCHAR
STARTCHAR 0415
ENCODING 1045
SWIDTH 680 0
DWIDTH 17 0
BBX 13 26 2 0
BITMAP
18C0
0D80
0700
0000
0700
0D80
18C0
0000
FFF8
FFF8
E000
E000
E000
E000
E000
E000
FFF0
FFF0
E000
E000
E000
E000
E000
E000
FFF8
FFF8
ENDCHAR
STARTCHAR 0416
ENCODING 1046
SWIDTH 560 0
DWIDTH 14 0
BBX 12 22 1 0
BITMAP
18C0
0D80
0700
0000
0700
0D80
19C0
0000
0000
1F80
3FC0
70E0
E060
C070
FFF0
FFF0
C000
C070
E060
70E0
3FC0
1F00
ENDCHAR
STARTCHAR 0417
ENCODING 1047
SWIDTH 680 0
DWIDTH 17 0
BBX 14 23 1 0
BITMAP
0600
0300
0180
0000
0000
FFFC
FFFC
E000
E000
E000
E000
E000
E000
FFF8
FFF8
E000
E000
E000
E000
E000
E000
FFFC
FFFC
ENDCHAR
STARTCHAR 0418
ENCODING 1048
SWIDTH 720 0
DWIDTH 18 0
BBX 14 23 2 0
BITMAP
0E00
0700
0300
0000
0000
C01C
C03C
C03C
C07C
C06C
C0CC
C1CC
C18C
C38C
C70C
C60C
CE0C
CC0C
D80C
F80C
F00C
F00C
E00C
ENDCHAR
STARTCHAR 0419
ENCODING 1049
SWIDTH 560 0
DWIDTH 14 0
BBX 12 18 1 0
BITMAP
0C00
0600
0300
0000
0F80
3FC0
70E0
6060
E070
C030
FFF0
FFF0
C000
E070
6060
70E0
3FC0
1F00
ENDCHAR
STARTCHAR 041A
ENCODING 1050
SWIDTH 560 0
DWIDTH 14 0
BBX 11 18 2 0
BITMAP
1800
0C00
0600
0000
0000
C0E0
C1E0
C1E0
C360
C760
C660
CC60
CC60
D860
F060
F060
E060
E060
ENDCHAR
STARTCHAR 041B
ENCODING 1051
SWIDTH 880 0
DWIDTH 22 0
BBX 23 23 1 0
BITMAP
008200
00C600
007C00
000000
000000
E0380E
F0381C
70381C
383838
1C3870
0E38E0
0639C0
033980
03FF80
03FF80
0739C0
0E39E0
1E38E0
1C3870
383838
70383C
F0381E
E0380E
ENDCHAR
STARTCHAR 041C
ENCODING 1052
SWIDTH 680 0
DWIDTH 17 0
BBX 18 18 1 0
BITMAP
041800
061000
03E000
000000
000000
E0C1C0
70C380
30C700
38CE00
1CDC00
0FF800
0FF800
0CDC00
18CE00
38C600
70C300
E0C380
C0C1C0
ENDCHAR
STARTCHAR 041D
ENCODING 1053
SWIDTH 680 0
DWIDTH 17 0
BBX 15 23 1 0
BITMAP
0820
0C60
07C0
0000
0000
0380
03C0
07C0
06C0
0EE0
0EE0
0C60
1C70
1C70
1838
3838
3FF8
7FFC
701C
600C
E00E
E00E
C006
ENDCHAR
STARTCHAR 041E
ENCODING 1054
SWIDTH 560 0
DWIDTH 14 0
BBX 12 18 1 0
BITMAP
20C0
3080
1F00
0000
1F80
7FC0
60E0
E0E0
0060
00E0
3FE0
7CE0
E0E0
C0E0
C0E0
E1E0
7F70
3C30
ENDCHAR
STARTCHAR 041F
ENCODING 1055
SWIDTH 680 0
DWIDTH 17 0
BBX 15 22 1 0
BITMAP
0EE0
0EE0
0EE0
0000
0380
03C0
07C0
06C0
0EE0
0EE0
0C60
1C70
1C70
1838
3838
3FF8
7FFC
701C
600C
E00E
E00E
C006
ENDCHAR
STARTCHAR 0420
ENCODING 1056
SWIDTH 560 0
DWIDTH 14 0
BBX 12 18 1 0
BITMAP
1980
1980
1980
0000
1F80
7FC0
60E0
E0E0
0060
00E0
3FE0
7CE0
E0E0
C0E0
C0E0
E1E0
7F70
3C30
ENDCHAR
STARTCHAR 0421
ENCODING 1057
SWIDTH 680 0
DWIDTH 17 0
BBX 14 23 1 0
BITMAP
0C10
0420
03C0
0000
0000
FFFC
FFFC
E000
E000
E000
E000
E000
E000
FFF8
FFF8
E000
E000
E000
E000
E000
E000
FFFC
FFFC
ENDCHAR
STARTCHAR 0422
ENCODING 1058
SWIDTH 560 0
DWIDTH 14 0
BBX 12 18 1 0
BITMAP
3040
18C0
0F00
0000
0F80
3FC0
70E0
6060
E070
C030
FFF0
FFF0
C000
E070
6060
70E0
3FC0
1F00
ENDCHAR
STARTCHAR 0423
ENCODING 1059
SWIDTH 1120 0
DWIDTH 28 0
BBX 23 22 1 0
BITMAP
006600
006600
006600
000000
E0380E
70381E
70381C
383838
1C3870
0E38E0
0739C0
033980
03FF80
03FF80
0739C0
0F39E0
0E38F0
1C3870
383838
70381C
F0381E
E0380E
ENDCHAR
STARTCHAR 0424
ENCODING 1060
SWIDTH 840 0
DWIDTH 21 0
BBX 18 17 1 0
BITMAP
033000
033000
033000
000000
E0C1C0
60C380
30C700
38CE00
1CDC00
0FF800
0FF800
0CDC00
18CE00
38C600
70C300
E0C380
C0C1C0
ENDCHAR
STARTCHAR 0425
ENCODING 1061
SWIDTH 680 0
DWIDTH 17 0
BBX 15 23 1 0
BITMAP
0EE0
0EE0
0EE0
0000
0000
0FE0
3FF0
7838
601C
600C
E00C
001C
0038
07F0
07F8
001C
000C
C00E
E00E
E00C
703C
3FF8
0FE0
ENDCHAR
STARTCHAR 0426
ENCODING 1062
SWIDTH 520 0
DWIDTH 13 0
BBX 11 18 1 0
BITMAP
3300
3300
3300
0000
1F00
7F80
61C0
C0C0
00C0
01C0
0F80
0FC0
00C0
00E0
C0E0
E1C0
7F80
3F00
ENDCHAR
STARTCHAR 0427
ENCODING 1063
SWIDTH 720 0
DWIDTH 18 0
BBX 14 21 2 0
BITMAP
0FE0
0000
0000
C01C
C03C
C03C
C07C
C06C
C0CC
C1CC
C18C
C38C
C70C
C60C
CE0C
CC0C
D80C
F80C
F00C
F00C
E00C
ENDCHAR
STARTCHAR 0428
ENCODING 1064
SWIDTH 560 0
DWIDTH 14 0
BBX 11 16 2 0
BITMAP
7F80
0000
0000
C0E0
C1E0
C1E0
C360
C760
C660
CC60
CC60
D860
F060
F060
E060
E060
ENDCHAR
STARTCHAR 0429
ENCODING 1065
SWIDTH 720 0
DWIDTH 18 0
BBX 14 22 2 0
BITMAP
0CC0
0CC0
0CC0
0000
C01C
C03C
C03C
C07C
C06C
C0CC
C1CC
C18C
C38C
C70C
C60C
CE0C
CC0C
D80C
F80C
F00C
F00C
E00C
ENDCHAR
STARTCHAR 042A
ENCODING 1066
SWIDTH 560 0
DWIDTH 14 0
BBX 11 17 2 0
BITMAP
3300
3300
3300
0000
C0E0
C1E0
C1E0
C360
C760
C660
CC60
CC60
D860
F060
F060
E060
E060
ENDCHAR
STARTCHAR 042B
ENCODING 1067
SWIDTH 800 0
DWIDTH 20 0
BBX 17 23 1 0
BITMAP
033000
033000
033000
000000
000000
07F000
1FFC00
3C1E00
700700
700380
600380
E00180
C00180
C00180
C00180
C00180
E00180
600380
700300
300700
3C1E00
0FFC00
03F000
ENDCHAR
STARTCHAR 042C
ENCODING 1068
SWIDTH 560 0
DWIDTH 14 0
BBX 12 18 1 0
BITMAP
1980
1980
1980
0000
1F80
3FC0
70E0
6070
E070
C030
C030
C030
C030
E070
6070
70E0
3FC0
1F80
ENDCHAR
STARTCHAR 042D
ENCODING 1069
SWIDTH 720 0
DWIDTH 18 0
BBX 16 23 1 0
BITMAP
0660
0660
0660
0000
0000
07E0
1FF8
383C
700E
6006
E007
0007
0007
01FF
01FF
0007
E007
E006
6006
700E
383C
1FF8
07E0
ENDCHAR
STARTCHAR 042E
ENCODING 1070
SWIDTH 520 0
DWIDTH 13 0
BBX 11 18 1 0
BITMAP
3300
3300
3300
0000
1F00
7F80
61C0
C0C0
C0E0
00E0
0060
0FE0
0FE0
C0E0
C0C0
61C0
7F80
1F00
ENDCHAR
STARTCHAR 042F
ENCODING 1071
SWIDTH 680 0
DWIDTH 17 0
BBX 16 21 0 0
BITMAP
07F0
0000
0000
E007
7006
700E
380E
180C
1C1C
0C18
0E18
0630
0730
0370
03E0
01E0
01C0
01C0
1180
1F80
1F00
ENDCHAR
STARTCHAR 0430
ENCODING 1072
SWIDTH 520 0
DWIDTH 13 0
BBX 12 21 0 -5
BITMAP
3FC0
0000
0000
E030
6070
7060
3060
30E0
38C0
18C0
1980
1D80
0D80
0F00
0700
0700
0600
0600
0C00
3C00
3800
ENDCHAR
STARTCHAR 0431
ENCODING 1073
SWIDTH 680 0
DWIDTH 17 0
BBX 16 22 0 0
BITMAP
0770
0770
0770
0000
E007
7006
700E
380E
180C
1C1C
0C18
0E18
0630
0730
0370
03E0
01E0
01C0
01C0
1180
1F80
1F00
ENDCHAR
STARTCHAR 0432
ENCODING 1074
SWIDTH 520 0
DWIDTH 13 0
BBX 12 22 0 -5
BITMAP
1980
1980
1980
0000
E030
6070
7060
3060
30E0
38C0
18C0
1980
1D80
0D80
0F00
0700
0700
0600
0600
0C00
3C00
3800
ENDCHAR
STARTCHAR 0433
ENCODING 1075
SWIDTH 680 0
DWIDTH 17 0
BBX 16 24 0 0
BITMAP
0198
03B8
0330
0620
0000
0000
E007
7006
700E
380E
180C
1C1C
0C18
0E18
0630
0730
0370
03E0
01E0
01C0
01C0
1180
1F80
1F00
ENDCHAR
STARTCHAR 0434
ENCODING 1076
SWIDTH 520 0
DWIDTH 13 0
BBX 12 24 0 -5
BITMAP
0EE0
0CC0
0CC0
1980
0000
0000
E030
6070
7060
3060
30E0
38C0
18C0
1980
1D80
0D80
0F00
0700
0700
0600
0600
0C00
3C00
3800
ENDCHAR
STARTCHAR 0435
ENCODING 1077
SWIDTH 720 0
DWIDTH 18 0
BBX 13 22 1 0
BITMAP
0CC0
0CC0
0CC0
0000
E018
E018
E018
E018
E018
E018
E018
E018
7038
7FF8
1FD8
0018
0018
0018
0018
0018
0018
0018
ENDCHAR
STARTCHAR 0436
ENCODING 1078
SWIDTH 560 0
DWIDTH 14 0
BBX 11 17 1 0
BITMAP
3B80
3B80
3B80
0000
E060
E060
E060
E060
E060
F060
7FE0
3FE0
0060
0060
0060
0060
0060
ENDCHAR
STARTCHAR 0437
ENCODING 1079
SWIDTH 920 0
DWIDTH 23 0
BBX 18 22 2 0
BITMAP
03B800
03B800
03B800
000000
C000C0
C000C0
C000C0
C000C0
C000C0
C000C0
C000C0
C000C0
FFC0C0
FFF0C0
C078C0
C038C0
C018C0
C018C0
C038C0
C078C0
FFF0C0
FFC0C0
ENDCHAR
STARTCHAR 0438
ENCODING 1080
SWIDTH 760 0
DWIDTH 19 0
BBX 14 17 2 0
BITMAP
0EE0
0EE0
0EE0
0000
C00C
C00C
C00C
C00C
C00C
FF0C
FFCC
C1CC
C0CC
C0CC
C1CC
FFCC
FF0C
ENDCHAR
STARTCHAR 0439
ENCODING 1081
SWIDTH 1000 0
DWIDTH 25 0
BBX 24 18 0 0
BITMAP
01FFFF
01FFFF
039C00
031C00
031C00
071C00
061C00
0E1C00
0E1FFE
0C1FFE
1C1C00
1FFC00
3FFC00
381C00
301C00
701C00
601FFF
E01FFF
ENDCHAR
STARTCHAR 043A
ENCODING 1082
SWIDTH 880 0
DWIDTH 22 0
BBX 20 13 1 0
BITMAP
1F0F80
7FDFE0
60F0E0
E06070
00E030
1FFFF0
7F7FF0
E06000
C0E030
C0E070
E3B0E0
7F3FC0
3E0F80
ENDCHAR
STARTCHAR 043B
ENCODING 1083
SWIDTH 840 0
DWIDTH 21 0
BBX 17 22 2 0
BITMAP
030000
018000
00C000
000000
F00780
F00780
F00780
F80F80
D80D80
D80D80
DC1D80
CC1980
CC1980
CE3980
C63180
C63180
C77180
C36180
C36180
C3E180
C1C180
C1C180
ENDCHAR
STARTCHAR 043C
ENCODING 1084
SWIDTH 840 0
DWIDTH 21 0
BBX 17 18 2 0
BITMAP
038000
018000
00C000
000000
000000
CF1E00
FFBF00
E1E380
C1C180
C1C180
C1C180
C1C180
C1C180
C1C180
C1C180
C1C180
C1C180
C1C180
ENDCHAR
STARTCHAR 043D
ENCODING 1085
SWIDTH 720 0
DWIDTH 18 0
BBX 15 22 2 0
BITMAP
1820
0840
0780
0000
FFF0
FFF8
E01C
E00C
E00C
E00C
E00C
E01C
FFF8
FFF8
E01C
E01C
E00C
E00C
E00C
E00C
E00C
E00E
ENDCHAR
STARTCHAR 043E
ENCODING 1086
SWIDTH 320 0
DWIDTH 8 0
BBX 8 18 1 0
BITMAP
83
C2
7C
00
00
6E
7E
70
60
60
60
60
60
60
60
60
60
60
ENDCHAR
STARTCHAR 043F
ENCODING 1087
SWIDTH 280 0
DWIDTH 7 0
BBX 8 7 -1 14
BITMAP
3E
43
C1
00
00
36
36
ENDCHAR
STARTCHAR 0440
ENCODING 1088
SWIDTH 680 0
DWIDTH 17 0
BBX 15 18 1 0
BITMAP
0380
0380
07C0
06C0
0EC0
0CE0
0C60
1C60
1870
1830
3838
3FF8
7FF8
701C
601C
E00C
C00E
C006
ENDCHAR
STARTCHAR 0441
ENCODING 1089
SWIDTH 720 0
DWIDTH 18 0
BBX 14 18 2 0
BITMAP
FFE0
FFF0
E038
E018
E01C
E01C
E018
E038
FFE0
FFF8
E01C
E00C
E00C
E00C
E00C
E01C
FFF8
FFE0
ENDCHAR
STARTCHAR 0442
ENCODING 1090
SWIDTH 600 0
DWIDTH 15 0
BBX 12 18 3 0
BITMAP
FFF0
FFF0
C000
C000
C000
C000
C000
C000
C000
C000
C000
C000
C000
C000
C000
C000
C000
C000
ENDCHAR
STARTCHAR 0443
ENCODING 1091
SWIDTH 720 0
DWIDTH 18 0
BBX 16 18 1 0
BITMAP
0380
03C0
03C0
07E0
0660
0E70
0C70
0C30
1C38
1818
381C
300C
300C
700E
6006
E007
FFFF
FFFF
ENDCHAR
STARTCHAR 0444
ENCODING 1092
SWIDTH 680 0
DWIDTH 17 0
BBX 13 18 2 0
BITMAP
FFF8
FFF8
E000
E000
E000
E000
E000
E000
FFF0
FFF0
E000
E000
E000
E000
E000
E000
FFF8
FFF8
ENDCHAR
STARTCHAR 0445
ENCODING 1093
SWIDTH 600 0
DWIDTH 15 0
BBX 13 18 1 0
BITMAP
7FF8
7FF8
0038
0070
00E0
00E0
01C0
0380
0700
0700
0E00
1C00
3800
3800
7000
E000
FFF8
FFF8
ENDCHAR
STARTCHAR 0446
ENCODING 1094
SWIDTH 720 0
DWIDTH 18 0
BBX 14 18 2 0
BITMAP
E01C
E01C
E01C
E01C
E01C
E01C
E01C
E01C
FFFC
FFFC
E01C
E01C
E01C
E01C
E01C
E01C
E01C
E01C
ENDCHAR
STARTCHAR 0447
ENCODING 1095
SWIDTH 760 0
DWIDTH 19 0
BBX 17 18 1 0
BITMAP
03F000
0FFC00
1C1E00
380700
700300
600380
600380
E00180
E7F980
E7F980
E00180
600380
600380
700700
380700
1C1E00
0FFC00
07F000
ENDCHAR
STARTCHAR 0448
ENCODING 1096
SWIDTH 280 0
DWIDTH 7 0
BBX 3 18 2 0
BITMAP
E0
E0
E0
E0
E0
E0
E0
E0
E0
E0
E0
E0
E0
E0
E0
E0
E0
E0
ENDCHAR
STARTCHAR 0449
ENCODING 1097
SWIDTH 680 0
DWIDTH 17 0
BBX 14 18 2 0
BITMAP
E01C
E038
E070
E0E0
E1C0
E380
E700
EE00
FF00
FF80
F380
E1C0
E0E0
E0E0
E070
E038
E038
E01C
ENDCHAR
STARTCHAR 044A
ENCODING 1098
SWIDTH 680 0
DWIDTH 17 0
BBX 15 18 1 0
BITMAP
0380
0780
07C0
07C0
0EC0
0CE0
0CE0
1C60
1870
1830
3830
3038
3018
7018
601C
E00C
E00E
C00E
ENDCHAR
STARTCHAR 044B
ENCODING 1099
SWIDTH 880 0
DWIDTH 22 0
BBX 18 18 2 0
BITMAP
F003C0
F003C0
F803C0
F806C0
F806C0
EC06C0
EC0CC0
EC0CC0
E60CC0
E618C0
E618C0
E318C0
E330C0
E330C0
E1E0C0
E1E0C0
E1E0C0
E0C0C0
ENDCHAR
STARTCHAR 044C
ENCODING 1100
SWIDTH 720 0
DWIDTH 18 0
BBX 14 18 2 0
BITMAP
E00C
F00C
F00C
F80C
DC0C
CC0C
CE0C
C60C
C30C
C38C
C18C
C1CC
C0CC
C06C
C07C
C03C
C01C
C01C
ENDCHAR
STARTCHAR 044D
ENCODING 1101
SWIDTH 600 0
DWIDTH 15 0
BBX 13 18 1 0
BITMAP
FFF8
FFF8
0000
0000
0000
0000
0000
0000
7FF0
7FF0
0000
0000
0000
0000
0000
0000
FFF8
FFF8
ENDCHAR
STARTCHAR 044E
ENCODING 1102
SWIDTH 760 0
DWIDTH 19 0
BBX 17 18 1 0
BITMAP
03F000
0FFC00
1C1E00
380700
700300
600380
600380
E00180
E00180
E00180
E00180
600380
600380
700700
380700
1C1E00
0FFC00
07F000
ENDCHAR
STARTCHAR 044F
ENCODING 1103
SWIDTH 720 0
DWIDTH 18 0
BBX 14 18 2 0
BITMAP
FFFC
FFFC
E01C
E01C
E01C
E01C
E01C
E01C
E01C
E01C
E01C
E01C
E01C
E01C
E01C
E01C
E01C
E01C
ENDCHAR
STARTCHAR 0450
ENCODING 1104
SWIDTH 680 0
DWIDTH 17 0
BBX 13 18 2 0
BITMAP
FFE0
FFF0
E038
E018
E018
E018
E018
E018
E078
FFF0
FFC0
E000
E000
E000
E000
E000
E000
E000
ENDCHAR
STARTCHAR 0451
ENCODING 1105
SWIDTH 600 0
DWIDTH 15 0
BBX 13 18 1 0
BITMAP
FFF8
FFF8
7000
3800
1C00
0E00
0700
0380
01C0
0380
0700
0E00
1C00
3C00
7800
F000
FFF8
FFF8
ENDCHAR
STARTCHAR 0452
ENCODING 1106
SWIDTH 600 0
DWIDTH 15 0
BBX 14 18 1 0
BITMAP
FFFC
FFFC
0700
0700
0700
0700
0700
0700
0700
0700
0700
0700
0700
0700
0700
0700
0700
0700
ENDCHAR
STARTCHAR 0453
ENCODING 1107
SWIDTH 680 0
DWIDTH 17 0
BBX 15 18 1 0
BITMAP
E00E
E00C
701C
3838
3830
1C70
0C60
0EE0
07C0
0380
0380
0380
0380
0380
0380
0380
0380
0380
ENDCHAR
STARTCHAR 0454
ENCODING 1108
SWIDTH 720 0
DWIDTH 18 0
BBX 16 18 1 0
BITMAP
0180
0180
0FF0
3FFC
799E
6186
E187
E187
C183
C183
E183
E187
7186
799E
3FFC
0FF0
0180
0180
ENDCHAR
STARTCHAR 0455
ENCODING 1109
SWIDTH 680 0
DWIDTH 17 0
BBX 15 18 1 0
BITMAP
E01C
701C
3838
3870
1C70
0EE0
0EC0
07C0
0380
0780
07C0
0EE0
1C60
1C70
3838
7038
701C
E00E
ENDCHAR
STARTCHAR 0456
ENCODING 1110
SWIDTH 840 0
DWIDTH 21 0
BBX 17 18 2 0
BITMAP
C1C180
C1C180
C1C180
C1C180
C1C180
C1C180
C1C180
C1C180
C1C180
C1C180
C1C380
E1C380
79CF00
3FFE00
0FF800
01C000
01C000
01C000
ENDCHAR
STARTCHAR 0457
ENCODING 1111
SWIDTH 760 0
DWIDTH 19 0
BBX 17 18 1 0
BITMAP
07F000
1FFC00
3C1E00
380700
700300
600380
600380
E00180
E00180
E00180
600380
600380
700300
300700
180E00
0E1C00
FE3F80
FE3F80
ENDCHAR
STARTCHAR 0458
ENCODING 1112
SWIDTH 280 0
DWIDTH 7 0
BBX 7 22 0 0
BITMAP
C6
C6
C6
00
38
38
38
38
38
38
38
38
38
38
38
38
38
38
38
38
38
38
ENDCHAR
STARTCHAR 0459
ENCODING 1113
SWIDTH 680 0
DWIDTH 17 0
BBX 15 22 1 0
BITMAP
0CE0
0CE0
0CE0
0000
E00E
E00C
701C
3018
3838
1C70
0C60
0EE0
07C0
0380
0380
0380
0380
0380
0380
0380
0380
0380
ENDCHAR
STARTCHAR 045A
ENCODING 1114
SWIDTH 600 0
DWIDTH 15 0
BBX 13 13 1 0
BITMAP
1F30
3FB0
70F0
6070
E070
C030
C030
C030
E070
6070
70F0
3FB8
1F18
ENDCHAR
STARTCHAR 045B
ENCODING 1115
SWIDTH 600 0
DWIDTH 15 0
BBX 12 23 2 -5
BITMAP
1F00
3FC0
70E0
E0E0
E060
C060
C0E0
C1C0
CF80
CFC0
C0E0
C070
C030
E030
E070
F0E0
DFE0
CF80
C000
C000
C000
C000
C000
ENDCHAR
STARTCHAR 045C
ENCODING 1116
SWIDTH 560 0
DWIDTH 14 0
BBX 13 18 0 -5
BITMAP
E018
F018
3030
3830
1870
1860
0CE0
0CC0
0EC0
07C0
0780
0380
0300
0300
0300
0300
0300
0300
ENDCHAR
STARTCHAR 045D
ENCODING 1117
SWIDTH 600 0
DWIDTH 15 0
BBX 13 18 1 0
BITMAP
3FE0
3FE0
1800
0E00
0300
0FC0
3FE0
7870
7030
E038
E018
E018
E038
E038
7030
7870
3FE0
0F80
ENDCHAR
STARTCHAR 045E
ENCODING 1118
SWIDTH 560 0
DWIDTH 14 0
BBX 11 13 1 0
BITMAP
1F00
3FC0
70E0
6060
7000
3E00
3E00
6000
E060
E060
70E0
7FC0
1F80
ENDCHAR
STARTCHAR 045F
ENCODING 1119
SWIDTH 440 0
DWIDTH 11 0
BBX 10 23 1 -5
BITMAP
7FC0
7FC0
0300
0600
0C00
1800
3000
7000
6000
E000
C000
C000
C000
C000
E000
E000
7F80
3FC0
00C0
00C0
00C0
00C0
0180
ENDCHAR
STARTCHAR 0460
ENCODING 1120
SWIDTH 600 0
DWIDTH 15 0
BBX 12 18 1 -5
BITMAP
E7C0
EFE0
7870
7030
7030
7030
7030
7030
7030
7030
7030
7030
7030
0030
0030
0030
0030
0030
ENDCHAR
STARTCHAR 0461
ENCODING 1121
SWIDTH 600 0
DWIDTH 15 0
BBX 12 18 2 0
BITMAP
1F00
3F80
71C0
60E0
E060
C060
C060
C070
FFF0
FFF0
C070
C060
C060
E060
E0E0
71C0
3FC0
1F00
ENDCHAR
STARTCHAR 0462
ENCODING 1122
SWIDTH 280 0
DWIDTH 7 0
BBX 4 13 2 0
BITMAP
C0
C0
C0
C0
C0
C0
C0
C0
C0
C0
E0
F0
70
ENDCHAR
STARTCHAR 0463
ENCODING 1123
SWIDTH 560 0
DWIDTH 14 0
BBX 11 13 2 0
BITMAP
C1E0
C380
C700
CE00
DC00
FC00
FE00
E700
C300
C380
C1C0
C0C0
C0E0
ENDCHAR
STARTCHAR 0464
ENCODING 1124
SWIDTH 560 0
DWIDTH 14 0
BBX 12 18 1 0
BITMAP
7000
7800
1C00
0C00
0C00
0600
0E00
0F00
1F00
1B00
3980
3180
31C0
70C0
60C0
E0E0
C070
C030
ENDCHAR
STARTCHAR 0465
ENCODING 1125
SWIDTH 600 0
DWIDTH 15 0
BBX 13 18 2 -5
BITMAP
E060
E060
E060
E060
E060
E060
E060
E060
E060
E0E0
F0E0
FFF8
EF38
E000
E000
E000
E000
E000
ENDCHAR
STARTCHAR 0466
ENCODING 1126
SWIDTH 560 0
DWIDTH 14 0
BBX 12 13 1 0
BITMAP
C030
E070
6060
7060
30C0
30C0
39C0
1980
1980
0F80
0F00
0F00
0600
ENDCHAR
STARTCHAR 0467
ENCODING 1127
SWIDTH 520 0
DWIDTH 13 0
BBX 11 23 1 -5
BITMAP
7FC0
7FC0
1800
3000
3000
7000
7000
3800
1FC0
3FC0
7000
6000
E000
E000
6000
7000
3FC0
1FE0
0060
0060
0060
0060
00C0
ENDCHAR
STARTCHAR 0468
ENCODING 1128
SWIDTH 600 0
DWIDTH 15 0
BBX 13 13 1 0
BITMAP
0F80
3FE0
7870
7030
6038
E038
E018
E038
6038
7030
7870
3FE0
0F80
ENDCHAR
STARTCHAR 0469
ENCODING 1129
SWIDTH 600 0
DWIDTH 15 0
BBX 12 18 2 -5
BITMAP
1F80
3FC0
70E0
6060
E070
C030
C030
C030
E070
E060
F0E0
DFC0
CF80
C000
C000
C000
C000
C000
ENDCHAR
STARTCHAR 046A
ENCODING 1130
SWIDTH 560 0
DWIDTH 14 0
BBX 12 18 1 -5
BITMAP
1F80
3FC0
70E0
E070
E070
C000
C000
C000
E000
7000
7C00
1F80
07E0
00E0
0060
0060
00C0
00C0
ENDCHAR
STARTCHAR 046B
ENCODING 1131
SWIDTH 600 0
DWIDTH 15 0
BBX 14 13 1 0
BITMAP
0FFC
3FFC
7870
7030
6038
E038
E018
E038
6038
7030
7870
3FE0
0F80
ENDCHAR
STARTCHAR 046C
ENCODING 1132
SWIDTH 520 0
DWIDTH 13 0
BBX 11 13 1 0
BITMAP
FFE0
FFE0
0C00
0C00
0C00
0C00
0C00
0C00
0C00
0C00
0C00
0F00
0700
ENDCHAR
STARTCHAR 046D
ENCODING 1133
SWIDTH 600 0
DWIDTH 15 0
BBX 11 13 2 0
BITMAP
E060
E060
E060
E060
E060
E060
E060
E060
E060
E0E0
70E0
7FC0
1F00
ENDCHAR
STARTCHAR 046E
ENCODING 1134
SWIDTH 720 0
DWIDTH 18 0
BBX 16 21 1 -5
BITMAP
0180
0180
0180
0FF0
3FFC
399C
6186
6186
6187
E187
E187
6186
718E
399C
1FF8
0FF0
0180
0180
0180
0180
0180
ENDCHAR
STARTCHAR 046F
ENCODING 1135
SWIDTH 560 0
DWIDTH 14 0
BBX 14 18 0 -5
BITMAP
E038
F030
3070
1860
1CE0
0DC0
0F80
0780
0700
0700
0780
0DC0
1CC0
18E0
3860
3070
603C
E01C
ENDCHAR
STARTCHAR 0470
ENCODING 1136
SWIDTH 720 0
DWIDTH 18 0
BBX 14 21 2 -5
BITMAP
0300
0300
0300
C30C
C30C
C30C
C30C
C30C
C30C
C30C
C30C
C30C
C30C
E31C
7FF8
1FE0
0300
0300
0300
0300
0300
ENDCHAR
STARTCHAR 0471
ENCODING 1137
SWIDTH 760 0
DWIDTH 19 0
BBX 17 13 1 0
BITMAP
180C00
300600
700600
61C300
61C300
E1C380
E1C380
E1C380
E1C300
61C300
71C700
3F7E00
1E3C00
ENDCHAR
STARTCHAR 0472
ENCODING 1138
SWIDTH 280 0
DWIDTH 7 0
BBX 7 18 0 0
BITMAP
C6
C6
C6
00
00
30
30
30
30
30
30
30
30
30
30
30
3C
1C
ENDCHAR
STARTCHAR 0473
ENCODING 1139
SWIDTH 600 0
DWIDTH 15 0
BBX 11 18 2 0
BITMAP
3980
3980
3980
0000
0000
E060
E060
E060
E060
E060
E060
E060
E060
E060
E0E0
70C0
7FC0
1F80
ENDCHAR
STARTCHAR 0474
ENCODING 1140
SWIDTH 280 0
DWIDTH 7 0
BBX 3 3 2 6
BITMAP
E0
E0
E0
ENDCHAR
STARTCHAR 0475
ENCODING 1141
SWIDTH 280 0
DWIDTH 7 0
BBX 8 3 0 15
BITMAP
3C
42
83
ENDCHAR
STARTCHAR 0476
ENCODING 1142
SWIDTH 0 0
DWIDTH 0 0
BBX 4 6 -9 -6
BITMAP
C0
C0
C0
C0
C0
F0
ENDCHAR
STARTCHAR 0477
ENCODING 1143
SWIDTH 280 0
DWIDTH 7 0
BBX 4 6 2 -6
BITMAP
C0
C0
C0
C0
C0
F0
ENDCHAR
STARTCHAR 0478
ENCODING 1144
SWIDTH 160 0
DWIDTH 4 0
BBX 2 5 2 12
BITMAP
C0
C0
40
80
80
ENDCHAR
STARTCHAR 0479
ENCODING 1145
SWIDTH 160 0
DWIDTH 4 0
BBX 2 5 2 12
BITMAP
C0
C0
40
80
80
ENDCHAR
STARTCHAR 047A
ENCODING 1146
SWIDTH 0 0
DWIDTH 0 0
BBX 4 3 -9 15
BITMAP
E0
60
30
ENDCHAR
STARTCHAR 047B
ENCODING 1147
SWIDTH 0 0
DWIDTH 0 0
BBX 4 3 -9 15
BITMAP
70
60
C0
ENDCHAR
STARTCHAR 047C
ENCODING 1148
SWIDTH 160 0
DWIDTH 4 0
BBX 2 5 2 12
BITMAP
C0
C0
80
80
40
ENDCHAR
STARTCHAR 047D
ENCODING 1149
SWIDTH 360 0
DWIDTH 9 0
BBX 8 7 0 15
BITMAP
06
0C
0C
08
18
C3
C3
ENDCHAR
STARTCHAR 047E
ENCODING 1150
SWIDTH 320 0
DWIDTH 8 0
BBX 8 7 0 15
BITMAP
60
30
30
10
18
C3
C3
ENDCHAR
STARTCHAR 047F
ENCODING 1151
SWIDTH 360 0
DWIDTH 9 0
BBX 7 5 2 12
BITMAP
CE
CC
48
98
90
ENDCHAR
STARTCHAR 0480
ENCODING 1152
SWIDTH 400 0
DWIDTH 10 0
BBX 7 5 2 12
BITMAP
CE
CC
88
98
50
ENDCHAR
STARTCHAR 0481
ENCODING 1153
SWIDTH 280 0
DWIDTH 7 0
BBX 3 5 1 12
BITMAP
C0
C0
60
60
20
ENDCHAR
STARTCHAR 0482
ENCODING 1154
SWIDTH 280 0
DWIDTH 7 0
BBX 3 5 1 12
BITMAP
60
60
C0
C0
80
ENDCHAR
STARTCHAR 0483
ENCODING 1155
SWIDTH 400 0
DWIDTH 10 0
BBX 7 5 2 12
BITMAP
D8
CC
4C
84
86
ENDCHAR
STARTCHAR 0484
ENCODING 1156
SWIDTH 440 0
DWIDTH 11 0
BBX 8 7 1 12
BITMAP
3E
43
C1
18
18
08
10
ENDCHAR
STARTCHAR 0485
ENCODING 1157
SWIDTH 400 0
DWIDTH 10 0
BBX 7 5 2 12
BITMAP
D8
CC
8C
84
46
ENDCHAR
STARTCHAR 0486
ENCODING 1158
SWIDTH 440 0
DWIDTH 11 0
BBX 8 7 1 12
BITMAP
3E
43
C1
18
18
08
08
ENDCHAR
STARTCHAR 0487
ENCODING 1159
SWIDTH 920 0
DWIDTH 23 0
BBX 19 18 2 0
BITMAP
C06000
E06000
E06000
B06000
B06000
9863C0
9867E0
8C6660
8C6420
866420
866420
836420
836660
81E7C0
81E3C0
80E000
80E7E0
8067E0
ENDCHAR
STARTCHAR 0488
ENCODING 1160
SWIDTH 760 0
DWIDTH 19 0
BBX 17 18 1 0
BITMAP
FE3F80
FE3F80
0E1C00
380E00
300700
700300
600380
E00380
E00180
E00180
E00180
E00180
600380
700300
380700
3C0E00
1FFC00
07F000
ENDCHAR
STARTCHAR 0489
ENCODING 1161
SWIDTH 760 0
DWIDTH 19 0
BBX 20 17 0 0
BITMAP
07F820
1FFE70
3C0FE0
7003C0
6003C0
C007C0
C002E0
C00060
C00060
C000E0
C000E0
E001C0
7001C0
7C0780
3FFF00
1FFE00
03F800
ENDCHAR
STARTCHAR 048A
ENCODING 1162
SWIDTH 240 0
DWIDTH 6 0
BBX 2 6 2 12
BITMAP
40
80
80
C0
C0
C0
ENDCHAR
STARTCHAR 048B
ENCODING 1163
SWIDTH 240 0
DWIDTH 6 0
BBX 3 6 2 12
BITMAP
E0
E0
E0
60
40
80
ENDCHAR
STARTCHAR 048C
ENCODING 1164
SWIDTH 560 0
DWIDTH 14 0
BBX 9 18 3 0
BITMAP
C180
C180
C180
C180
C180
C180
C180
C180
C180
C180
C180
C180
C180
C180
0000
0000
C180
C180
ENDCHAR
STARTCHAR 048D
ENCODING 1165
SWIDTH 840 0
DWIDTH 21 0
BBX 17 18 2 0
BITMAP
1F0180
3F8180
61C180
E0E180
C0E180
C0E180
00E180
01C180
038180
070180
060180
0E0180
0C0180
0C0180
000000
000000
0C0180
0C0180
ENDCHAR
STARTCHAR 048E
ENCODING 1166
SWIDTH 840 0
DWIDTH 21 0
BBX 17 18 3 0
BITMAP
C07C00
C1FE00
C18700
C38380
C30380
C30380
C00300
C00700
C00E00
C01C00
C01800
C03800
C03000
C03000
000000
000000
C03000
C03000
ENDCHAR
STARTCHAR 048F
ENCODING 1167
SWIDTH 560 0
DWIDTH 14 0
BBX 12 21 1 0
BITMAP
3FC0
0000
0000
0E00
1B00
1980
0000
0000
1F80
3FC0
70E0
E060
C070
FFF0
FFF0
C000
C070
E060
70E0
3FC0
1F00
ENDCHAR
STARTCHAR 0490
ENCODING 1168
SWIDTH 560 0
DWIDTH 14 0
BBX 12 22 1 0
BITMAP
1980
1B00
0E00
0000
0E00
1F00
1980
0000
0000
1F80
3FC0
70E0
E060
C070
FFF0
FFF0
C000
C070
E060
70E0
3FC0
1F00
ENDCHAR
STARTCHAR 0491
ENCODING 1169
SWIDTH 680 0
DWIDTH 17 0
BBX 15 25 1 0
BITMAP
0E00
0700
0100
0000
1FE0
0000
0000
0380
0380
07C0
06C0
0EC0
0EE0
0C60
1C70
1870
1830
3838
3FF8
7FF8
701C
601C
E00C
C00E
C006
ENDCHAR
STARTCHAR 0492
ENCODING 1170
SWIDTH 560 0
DWIDTH 14 0
BBX 12 20 1 0
BITMAP
1C00
0C00
0600
0000
3FC0
0000
0000
1F80
7FC0
70E0
6060
0060
0FE0
7F60
F060
C060
C0E0
E1E0
7F70
3E70
ENDCHAR
STARTCHAR 0493
ENCODING 1171
SWIDTH 560 0
DWIDTH 14 0
BBX 12 23 1 -5
BITMAP
0380
0700
0600
0000
0000
1F80
7FC0
70E0
6060
0060
0FE0
7F60
F060
C060
C0E0
E1E0
7F70
3E70
0030
0040
00C0
00F0
0070
ENDCHAR
STARTCHAR 0494
ENCODING 1172
SWIDTH 680 0
DWIDTH 17 0
BBX 13 24 2 -6
BITMAP
FFF8
FFF8
E000
E000
E000
E000
E000
E000
FFF0
FFF0
E000
E000
E000
E000
E000
E000
FFF8
FFF8
0000
0000
0200
0200
0200
0200
ENDCHAR
STARTCHAR 0495
ENCODING 1173
SWIDTH 560 0
DWIDTH 14 0
BBX 12 19 1 -6
BITMAP
1F80
3FC0
70E0
E060
C070
FFF0
FFF0
C000
C070
E060
70E0
3FC0
1F00
0000
0000
0400
0400
0400
0400
ENDCHAR
STARTCHAR 0496
ENCODING 1174
SWIDTH 680 0
DWIDTH 17 0
BBX 13 27 2 -5
BITMAP
0C00
0600
0300
0000
FFF8
FFF8
E000
E000
E000
E000
E000
E000
FFF0
FFF0
E000
E000
E000
E000
E000
E000
FFF8
FFF8
0000
0300
0300
0300
0300
ENDCHAR
STARTCHAR 0497
ENCODING 1175
SWIDTH 560 0
DWIDTH 14 0
BBX 12 24 1 -6
BITMAP
1800
0C00
0600
0000
0000
1F80
3FC0
70E0
E060
C070
FFF0
FFF0
C000
C070
E060
70E0
3FC0
1F00
0000
0000
0600
0600
0600
0600
ENDCHAR
STARTCHAR 0498
ENCODING 1176
SWIDTH 680 0
DWIDTH 17 0
BBX 13 28 2 -6
BITMAP
0180
0300
0600
0000
FFF8
FFF8
E000
E000
E000
E000
E000
E000
FFF0
FFF0
E000
E000
E000
E000
E000
E000
FFF8
FFF8
0000
0000
0200
0200
0200
0200
ENDCHAR
STARTCHAR 0499
ENCODING 1177
SWIDTH 560 0
DWIDTH 14 0
BBX 12 24 1 -6
BITMAP
0380
0700
0600
0000
0000
1F80
3FC0
70E0
E060
C070
FFF0
FFF0
C000
C070
E060
70E0
3FC0
1F00
0000
0000
0400
0400
0400
0400
ENDCHAR
STARTCHAR 049A
ENCODING 1178
SWIDTH 280 0
DWIDTH 7 0
BBX 8 25 0 0
BITMAP
60
30
18
00
FF
00
00
38
38
38
38
38
38
38
38
38
38
38
38
38
38
38
38
38
38
ENDCHAR
STARTCHAR 049B
ENCODING 1179
SWIDTH 280 0
DWIDTH 7 0
BBX 7 20 0 0
BITMAP
E0
70
10
00
FE
00
00
38
38
38
38
38
38
38
38
38
38
38
38
38
ENDCHAR
STARTCHAR 049C
ENCODING 1180
SWIDTH 240 0
DWIDTH 6 0
BBX 4 22 2 0
BITMAP
70
60
C0
00
C0
C0
00
00
00
C0
C0
C0
C0
C0
C0
C0
C0
C0
C0
C0
C0
C0
ENDCHAR
STARTCHAR 049D
ENCODING 1181
SWIDTH 760 0
DWIDTH 19 0
BBX 17 24 1 -6
BITMAP
07F000
1FFC00
3C1E00
380700
700380
600380
E00180
E00180
C00180
C00180
E00180
E00180
E00380
700300
700700
3C0E00
1FFC00
07F000
000000
000000
008000
008000
008000
008000
ENDCHAR
STARTCHAR 049E
ENCODING 1182
SWIDTH 560 0
DWIDTH 14 0
BBX 12 19 1 -6
BITMAP
1F80
3FC0
70E0
E060
C070
C030
C030
C070
C070
E060
70E0
7FC0
1F80
0000
0000
0400
0400
0400
0400
ENDCHAR
STARTCHAR 049F
ENCODING 1183
SWIDTH 760 0
DWIDTH 19 0
BBX 17 29 1 -6
BITMAP
030000
018000
00C000
000000
000000
07F000
1FFC00
3C1E00
380700
700380
600380
E00180
E00180
C00180
C00180
E00180
E00180
E00380
700300
700700
3C0E00
1FFC00
07F000
000000
000000
008000
008000
008000
008000
ENDCHAR
STARTCHAR 04A0
ENCODING 1184
SWIDTH 560 0
DWIDTH 14 0
BBX 12 24 1 -6
BITMAP
1800
0C00
0600
0000
0000
1F80
3FC0
70E0
E060
C070
C030
C030
C070
C070
E060
70E0
7FC0
1F80
0000
0000
0400
0400
0400
0400
ENDCHAR
ENDFONT
